<svg width="60" height="30" viewBox="0 0 60 30" xmlns="http://www.w3.org/2000/svg">
    <g fill-rule="nonzero" fill="none">
        <path d="M3.754 18.94c-.709-.332-1.29-.6-1.29-1.14 0-.415.331-.714.984-.714.214.001.428.023.638.065.103.02.208.03.313.034.572 0 .893-.34 1.108-.987l.088-.264a5.972 5.972 0 0 0-2.241-.447 2.652 2.652 0 0 0-2.959 2.53 2.18 2.18 0 0 0 .522 1.491c.438.452.963.811 1.543 1.056.797.392 1.517.681 1.517 1.261 0 .51-.532.808-1.243.808A3.874 3.874 0 0 1 .8 22.008l-.8 1.5a5.527 5.527 0 0 0 2.868.734 2.82 2.82 0 0 0 3.175-2.63c0-1.586-1.268-2.169-2.295-2.672h.006zM10.825 19.677l3.278-4.018h-2.336L9.153 19.12h-.045v-3.462H7.196v8.513h.115a1.658 1.658 0 0 0 1.823-1.775v-1.955h.038l2.665 3.624h2.45l-3.456-4.388-.006-.001zM14.214 6.54a1.994 1.994 0 0 0-1.68 1.83c0 .988.812 1.587.814 2.882a2.295 2.295 0 0 1-1.113 1.993c.234-.02.491-.035.774-.036.326-.004.65.015.973.059l3.04-3.731a12.613 12.613 0 0 0-2.805-2.998l-.003.001z" fill="#EA002C"/>
        <path d="M16.767 16.619c.356-.787.515-1.65.463-2.512.037-.902.224-1.581 1.43-1.587.269 0 .524.036.984.035a7.115 7.115 0 0 0 3.64-1.02 12.633 12.633 0 0 0-6.264-1.998c-.174.488-1.52 4.232-1.621 4.534.207.248.39.515.546.798a8.85 8.85 0 0 1 .822 1.745v.005z" fill="#EA002C"/>
        <path d="M10.35 13.557c-.154 0-.23-.102-.255-.28-.024-.176-.779-7.131-.892-8.184-.015-.153-.055-.435-.055-.537a.226.226 0 0 1 .23-.248c1.596.295 3.104.951 4.408 1.92A2.225 2.225 0 0 0 12.1 8.314c0 1.147.824 1.773.829 2.921.006 1.867-2.14 2.318-2.584 2.32l.006.002zM16.94 17.111c.026.073.058.143.095.21a.208.208 0 0 0 .187.118.437.437 0 0 0 .174-.046c.16-.074 6.503-3.029 7.466-3.471.139-.066.402-.184.49-.235a.233.233 0 0 0 .127-.203.244.244 0 0 0-.037-.127 7.824 7.824 0 0 0-1.76-1.558 7.849 7.849 0 0 1-3.983 1.147c-.464 0-.57-.032-.885-.029-.926 0-1.157.398-1.19 1.209 0 .153-.008.36-.017.585a4.051 4.051 0 0 1-.669 2.392l.003.008z" fill="#FF7A00"/>
        <g fill="#FF7A00">
            <path d="M23.922 20.902v3.157h1.187v-3.28c.255-.26.592-.423.953-.462a.91.91 0 0 1 .927 1.02v2.726h1.182v-3.022a1.632 1.632 0 0 0-1.72-1.753 2.1 2.1 0 0 0-1.426.623.765.765 0 0 0-.793-.519c-.15.006-.299.025-.445.059.1.477.146.964.135 1.451zM20.843 19.154a2.525 2.525 0 0 0 .225 5.009 2.805 2.805 0 0 0 1.761-.541l-.139-.23a.593.593 0 0 0-.531-.344c-.395 0-.446.166-.98.166a1.236 1.236 0 0 1-1.257-1.236h3.07v-.36a2.182 2.182 0 0 0-2.15-2.464zm-.925 1.964a.99.99 0 0 1 .905-1.051.98.98 0 0 1 .926 1.05h-1.83zM31.078 19.154a2.525 2.525 0 0 0 .226 5.009 2.805 2.805 0 0 0 1.761-.541l-.139-.23a.593.593 0 0 0-.532-.344c-.394 0-.445.166-.98.166a1.236 1.236 0 0 1-1.256-1.236h3.071v-.36a2.182 2.182 0 0 0-2.15-2.464zm-.924 1.964a.99.99 0 0 1 .905-1.051.98.98 0 0 1 .927 1.05h-1.832zM36.5 19.233a2.056 2.056 0 0 0-1.289.663.821.821 0 0 0-.854-.579 1.53 1.53 0 0 0-.311.036c.088.368.131.746.127 1.124v3.582h1.186v-3.375a1.53 1.53 0 0 1 .932-.418c.19-.005.376.044.538.141l.434-.976a1.24 1.24 0 0 0-.763-.198zM39.406 19.267a2.415 2.415 0 0 0-1.62.57 2.382 2.382 0 0 0-.679 1.754 2.41 2.41 0 0 0 .658 1.74c.202.193.442.341.704.436.302.102.618.153.936.15.216-.001.432-.016.647-.041v.023c0 .227-.1.444-.273.591a.998.998 0 0 1-.736.286 1.85 1.85 0 0 1-.625-.11 1.02 1.02 0 0 0-.31-.067c-.233 0-.324.17-.403.322-.012.026-.025.049-.038.072-.03.052-.105.222-.106.223.446.251.948.386 1.46.391.295.003.588-.05.865-.153.252-.094.482-.238.677-.424a1.9 1.9 0 0 0 .441-.65 1.75 1.75 0 0 0 .158-.74v-4.09a6.452 6.452 0 0 0-1.756-.283zm.656 3.647c-.17.044-.347.062-.523.054h-.023a1.199 1.199 0 0 1-.893-.369 1.392 1.392 0 0 1-.335-.996c-.023-.363.098-.72.335-.995.233-.243.557-.377.893-.369h.023c.176-.008.352.01.523.054v2.621zM45.154 19.45l-.957 2.97-.952-2.303c-.155-.383-.3-.74-.893-.74a3.156 3.156 0 0 0-.638.082l1.943 4.233a1.823 1.823 0 0 1-.465.87.924.924 0 0 1-.711.29 1.363 1.363 0 0 1-.59-.159l-.266.797c.283.133.59.202.903.202.713 0 1.554-.072 2.197-1.825l1.617-4.417h-1.188z"/>
        </g>
    </g>
</svg>
