<svg width="60" height="30" viewBox="0 0 60 30" xmlns="http://www.w3.org/2000/svg">
    <defs>
        <linearGradient x1="113.7%" y1="21.2%" x2="-26.1%" y2="79.6%" id="7zm2hnnu5a">
            <stop stop-color="#FFAF00" offset="0%"/>
            <stop stop-color="#C7B700" offset="100%"/>
        </linearGradient>
        <linearGradient x1="-31.8%" y1="22.6%" x2="95.9%" y2="73.5%" id="bhf170xdwb">
            <stop stop-color="#C7B700" offset="0%"/>
            <stop stop-color="#7DB212" offset="100%"/>
        </linearGradient>
        <linearGradient x1="16.4%" y1="16.4%" x2="101.1%" y2="83.1%" id="djoxa43kbc">
            <stop stop-color="#65C4F2" offset="0%"/>
            <stop stop-color="#00A6B9" offset="100%"/>
        </linearGradient>
        <linearGradient x1="119.7%" y1="22.2%" x2="25.5%" y2="72.2%" id="lis9ggq3ad">
            <stop stop-color="#00A6B9" offset="0%"/>
            <stop stop-color="#008F84" offset="100%"/>
        </linearGradient>
        <linearGradient x1="7%" y1="50%" x2="93.7%" y2="50%" id="pq6rp43eke">
            <stop stop-color="#0057AA" offset="0%"/>
            <stop stop-color="#65C4F2" offset="100%"/>
        </linearGradient>
        <linearGradient x1="0%" y1="50%" x2="100%" y2="50%" id="wl015y3qmf">
            <stop stop-color="#FFAF00" offset="0%"/>
            <stop stop-color="#ED6700" offset="66.6%"/>
            <stop stop-color="#E64800" offset="100%"/>
        </linearGradient>
        <linearGradient x1="5.8%" y1="50%" x2="92.6%" y2="50%" id="d6u6p0cygg">
            <stop stop-color="#7DB212" offset="0%"/>
            <stop stop-color="#008F84" offset="100%"/>
        </linearGradient>
    </defs>
    <g fill-rule="nonzero" fill="none">
        <path d="m1.676 4.258-.57-.63a7.956 7.956 0 0 0-1.1 3.996h.4a4.814 4.814 0 0 1 1.27-3.366z" fill="url(#7zm2hnnu5a)" transform="translate(0 7)"/>
        <path d="M1.574 10.45A3.73 3.73 0 0 1 .4 7.633v-.008H0a9.856 9.856 0 0 0 .761 3.93l.813-1.105z" fill="url(#bhf170xdwb)" transform="translate(0 7)"/>
        <path d="m14.109 6.604-.732.755a1.629 1.629 0 0 1 1.615 1.795h.4a3.277 3.277 0 0 0-1.283-2.55z" fill="url(#djoxa43kbc)" transform="translate(0 7)"/>
        <path d="M15.383 9.154h-.4a2.303 2.303 0 0 1-1.431 2.022l1.028 1.416a7.117 7.117 0 0 0 .803-3.438z" fill="url(#lis9ggq3ad)" transform="translate(0 7)"/>
        <path d="M2.088 6.47a2.612 2.612 0 0 0-.043.472 3.76 3.76 0 0 0 3.964 3.853c4.208 0 5.461-3.437 7.34-3.437h.03l.731-.756a6.087 6.087 0 0 0-3.892-1.216c-3.33 0-5.104 2.781-6.616 2.781a1.357 1.357 0 0 1-1.161-1.423c0-.07.004-.141.012-.21l-.365-.063z" fill="url(#pq6rp43eke)" transform="translate(0 7)"/>
        <path d="M4.695 3.022c2.43 0 4.118 1.84 6.288 1.84a3.96 3.96 0 0 0 4.395-3.745l-.4-.065c-.11.656-.532 1.444-1.304 1.444-.723 0-1.489-.635-2.605-1.248A7.934 7.934 0 0 0 7.073 0a6.987 6.987 0 0 0-5.976 3.627l.571.63a4.097 4.097 0 0 1 3.027-1.235z" fill="url(#wl015y3qmf)" transform="translate(0 7)"/>
        <path d="M7.236 12.175a8.579 8.579 0 0 1-5.662-1.731l-.807 1.105a7.459 7.459 0 0 0 7.344 4.433 7.16 7.16 0 0 0 6.476-3.393l-1.028-1.415a14.398 14.398 0 0 1-6.323 1.001z" fill="url(#d6u6p0cygg)" transform="translate(0 7)"/>
        <g fill="#0057AA">
            <path d="M21.847 18.96a3.584 3.584 0 0 1-3.781-3.967 3.665 3.665 0 0 1 3.825-3.996 4.738 4.738 0 0 1 2.346.568l-.256 1.66a3.796 3.796 0 0 0-2.047-.654c-1.323 0-1.966.977-1.966 2.411 0 1.435.666 2.459 1.988 2.459a2.03 2.03 0 0 0 1.035-.246v-1.367H21.66l-.222-1.412h3.213v3.73a5.04 5.04 0 0 1-2.797.81M28.295 18.906a6.299 6.299 0 0 1-2.68-.578l.277-1.624c.744.426 1.579.67 2.435.712.545 0 .923-.235.923-.689 0-.434-.222-.635-1.301-1.045-1.533-.59-2.202-1.089-2.202-2.358a2.318 2.318 0 0 1 2.623-2.264 4.863 4.863 0 0 1 2.313.511l-.289 1.598a4.184 4.184 0 0 0-1.998-.622c-.576 0-.856.244-.856.601 0 .388.212.578 1.168.945 1.67.61 2.336 1.189 2.336 2.41 0 1.67-1.221 2.398-2.746 2.398"/>
        </g>
        <g fill="#8E8E8F">
            <path d="M39.383 11.197h-.824v3.783h.824V13.38h.986v-.739h-.986zM37.432 11.362h-3.888v.74h2.87c-.055.259-.149.508-.278.74h-2.592v.69h2.015a4.704 4.704 0 0 1-2.453.932l.322.625a4.094 4.094 0 0 0 4.004-3.727zM35.105 17.338h4.277v-2.03h-5.141v.716h4.317v.642h-4.276v1.685a.418.418 0 0 0 .41.411h4.729v-.716h-4.317l.001-.708z"/>
        </g>
        <g fill="#8E8E8F">
            <path d="M46.366 11.197h1v4.193h-1zM45.766 15.39v-4.193h-.8v1.624h-1.011v.739h1.012v1.832z"/>
            <path d="M44.229 14.343h-2.327v-.814h1.732v-.69h-1.732v-.76h2.055v-.716h-2.871v3.289a.418.418 0 0 0 .41.411h2.738l-.005-.72zM41.902 16.46h4.44v2.304h.821V15.72h-5.262z"/>
        </g>
        <g fill="#8E8E8F">
            <path d="M51.06 11.28v.953a2.984 2.984 0 0 1-2.722 2.878l.362.65a4.262 4.262 0 0 0 2.788-1.81 4.262 4.262 0 0 0 2.788 1.81l.362-.65a2.984 2.984 0 0 1-2.723-2.878v-.954h-.856zM48.117 17.28h6.742v1h-6.742z"/>
        </g>
    </g>
</svg>
