<svg width="60" height="30" viewBox="0 0 60 30" xmlns="http://www.w3.org/2000/svg">
    <defs>
        <radialGradient cx="-2812.254%" cy="123.1%" fx="-2812.254%" fy="123.1%" r="151.656%" gradientTransform="matrix(.65714 0 0 1 -9.642 0)" id="iadf08v7xa">
            <stop stop-color="#FFBE00" offset="60%"/>
            <stop stop-color="#FF9D00" offset="100%"/>
        </radialGradient>
        <radialGradient cx="9401.91%" cy="-9399.862%" fx="9401.91%" fy="-9399.862%" r="177.049%" gradientTransform="scale(1 .4985) rotate(-38.243 -42.362 -141.282)" id="0eru1cq1hb">
            <stop stop-color="#FFBE00" offset="60%"/>
            <stop stop-color="#FF9D00" offset="100%"/>
        </radialGradient>
        <radialGradient cx="5084.591%" cy="-14985.195%" fx="5084.591%" fy="-14985.195%" r="215.231%" gradientTransform="scale(1 .4117) rotate(-76.381 -85.256 -256.917)" id="agwhhjdwwc">
            <stop stop-color="#FFBE00" offset="60%"/>
            <stop stop-color="#FF9D00" offset="100%"/>
        </radialGradient>
        <radialGradient cx="4922.383%" cy="-13421.283%" fx="4922.383%" fy="-13421.283%" r="142.648%" gradientTransform="scale(-.6974 -1) rotate(65.69 -218.578 -92.79)" id="lq3xe90k0d">
            <stop stop-color="#FFBE00" offset="60%"/>
            <stop stop-color="#FF9D00" offset="100%"/>
        </radialGradient>
        <radialGradient cx="6314.666%" cy="-19573.188%" fx="6314.666%" fy="-19573.188%" r="248.572%" gradientTransform="matrix(-.30043 -.45913 .15527 -.88837 112.508 -340.622)" id="v7uhkigmge">
            <stop stop-color="#FFBE00" offset="60%"/>
            <stop stop-color="#FF9D00" offset="100%"/>
        </radialGradient>
    </defs>
    <g fill-rule="nonzero" fill="none">
        <g fill="#007338">
            <path d="M35.37 13.528h3.099v9.002H35.37zM43.34 20.487v-6.96h-3.099v9.003h8.488v-2.043zM22.865 19.02h-3.534v-1.928h3.534zM29.044 13.184a4.599 4.599 0 0 0-5.002 4.833c0 3.972 2.877 4.833 5.002 4.833s5.006-.86 5.006-4.833c0-4.123-2.89-4.833-5.006-4.833zm0 7.635c-1.118 0-1.664-.845-1.664-2.803s.546-2.8 1.664-2.8c1.119 0 1.665.843 1.665 2.8 0 1.956-.547 2.803-1.665 2.803z"/>
        </g>
        <path d="M15.456 2.82a7.069 7.069 0 0 0-4.795 1.039 6.015 6.015 0 0 0-2.373 3.6 6.192 6.192 0 0 1 6.165-2.356 2.85 2.85 0 0 0 .727-1.058c.176-.385.27-.802.276-1.225z" fill="url(#iadf08v7xa)" transform="translate(0 6.707)"/>
        <path d="M10.222 0a7.062 7.062 0 0 0-3.127 3.775 6.015 6.015 0 0 0 .359 4.298A6.19 6.19 0 0 1 10.84 2.41a2.845 2.845 0 0 0-.08-1.281c-.1-.41-.283-.795-.54-1.13z" fill="url(#0eru1cq1hb)" transform="translate(0 6.707)"/>
        <path d="M4.363 1.02a7.07 7.07 0 0 0-.125 4.906 6.02 6.02 0 0 0 2.94 3.156 6.19 6.19 0 0 1-.838-6.543 2.841 2.841 0 0 0-.857-.956 3.032 3.032 0 0 0-1.12-.564z" fill="url(#agwhhjdwwc)" transform="translate(0 6.707)"/>
        <path d="M.411 5.409a7.067 7.067 0 0 0 2.92 3.943 6.018 6.018 0 0 0 4.26.682 6.192 6.192 0 0 1-4.685-4.646 2.846 2.846 0 0 0-1.258-.228 3.037 3.037 0 0 0-1.237.249z" fill="url(#lq3xe90k0d)" transform="translate(0 6.707)"/>
        <path d="M0 11.36a7.07 7.07 0 0 0 4.736 1.281A6.02 6.02 0 0 0 8.5 10.535a6.192 6.192 0 0 1-6.555-.74 2.833 2.833 0 0 0-1.132.604c-.335.26-.612.587-.813.96z" fill="url(#v7uhkigmge)" transform="translate(0 6.707)"/>
        <g fill="#007338">
            <path d="M14.266 16.697c-1.032-.35-2.094-.595-2.03-1.067.055-.404.546-.629 1.563-.629a9.53 9.53 0 0 1 3.182.67l1.107-1.954a13.337 13.337 0 0 0-4.498-.881c-2.894 0-4.766 1.174-4.766 2.99 0 2.23 2.265 2.853 4.069 3.422 1.108.35 2.087.61 2.087 1.15 0 .732-1.215.726-1.716.694a9.185 9.185 0 0 1-3.604-1.147l-1.201 1.93a10.719 10.719 0 0 0 5.132 1.418c2.917 0 4.803-1.033 4.803-3.16-.003-2.198-2.286-2.81-4.128-3.436z"/>
        </g>
    </g>
</svg>
