<svg width="60" height="30" viewBox="0 0 60 30" xmlns="http://www.w3.org/2000/svg">
    <g fill-rule="nonzero" fill="none">
        <path d="M11.798 10.092a.44.44 0 0 0 .08.11c.023.016.055.023.074.043.019.02.023.059.043.08.02.02.084.052.11.087.025.035.016.044.03.061.03.028.064.053.1.074.038.029.059.084.092.118.015.015.037.017.056.03.019.014.036.06.061.08.046.034.09.071.13.11.014.015.018.035.03.05.043.048.11.08.15.13.044.061.094.12.148.172.008.008.022.006.03.013l.069.08c.02.015.046.023.061.043.027.044.06.083.1.117.025.013.048.03.067.05a.982.982 0 0 0 .087.11c.017.015.043.018.056.037a.41.41 0 0 0 .062.087c.024.02.054.03.08.05.027.02.044.084.08.11.02.014.043.016.062.03l.062.074a.637.637 0 0 0 .117.062.848.848 0 0 0 .66-.057l.056-.068c.028-.026.072-.042.092-.073l.026-.074c.015-.024.046-.045.061-.068a.684.684 0 0 0 .031-.33.697.697 0 0 0-.043-.22c-.024-.038-.071-.071-.092-.11l-.012-.056c-.026-.045-.1-.062-.13-.11l-.019-.05a.555.555 0 0 0-.123-.092c-.028-.022-.033-.071-.061-.092a.887.887 0 0 1-.11-.074c-.028-.028-.04-.071-.069-.099a.607.607 0 0 0-.061-.037c-.024-.019-.032-.049-.05-.074-.017-.025-.059-.04-.086-.061a.44.44 0 0 1-.074-.093l-.149-.13c-.11-.122-.22-.23-.33-.351a.621.621 0 0 0-.098-.074.31.31 0 0 1-.062-.08c-.033-.048-.103-.07-.136-.118l-.019-.05c-.023-.035-.074-.061-.087-.11a.38.38 0 0 1 .007-.136c.036-.024.037-.044.061-.08.025-.036.047-.03.062-.05.015-.018.053-.068.08-.11a.311.311 0 0 1 .068-.049.338.338 0 0 0 .069-.087.323.323 0 0 1 .08-.061l.136-.154a.345.345 0 0 0 .087-.062c.017-.022.024-.054.043-.074a.566.566 0 0 1 .074-.049.405.405 0 0 0 .068-.092c.024-.032.07-.048.099-.074a.61.61 0 0 0 .061-.087.373.373 0 0 1 .087-.061.317.317 0 0 0 .074-.093c.02-.034.066-.05.099-.073.033-.025.06-.09.099-.124.014-.012.034-.013.05-.025.035-.026.05-.07.08-.11.03-.04.097-.06.13-.11.06-.083.118-.17.172-.26a.667.667 0 0 0 .024-.314.12.12 0 0 0-.007-.043v-.068a.608.608 0 0 0-.061-.099l-.012-.056a1.003 1.003 0 0 0-.167-.185c-.048-.025-.093-.033-.137-.061a.52.52 0 0 0-.099-.062.853.853 0 0 0-.247-.012c-.03.019-.076.011-.11.024-.034.014-.073.05-.11.069-.054.03-.12.033-.16.073-.041.04-.054.078-.087.11a.519.519 0 0 1-.062.038c-.03.023-.046.072-.074.098-.027.027-.078.05-.11.087a.33.33 0 0 1-.061.08.29.29 0 0 0-.068.05c-.016.02-.021.043-.038.062-.032.036-.083.058-.117.092-.084.1-.175.192-.272.278-.052.039-.077.11-.13.149a.375.375 0 0 0-.11.08c-.01.015-.01.037-.024.05-.013.011-.071.039-.099.068a.586.586 0 0 0-.05.073c-.038.04-.079.077-.122.11a.496.496 0 0 0-.038.062c-.018.025-.053.034-.073.056-.031.04-.064.08-.1.117-.07.06-.135.124-.197.192l-.068.056c-.03.038-.046.08-.074.118-.008.01-.029.014-.038.025l-.024.087c-.018.03-.061.05-.073.087v.056c-.021.081-.048.167-.069.253v.185c-.002.23.064.457.192.649.046.06.106.085.134.13zM15.294 9.844c.011.012.034.017.043.031.03.043.044.095.074.137.03.041.07.053.092.086.022.033.01.047.024.062.035.037.104.056.13.099.009.015 0 .027.012.043.022.035.084.061.118.087.034.025.03.056.05.08.02.024.079.055.11.087.03.032.017.035.03.056.042.04.088.077.137.11l.03.056c.033.033.07.062.11.087.029.02.038.061.062.087.029.024.06.047.092.068.047.036.08.1.123.142.02.018.052.026.069.05l.018.049a.44.44 0 0 0 .08.056c.039.028.058.081.093.11.048.033.094.07.136.11.019.022.029.048.05.068.02.02.07.043.092.073.022.031.025.055.05.074a.55.55 0 0 1 .11.08c.014.02.014.052.03.068.028.02.057.04.087.057l.062.068a.865.865 0 0 0 .148.08c.108.024.22.034.33.03.069-.01.136-.024.203-.042.074-.03.09-.066.142-.11a.77.77 0 0 0 .241-.593 1.17 1.17 0 0 0-.092-.24c-.012-.018-.039-.03-.05-.05-.01-.02 0-.033-.005-.05a.756.756 0 0 0-.087-.061.387.387 0 0 1-.074-.099c-.032-.046-.097-.066-.136-.11-.019-.018-.022-.046-.038-.068-.015-.022-.062-.045-.092-.068-.03-.023-.03-.054-.05-.08-.032-.046-.1-.062-.136-.11-.035-.049-.02-.065-.05-.087a.523.523 0 0 1-.11-.08.584.584 0 0 0-.086-.11c-.022-.02-.056-.026-.074-.05-.017-.024-.012-.036-.024-.05a.88.88 0 0 0-.099-.073c-.019-.014-.022-.036-.037-.056-.016-.02-.027-.016-.038-.024a.954.954 0 0 1-.13-.142l-.08-.068a2.804 2.804 0 0 1-.234-.26c-.032-.044-.087-.062-.099-.13a.257.257 0 0 1 .11-.22.666.666 0 0 0 .087-.11.556.556 0 0 1 .118-.098.29.29 0 0 0 .05-.069.512.512 0 0 1 .11-.087c.031-.025.05-.075.08-.11.029-.034.066-.04.092-.068.025-.027.02-.05.037-.073.018-.023.056-.032.08-.05a.421.421 0 0 0 .075-.092.523.523 0 0 1 .11-.093l.092-.117a.421.421 0 0 0 .093-.074.486.486 0 0 1 .05-.068.508.508 0 0 1 .067-.043c.032-.022.046-.06.069-.092.023-.032.074-.053.11-.08.035-.028.03-.055.049-.08.019-.026.078-.05.11-.081a.575.575 0 0 0 .05-.08c.021-.03.064-.05.086-.08l.019-.087a.79.79 0 0 0 .062-.11.588.588 0 0 0-.05-.427c-.02-.04 0-.066-.025-.099-.008-.011-.029-.02-.038-.03a.636.636 0 0 0-.16-.168l-.13-.043a.41.41 0 0 0-.11-.068l-.191-.007c-.032.02-.073.011-.11.025-.037.013-.072.056-.11.073-.038.018-.084.015-.118.038-.034.023-.061.077-.099.11a.25.25 0 0 0-.056.043c-.01.015-.014.04-.03.049-.017.01-.031 0-.043.012-.012.012-.01.03-.019.043-.009.012-.044.025-.062.043a.827.827 0 0 0-.092.118c-.018.025-.048.03-.074.049a.356.356 0 0 0-.08.11c-.03.044-.098.062-.13.11-.01.013-.008.029-.018.043-.01.014-.045.032-.069.05-.023.017-.018.033-.03.049-.012.015-.03.014-.043.024-.013.01-.019.033-.031.05-.012.016-.05.031-.074.049-.024.017-.051.088-.08.11-.028.022-.045.02-.068.037-.042.029-.057.088-.092.123-.017.017-.042.018-.062.031-.042.029-.065.087-.099.123-.034.037-.11.075-.136.11l-.019.05c-.034.04-.096.057-.13.099l-.018.05c-.03.043-.1.065-.137.11-.014.013-.013.038-.024.055-.03.044-.099.06-.13.11-.013.019-.012.043-.024.062l-.08.073-.025.08c-.016.027-.047.05-.062.074a1.004 1.004 0 0 0-.056.18l-.007.073a1.14 1.14 0 0 0 .043.649l.035.137zM18.494 14.76a.758.758 0 0 0-.087-.087.64.64 0 0 0-.167-.056.752.752 0 0 0-.494.038c-.012.008-.02.027-.03.037-.03.025-.07.036-.1.062-.028.025-.025.046-.042.068a.955.955 0 0 0-.1.11c-.008.014 0 .025-.011.037l-.038.031-.012.074c-.019.033-.06.05-.08.08-.02.03-.007.046-.019.068-.012.022-.054.063-.073.093-.02.03-.017.046-.031.068-.015.022-.08.058-.1.092-.019.034 0 .053-.018.075-.019.022-.065.054-.087.087-.089.133-.188.25-.283.377a.314.314 0 0 1-.069.05c-.03.022-.035.051-.056.086-.02.035-.041.029-.061.043l-.05.062c-.01.007-.028.007-.037.018-.009.011-.008.032-.019.05-.025.044-.083.061-.123.092l-.05.08a1.218 1.218 0 0 0-.123.087c-.02.02-.024.054-.042.074-.02.02-.095.045-.13.08a.839.839 0 0 1-.08.093 1.146 1.146 0 0 0-.13.073c-.021.021-.024.057-.05.074-.025.016-.07.033-.11.056-.04.023-.08.08-.123.11s-.084.042-.123.068a1.21 1.21 0 0 0-.092.087l-.087.03c-.029.02-.052.056-.08.074-.029.02-.047.01-.062.026-.015.015 0 .02-.012.024-.039.026-.09.03-.13.056a1.54 1.54 0 0 1-.191.123l-.08.019c-.057.033-.117.087-.173.117-.056.031-.119.028-.173.057a1.553 1.553 0 0 1-.21.117c-.045.014-.078 0-.117.019-.019.008-.038.028-.056.037-.039.017-.064.016-.11.031-.047.015-.083.052-.124.068l-.16.024c-.02.008-.05.03-.068.038-.047.02-.098 0-.142.025-.06.031-.122.058-.186.08l-.22.025c-.168.044-.336.082-.493.123l-.21.018h-.093c-.067.016-.15 0-.229.02h-.098c-.041.008-.11 0-.156.006-.072.009-.146.011-.22.006-.126 0-.248 0-.377.007a.577.577 0 0 1-.11-.019c-.078-.019-.167 0-.234-.012l-.382-.019c-.093-.022-.17-.051-.253-.073a.11.11 0 0 0-.05 0c-.055-.019-.13-.033-.186-.05l-.302-.037c-.11-.034-.23-.102-.34-.136-.071-.022-.15-.007-.21-.038-.059-.03-.13-.072-.191-.099l-.198-.056c-.063-.027-.126-.074-.186-.11-.042-.022-.09-.017-.136-.037a1.691 1.691 0 0 1-.198-.123c-.034-.021-.073-.018-.11-.038-.067-.034-.132-.093-.198-.13a.77.77 0 0 1-.136-.061c-.006 0 0-.02-.012-.024l-.08-.056c-.025-.017-.08-.036-.118-.062-.017-.012-.028-.037-.043-.05l-.05-.012c-.02-.012-.036-.037-.056-.049-.02-.012-.058-.024-.086-.043l-.069-.074c-.048-.035-.11-.057-.154-.092-.023-.017-.035-.047-.056-.068a.955.955 0 0 0-.123-.074c-.022-.016-.028-.05-.05-.068-.045-.038-.1-.063-.148-.099l-.08-.11c-.02-.015-.046-.016-.068-.03-.05-.035-.075-.11-.123-.142a.307.307 0 0 1-.074-.057c-.02-.028-.027-.064-.056-.086a.383.383 0 0 1-.092-.074c-.013-.018-.011-.04-.026-.056-.03-.035-.084-.056-.11-.092-.013-.018-.012-.043-.025-.062-.033-.05-.11-.08-.136-.13-.015-.023-.016-.046-.031-.068l-.074-.068-.018-.056c-.026-.04-.08-.062-.11-.1l-.02-.067c-.02-.034-.066-.058-.086-.093-.009-.016 0-.035-.012-.05-.023-.035-.068-.067-.092-.11-.025-.04-.011-.045-.025-.067-.013-.022-.053-.063-.073-.093-.02-.03-.029-.071-.05-.11-.02-.038-.045-.04-.056-.068l-.006-.043c-.022-.038-.083-.066-.118-.092-.015-.012-.022-.037-.037-.05a.705.705 0 0 0-.44-.11c-.048.031-.16.026-.22.05a.98.98 0 0 0-.248.198c-.014.02-.014.055-.03.074-.017.018-.03.018-.038.03a.887.887 0 0 0-.006.588c.014.036.067.063.087.098l.012.057c.02.039.045.076.073.11.016.02.017.046.031.068.014.022.06.056.08.087l.031.092.087.08.007.043c.01.021.041.042.056.062.026.038.04.079.068.117.027.039.06.05.08.08l.024.069c.017.023.082.068.11.092.029.024.021.053.038.074l.117.11c.022.03.034.056.056.087l.069.056c.025.035.042.066.068.099l.073.061c.016.023.016.052.038.068.032.021.063.044.092.069.018.018.016.046.03.068.016.022.054.026.075.043.033.034.063.071.092.11.04.04.092.062.136.098l.056.08c.039.03.11.054.137.093.026.04.027.06.056.08a.963.963 0 0 1 .123.074c.02.02.03.056.056.074.025.017.084.035.123.061.014.01.019.031.03.043.045.04.093.077.143.11.02.012.043.006.061.019l.031.055c.013.01.028 0 .043.012.015.012.027.033.043.043l.061.018c.053.037.103.078.149.124.035.03.091.035.13.061l.037.043c.02.015.046.017.068.03.022.015.023.03.038.038.037.02.074.022.11.043.055.033.11.085.167.118.042.016.085.03.13.043.055.026.11.082.16.11.05.027.11.027.167.056.013.006.02.03.03.037l.075.012c.028.014.059.042.086.056.028.014.083.019.124.038.017.007.028.028.042.037.015.009.084.024.13.043.029.012.063.038.093.05l.153.025c.041.015.07.056.11.073h.038c.062.021.127.045.191.062.064.016.086 0 .13.019.044.018.098.061.148.08l.118.012c.052.013.1.03.148.043l.149.012c.083.022.158.058.24.08l.093.007c.148.036.319.03.476.068h.118c.062 0 .124.007.186.019h.08c.092.02.208.016.302.037.024 0 .06-.009.1 0 .179.036.364.034.542-.007h.118c.088-.02.176-.014.272-.037h.086c.131-.03.264 0 .396-.03l.118-.007c.082-.02.167-.031.24-.05l.118-.012c.059-.02.122-.05.192-.068l.172-.019c.062-.016.133-.038.192-.056l.08-.006c.036-.013.068-.048.11-.062a.997.997 0 0 1 .117-.019c.04-.012.08-.026.118-.043.047-.017.087-.007.136-.024.05-.016.072-.047.11-.061.11-.048.22-.065.33-.11l.08-.056c.043-.018.094-.01.137-.031a.864.864 0 0 1 .087-.056h.05c.043-.016.072-.064.117-.08a.953.953 0 0 0 .283-.142l.124-.05c.017-.01.032-.04.05-.05l.055-.011.038-.043c.04-.026.09-.024.13-.05.039-.025.08-.071.117-.099.036-.027.084-.026.123-.05.057-.032.1-.093.154-.129.015-.011.029 0 .05-.012.02-.012.049-.04.073-.056l.038-.012c.02-.019.033-.05.056-.068.054-.041.12-.063.172-.11.015-.012.022-.039.038-.05.034-.025.071-.037.11-.061.038-.025.075-.092.123-.124.047-.031.067-.033.099-.056s.043-.07.073-.092c.031-.022.103-.046.13-.087.014-.02.018-.046.038-.061.04-.022.08-.047.117-.074.022-.023.024-.066.05-.087a.603.603 0 0 0 .117-.087c.024-.033.035-.075.068-.099.033-.024.07-.03.087-.056l.019-.056c.03-.044.093-.063.123-.11l.019-.05.13-.117c.057-.088.119-.172.185-.253l.055-.05.02-.055c.023-.04.077-.07.109-.11l.012-.043c.02-.033.058-.056.08-.087.022-.03.02-.055.038-.08l.043-.038c.026-.037.037-.077.061-.117.024-.041.064-.065.087-.1.023-.033.007-.046.019-.068.012-.022.054-.05.073-.073.02-.024.015-.072.031-.1.017-.027.042-.04.056-.06.015-.022.011-.068.025-.1a.568.568 0 0 0 .049-.11.741.741 0 0 0-.142-.537.126.126 0 0 1-.09-.026zM3.962 11.123c.024.029.071.044.092.074.02.03.016.047.03.068.035.034.072.065.11.092.031.031.05.076.08.11.015.013.04.013.057.024.04.028.064.08.099.11a.828.828 0 0 0 .08.05c.03.022.042.063.068.087.027.024.11.044.137.061.066.039.12.092.186.13l.148.05c.029.017.052.053.08.068l.062.006c.033.011.071.038.11.05.07.023.13.02.198.043.038.013.071.047.11.061.075.018.151.03.228.038.176.024.354.032.531.024.083.003.166 0 .248-.007.093-.018.17 0 .26-.018.058-.015.132-.029.19-.043.017 0 .02.007.044 0 .049-.018.083-.056.136-.074l.11-.019c.034-.01.062-.037.092-.05.03-.011.073-.006.11-.023.038-.018.028-.039.043-.05.044-.03.104-.023.154-.05a1.12 1.12 0 0 0 .13-.086c.012-.009.023-.03.037-.038.014-.007.056-.008.08-.024a.59.59 0 0 0 .062-.061c.047-.036.097-.07.148-.1.066-.047.11-.125.18-.172.012-.009.031-.008.042-.019.011-.01.028-.059.05-.08l.024-.006a.61.61 0 0 0 .11-.142c.023-.032.064-.055.087-.087.023-.032.034-.08.062-.11.027-.03.056-.039.068-.062.012-.023 0-.047.018-.068.02-.02.05-.05.062-.08l.012-.074c.015-.028.053-.056.068-.087l.012-.061c.023-.036.044-.072.062-.11 0-.014-.009-.021 0-.05.04-.13.11-.3.142-.426l.012-.198c.012-.08.018-.16.018-.241a.706.706 0 0 1-.006-.13.287.287 0 0 0-.007-.123l-.006-.203c-.011-.05-.023-.142-.043-.22a1.472 1.472 0 0 0-.05-.186c-.007-.018-.03-.029-.037-.05-.015-.043 0-.08-.019-.13-.018-.048-.048-.069-.061-.11l-.007-.055c-.017-.04-.064-.067-.08-.11l-.007-.056c-.014-.033-.051-.063-.068-.093-.016-.03 0-.052-.019-.073l-.073-.062c-.017-.022-.016-.056-.031-.08s-.08-.066-.11-.11a1.93 1.93 0 0 0-.538-.52c-.024-.014-.043-.045-.068-.06-.025-.016-.061-.02-.092-.038-.031-.019-.067-.07-.11-.092-.043-.023-.087-.028-.13-.05a1.991 1.991 0 0 0-.265-.136c-.046-.016-.082-.008-.123-.026-.04-.017-.081-.053-.123-.068l-.093-.012c-.066-.017-.144-.032-.21-.05-.05-.012-.11 0-.148-.011-.067-.017-.143 0-.203-.012-.117-.029-.33.024-.427 0-.055.031-.22 0-.302.024-.083.024-.146.036-.21.056a.58.58 0 0 0-.11.019 1.1 1.1 0 0 1-.118.068c-.073.024-.132.023-.198.05-.047.019-.082.073-.13.092-.047.018-.074.012-.11.03-.061.032-.123.087-.179.123-.056.037-.094.039-.136.069-.017.012-.022.037-.038.05-.057.046-.126.077-.185.122-.022.018-.027.057-.05.074a.498.498 0 0 0-.11.092c-.013.018-.016.041-.03.056a.839.839 0 0 0-.11.11l-.013.043c-.026.04-.088.062-.11.11-.01.018 0 .034-.012.05-.012.015-.038.035-.05.055-.027.05-.045.09-.073.141-.012.022-.044.041-.056.062l-.012.068a.677.677 0 0 1-.062.087c-.013.02-.008.042-.018.068-.01.027-.037.065-.05.093a1.893 1.893 0 0 0-.061.22 2.199 2.199 0 0 0-.087 1.062v.056c.017.076.024.177.043.247l.006.068c.021.032.04.065.056.1.016.049 0 .085.019.129s.042.082.056.118c.01.042.025.083.043.123.012.02.037.04.05.061.012.021.01.056.024.087.026.041.055.08.087.118l.018.056c.02.03.055.057.074.087l.019.092zm.908-2.07.012-.06c.015-.037.053-.073.068-.11l.007-.05c0-.013.024-.025.03-.038.025-.04.03-.084.057-.123l.11-.099.018-.056.05-.037c.043-.053.09-.103.141-.149.03-.02.07-.023.1-.042.048-.045.1-.086.153-.124l.13-.024c.014-.006.03-.025.043-.03.045-.02.081-.014.13-.031.048-.018.081-.042.123-.055.042-.014.155 0 .185-.019.127-.013.256-.009.382.012.087.026.183.08.266.11.075.014.149.035.22.062l.038.056c.059.041.127.062.185.11l.057.073c.105.08.194.181.259.297.038.06.16.238.142.315.073.18.097.376.068.568v.092c-.014.07-.038.16-.062.23-.013.04 0 .07-.018.11-.019.038-.037.04-.05.06l-.012.057c-.013.033-.05.058-.068.087l-.03.086-.093.087c-.016.022-.021.047-.038.069a.515.515 0 0 1-.11.08c-.041.03-.072.083-.117.11-.045.026-.073.026-.11.05a.927.927 0 0 1-.11.086 1.06 1.06 0 0 1-.148.037c-.032.011-.072.038-.1.05-.04.01-.081.018-.123.024-.034.012-.07.039-.11.05h-.21a.759.759 0 0 1-.228-.012c-.033-.011-.072-.038-.11-.05-.039-.012-.11 0-.149-.019-.015-.006-.034-.03-.05-.037l-.117-.019a1.08 1.08 0 0 1-.191-.13c-.034-.021-.077-.025-.11-.049s-.024-.053-.043-.068l-.037-.012-.05-.056c-.018-.013-.048-.02-.061-.038-.014-.017-.012-.043-.025-.061-.028-.043-.08-.075-.11-.118-.028-.043-.032-.07-.054-.11-.007-.01-.026-.02-.031-.03-.019-.036-.013-.078-.031-.11-.018-.034-.04-.037-.05-.057a.696.696 0 0 1-.037-.172c-.006-.028-.026-.09-.037-.13-.011-.04 0-.099-.007-.148-.02-.168 0-.337.06-.494h.003z" fill="#FCEE21"/>
        <path d="M22.353.007h-9.331c-.73 0-1.506-.009-2.205-.007-.05.032-.152 0-.22.019-.13.03-.307.018-.45.05L9.867.08c-.046.01-.104.008-.154.024A.674.674 0 0 1 9.53.16a1.76 1.76 0 0 0-.378.061l-.234.02c-.135.035-.276.09-.413.129-.086.024-.18.01-.26.037-.103.034-.22.092-.33.13l-.203.03a.542.542 0 0 0-.074.05 1.183 1.183 0 0 1-.13.043c-.014.007-.028.024-.042.031-.056.024-.134.014-.192.037-.036.015-.075.052-.11.069-.09.04-.18.054-.278.092-.068.032-.134.07-.198.11-.044.015-.09.028-.136.037a1.1 1.1 0 0 0-.173.11.665.665 0 0 1-.13.043 1.801 1.801 0 0 0-.24.142c-.04.024-.097.025-.136.05-.247.153-.49.306-.748.45-.06.033-.11.094-.16.13-.025.016-.057.015-.08.03-.025.016-.072.073-.11.1-.04.026-.077.036-.11.061-.035.026-.078.076-.118.11-.041.034-.084.045-.124.074-.04.028-.067.071-.11.099a.802.802 0 0 0-.11.061.792.792 0 0 1-.086.093.887.887 0 0 0-.11.068.918.918 0 0 1-.087.099.675.675 0 0 0-.093.056c-.03.03-.045.075-.08.099-.035.024-.043.012-.061.024-.037.024-.056.068-.087.099a.737.737 0 0 1-.093.068.34.34 0 0 0-.061.08.596.596 0 0 1-.118.1l-.068.092a2.103 2.103 0 0 0-.413.44c-.03.038-.082.064-.11.11-.029.045-.032.07-.062.092a.409.409 0 0 0-.092.08l-.019.056-.11.1c-.009.012 0 .027-.012.042-.028.039-.06.075-.092.11-.016.02-.021.046-.038.068-.016.022-.073.062-.099.1-.013.018-.012.042-.024.06-.012.02-.063.06-.087.093l-.05.092c-.017.026-.051.043-.067.069-.017.025-.013.043-.025.061l-.03.024c-.027.039-.039.077-.062.118-.023.04-.062.07-.087.11a.637.637 0 0 0-.03.074c-.018.033-.056.06-.075.092l-.02.068c-.019.031-.06.053-.08.087l-.006.037c-.009.024-.033.042-.043.062l-.006.037c-.018.033-.054.066-.074.1-.02.032-.036.11-.068.154a3.203 3.203 0 0 0-.118.18.928.928 0 0 0-.05.123c-.026.061-.072.117-.098.179l-.012.056c-.063.139-.151.285-.21.427-.02.046-.017.083-.038.13-.02.046-.048.07-.061.11l-.007.06c-.011.033-.043.068-.056.1-.013.032-.011.071-.024.11-.013.038-.045.082-.062.123l-.019.099c-.016.045-.046.091-.061.136-.016.045-.008.092-.024.137-.042.11-.094.236-.13.351l-.019.11c-.02.069-.043.147-.061.22l-.012.11c-.02.066-.05.136-.069.204-.018.068-.012.136-.024.186l-.037.135-.019.186c-.023.09-.04.189-.061.271-.039.148-.026.33-.057.463-.03.133 0 .249-.03.364v.11c-.019.15-.023.3-.012.45L0 11.494c.01.09.013.18.007.271 0 .046.007.11.006.149-.007.138.001.276.024.413v.099c.018.081.015.148.031.22v.099c.016.066.007.115.024.185.025.093.045.196.069.29l.012.148c.016.067.03.155.05.22v.036c.01.049.009.102.023.154.015.053.043.092.056.137.02.067.012.118.031.184.01.037.033.082.043.118.02.07.011.13.03.198.014.042.05.081.062.123v.056c.016.057.048.118.069.173.02.055.013.093.03.142.03.08.072.171.11.247.021.046.02.087.038.136.017.05.054.11.073.154l.025.11a.96.96 0 0 1 .056.087l.006.068a.81.81 0 0 0 .056.087l.019.074c.014.034.046.068.062.099l.012.056c.032.075.065.145.099.22.033.063.07.125.11.185l.018.068c.017.03.035.06.056.087l.026.068c.017.027.045.058.061.087.017.028.031.09.055.13.038.06.093.125.13.185l.019.075c.02.034.058.065.08.099.042.064.063.135.11.198.025.037.076.07.099.11.023.04.007.058.024.08.016.022.06.055.08.087.049.074.085.146.137.22l.08.073c.017.026.02.06.037.087.018.027.072.068.1.11.087.121.186.23.264.359.027.043.09.065.118.11.012.017.012.037.024.056a.86.86 0 0 0 .068.068c.014.016.044.024.056.043l.019.056.062.05c.033.034.064.07.092.11l.123.117c.045.06.11.097.154.154a.416.416 0 0 0 .056.074c.321.276.615.57.963.82.038.027.063.073.1.1.031.018.064.035.098.05a.698.698 0 0 1 .092.073c.01.011.008.023.02.03.039.03.086.04.129.069.035.029.068.06.099.092.046.027.093.052.142.074.036.024.069.068.11.092.061.043.142.056.203.1.035.023.06.069.099.092.04.023.095.027.136.056.042.028.066.07.11.092.044.022.095.024.137.05.06.046.124.087.191.123a.763.763 0 0 1 .136.05c.055.04.113.077.173.11l.062.011.141.062c.037.016.067.057.11.073l.056.007a.8.8 0 0 1 .11.056l.05.007c.044.017.086.061.13.08l.117.03c.028.013.065.038.093.05l.068.007c.032.01.062.043.092.056.043.013.086.023.13.03l.21.081h.037c.037.011.07.043.11.056.06.022.11.018.173.037.042.014.084.04.123.057.038.016.091.006.142.024.05.017.086.037.123.05l.186.023c.042.013.088.037.13.05.041.013.11.008.141.019.032.01.066.028.093.037.103.03.22.027.314.05h.062c.061.015.11.046.172.061.04.004.079.004.118 0 .11.02.236.03.346.056.11.025.269 0 .39.03l.592.02a.99.99 0 0 0 .34.006h.142c.115.005.231 0 .346-.012h.13l.37-.012.359-.024c.091-.022.2-.028.297-.05l.11-.006c.086-.021.175-.048.253-.068l.179-.013.24-.061a1.74 1.74 0 0 0 .192-.024c.03-.011.067-.039.099-.05l.229-.037c.274-.074.544-.163.809-.265.063-.03.142-.028.203-.055.033-.016.07-.047.11-.062l.055-.006c.034-.012.076-.042.11-.056l.11-.025a.417.417 0 0 0 .062-.042.99.99 0 0 1 .123-.043c.027-.012.064-.039.092-.05l.074-.012c.04-.016.067-.057.11-.074.07-.03.123-.045.198-.073a1.22 1.22 0 0 0 .184-.118c.047-.028.11-.026.154-.056.029-.016.049-.05.074-.068l.043-.012c.035-.018.074-.046.11-.062l.068-.019c.037-.021.07-.062.11-.086.04-.025.087-.037.135-.062.049-.025.11-.088.167-.123.058-.035.094-.035.137-.062.043-.026.071-.072.11-.099.038-.026.071-.028.11-.05.038-.02.059-.062.092-.086.05-.036.11-.057.16-.092.035-.025.058-.07.093-.093.035-.023.09-.04.13-.068l.073-.08.352-.266.074-.08c.082-.062.152-.13.234-.192.017-.012.022-.036.037-.05.042-.038.085-.075.13-.11.02-.015.03-.045.05-.06a.78.78 0 0 0 .154-.137.467.467 0 0 1 .08-.092 1.21 1.21 0 0 0 .234-.248c.011-.014.03-.019.043-.03.012-.013.01-.027.019-.038.008-.011.041-.026.056-.043.014-.016.012-.037.024-.056.032-.045.098-.07.13-.118.012-.017.012-.038.024-.056.026-.035.079-.055.11-.092.03-.037.02-.052.037-.074.017-.022.075-.053.1-.087.023-.034.011-.042.023-.061.024-.036.067-.065.093-.1.025-.033.05-.082.08-.122l.037-.031c.019-.026.024-.06.043-.087l.074-.068c.016-.023.02-.052.037-.074.017-.022.058-.056.08-.087l.043-.092c.017-.023.052-.038.069-.062l.012-.056c.01-.02.037-.041.05-.061l.011-.038c.244-.345.455-.714.63-1.1.03-.067.087-.127.118-.197.03-.07.03-.115.056-.173.016-.037.055-.072.074-.11.018-.037 0-.041.012-.068.012-.026.05-.07.061-.11l.007-.068c.013-.034.048-.067.061-.099v-.05c.016-.043.052-.087.069-.13.024-.062.025-.12.05-.184l.055-.092.019-.087a.78.78 0 0 0 .05-.099c.014-.043 0-.078.011-.118.036-.11.095-.244.137-.351l.03-.22c.05-.137.096-.307.137-.44.019-.064 0-.132.019-.204.018-.071.037-.165.056-.24v-.066c.144-.747.2-1.508.167-2.268V.63c0-.148-.013-.336 0-.463a.237.237 0 0 0-.019-.13c-.05-.041-.15-.03-.219-.03zm-7.139 9.055.007-.074c.013-.061.032-.121.056-.18.016-.025.046-.048.061-.073l.026-.08.08-.074c.013-.019.012-.043.025-.062.031-.045.1-.061.13-.11.012-.017.01-.04.024-.056.038-.038.11-.061.136-.11l.02-.049c.033-.042.094-.058.129-.099l.019-.05c.025-.036.11-.077.136-.11.026-.031.057-.094.099-.123.02-.013.045-.014.061-.03.037-.037.051-.095.093-.123.023-.016.047-.02.068-.038.02-.017.045-.085.08-.11.035-.025.056-.025.074-.05.018-.023.014-.037.03-.049.017-.012.034-.01.044-.024.01-.013.016-.037.03-.05.015-.012.052-.025.069-.049.016-.024.008-.03.018-.043.032-.044.1-.06.13-.11a.355.355 0 0 1 .08-.11c.026-.018.056-.024.074-.05a.826.826 0 0 1 .092-.117c.019-.017.048-.022.062-.043.014-.02.006-.034.019-.043.012-.008.028 0 .042-.012.015-.012.02-.034.031-.05a.25.25 0 0 1 .056-.042c.038-.028.06-.08.1-.11.038-.03.077-.02.117-.037.04-.018.066-.059.11-.074s.079 0 .11-.024l.191.006c.04.017.077.04.11.069l.13.042a.636.636 0 0 1 .16.168c.008.01.03.02.038.03.022.033 0 .06.024.1.07.13.087.283.05.426a.79.79 0 0 1-.062.11l-.019.087c-.02.03-.065.05-.087.08a.575.575 0 0 1-.05.08c-.032.032-.083.043-.11.08-.026.038-.023.062-.049.08-.025.02-.084.045-.11.081-.025.036-.036.07-.068.092a.512.512 0 0 0-.068.043.486.486 0 0 0-.05.068.421.421 0 0 1-.092.074l-.092.118a.524.524 0 0 0-.11.092.42.42 0 0 1-.074.092c-.024.018-.064.027-.08.05-.016.023-.018.054-.037.074-.02.02-.066.041-.093.068-.026.026-.048.08-.08.11a.511.511 0 0 0-.11.087.29.29 0 0 1-.05.068.556.556 0 0 0-.117.099.667.667 0 0 1-.087.11.257.257 0 0 0-.11.22c.012.068.066.085.099.13a2.8 2.8 0 0 0 .234.259l.08.068c.039.052.082.1.13.142.01.009.029.014.038.024.008.01.018.04.037.056a.88.88 0 0 1 .099.074c.012.013.014.035.024.05.01.014.052.029.074.049.033.033.062.07.087.11.033.031.07.058.11.08.03.022.026.058.05.087.022.028.102.06.135.11.02.026.025.061.05.08.025.019.071.037.092.068.021.031.019.05.038.068.04.039.104.06.136.11.02.037.044.07.074.1.03.018.06.038.087.06.007.017 0 .037.006.05.007.014.038.032.05.05.04.076.07.157.092.24a.77.77 0 0 1-.24.593c-.054.039-.069.075-.143.11a1.77 1.77 0 0 1-.203.043 1.35 1.35 0 0 1-.33-.03.864.864 0 0 1-.148-.081l-.062-.068a.858.858 0 0 1-.087-.056c-.017-.017-.016-.049-.03-.068a.55.55 0 0 0-.11-.08c-.025-.02-.031-.049-.05-.074-.019-.026-.065-.048-.092-.074-.028-.026-.031-.046-.05-.068a1.162 1.162 0 0 0-.136-.11c-.036-.03-.055-.083-.093-.11a.446.446 0 0 1-.08-.056l-.014-.06c-.015-.023-.048-.03-.068-.049-.044-.04-.076-.11-.123-.142a.826.826 0 0 1-.093-.068c-.024-.024-.034-.065-.061-.087a.594.594 0 0 1-.11-.087l-.031-.056a.949.949 0 0 1-.136-.11c-.015-.02-.015-.04-.031-.056-.017-.016-.084-.05-.11-.087-.027-.036-.024-.061-.05-.08-.025-.019-.095-.05-.117-.087-.01-.015 0-.027-.012-.043-.027-.043-.096-.061-.13-.099-.014-.015-.012-.044-.024-.061-.012-.018-.068-.054-.093-.087-.024-.033-.044-.092-.073-.136-.01-.015-.033-.02-.043-.031L15.26 9.7a1.14 1.14 0 0 1-.047-.64zm-3.724.265V9.14c.02-.086.047-.172.068-.253v-.056c.012-.035.055-.056.074-.087l.024-.087c.008-.01.029-.014.037-.024.029-.038.047-.08.074-.118l.068-.056c.062-.068.128-.132.198-.191a1.43 1.43 0 0 0 .1-.118c.021-.022.055-.03.073-.056a.491.491 0 0 1 .037-.062c.044-.033.085-.07.123-.11a.588.588 0 0 1 .05-.073c.027-.028.07-.043.099-.068.03-.026.014-.034.025-.05a.375.375 0 0 1 .11-.08c.052-.036.078-.11.13-.148a2.71 2.71 0 0 0 .271-.279c.034-.034.086-.056.118-.092.016-.019.022-.042.037-.062a.29.29 0 0 1 .069-.05.33.33 0 0 0 .061-.08c.027-.036.073-.054.11-.086.037-.032.044-.076.074-.1a.518.518 0 0 0 .061-.037c.033-.033.054-.078.087-.11.033-.031.11-.045.16-.073.036-.025.073-.048.11-.068.036-.015.08-.006.11-.025a.853.853 0 0 1 .248.013.521.521 0 0 1 .099.061c.043.029.089.036.136.062.063.054.12.116.167.184l.013.057c.023.03.044.064.061.098v.069a.119.119 0 0 1 .007.043.667.667 0 0 1-.024.314c-.054.089-.11.176-.173.26-.032.043-.094.063-.13.11-.036.046-.043.077-.08.11-.016.01-.035.011-.05.024-.04.034-.057.092-.099.123-.041.03-.077.04-.099.073a.318.318 0 0 1-.073.093.372.372 0 0 0-.087.061.61.61 0 0 1-.062.087c-.028.028-.074.043-.099.074a.405.405 0 0 1-.068.092.564.564 0 0 0-.073.05c-.02.02-.027.052-.043.073a.345.345 0 0 1-.087.062l-.137.154a.323.323 0 0 0-.08.061.338.338 0 0 1-.068.087.312.312 0 0 0-.068.05l-.08.11c-.03.04-.048.028-.062.05-.014.02-.025.055-.062.08a.383.383 0 0 0-.006.136c.013.043.063.07.087.11l.018.05c.032.047.103.068.137.117.016.03.037.057.061.08a.622.622 0 0 1 .1.074c.11.122.22.23.33.352l.148.13a.44.44 0 0 0 .073.092c.027.02.067.034.087.061.02.028.025.056.05.074a.604.604 0 0 1 .061.037c.029.028.04.07.068.1a.887.887 0 0 0 .11.073c.029.022.033.07.062.092a.555.555 0 0 1 .123.093l.019.05c.03.043.103.059.13.11l.012.055c.022.04.068.073.092.11.026.07.04.145.043.22a.684.684 0 0 1-.031.33c-.015.023-.046.044-.062.068l-.024.074c-.02.033-.065.047-.092.073l-.056.069a.848.848 0 0 1-.66.056.634.634 0 0 1-.118-.062l-.061-.074c-.02-.014-.043-.016-.062-.03-.036-.027-.045-.085-.08-.11-.035-.026-.056-.029-.08-.05a.41.41 0 0 1-.062-.087c-.013-.018-.04-.022-.056-.037a.982.982 0 0 1-.087-.11.256.256 0 0 0-.068-.05.515.515 0 0 1-.099-.117c-.015-.02-.042-.029-.061-.043l-.09-.102c-.01-.007-.024 0-.031-.012a1.368 1.368 0 0 1-.149-.173c-.037-.05-.11-.081-.148-.13-.013-.015-.017-.035-.031-.05a1.235 1.235 0 0 0-.13-.11c-.025-.019-.034-.06-.061-.08-.028-.018-.04-.015-.056-.03-.035-.034-.055-.09-.093-.118a.565.565 0 0 1-.099-.073c-.014-.018-.016-.043-.03-.062-.015-.019-.08-.055-.11-.087-.03-.032-.024-.06-.043-.08-.02-.021-.052-.027-.074-.043a.44.44 0 0 1-.08-.11c-.028-.045-.088-.07-.118-.118a1.147 1.147 0 0 1-.188-.638zm-7.653 1.569a1.164 1.164 0 0 1-.087-.118c-.013-.03-.01-.06-.024-.087-.014-.027-.036-.042-.05-.062a.686.686 0 0 1-.042-.123c-.014-.035-.042-.079-.056-.117-.014-.039 0-.08-.019-.13a.82.82 0 0 0-.056-.099l-.007-.068c-.02-.07-.025-.172-.042-.248v-.056a2.199 2.199 0 0 1 .086-1.062c.017-.074.037-.148.062-.22.013-.027.039-.062.05-.092.01-.03 0-.047.018-.068a.68.68 0 0 0 .062-.087l.012-.068c.012-.021.043-.04.056-.062.029-.05.046-.091.074-.142.01-.02.037-.036.05-.055.011-.018 0-.032.011-.05.023-.042.085-.064.11-.11l.012-.042a.839.839 0 0 1 .11-.11c.014-.015.018-.037.031-.056a.498.498 0 0 1 .11-.092c.023-.018.027-.058.05-.074.058-.045.127-.076.185-.123.015-.012.021-.038.038-.05.041-.03.09-.038.136-.068.045-.03.118-.092.18-.123.035-.019.072-.015.11-.03.037-.016.082-.073.129-.093.066-.028.124-.027.198-.05a1.1 1.1 0 0 0 .117-.068.583.583 0 0 1 .11-.018c.065-.02.144-.039.21-.057.066-.017.248.007.303-.024.1.024.31-.028.426 0 .062.016.138 0 .204.012.043.011.099 0 .148.012.066.017.144.032.21.05l.093.012c.041.014.082.05.123.068.04.018.078.009.123.024.091.04.18.085.265.137.043.022.089.024.13.05.04.024.074.074.11.092.035.017.063.018.092.037.029.019.044.046.068.062.211.136.394.312.538.518.026.039.079.066.11.11.03.044.014.059.03.08l.074.062c.013.021.006.05.019.074.013.023.054.06.068.092l.007.056c.016.039.062.065.08.11l.007.056c.013.036.05.065.061.11.011.045 0 .086.019.13.007.021.03.03.037.05.02.06.037.122.05.185.02.074.033.168.043.22l.006.204c.011.04.013.082.007.123a.708.708 0 0 0 .006.13c0 .08-.006.16-.018.24l-.012.198c-.03.127-.102.296-.142.427-.01.029 0 .035 0 .05a1.047 1.047 0 0 1-.062.11l-.012.06c-.015.032-.053.058-.068.088l-.012.073c-.012.03-.045.055-.062.08-.016.026-.005.045-.019.069-.013.024-.05.042-.068.061-.017.02-.037.077-.061.11s-.064.055-.087.087a.61.61 0 0 1-.11.142l-.024.007c-.022.02-.028.06-.05.08-.022.02-.03.01-.043.019-.065.047-.11.125-.179.172-.051.03-.1.063-.148.1a.592.592 0 0 1-.062.06c-.024.016-.053.01-.08.025-.028.014-.025.029-.038.037a1.123 1.123 0 0 1-.13.087c-.05.027-.11.02-.153.05-.017.01-.025.04-.043.05-.018.01-.067.01-.11.023-.043.015-.058.039-.092.05l-.11.019c-.052.017-.087.057-.137.073-.023.008-.027 0-.043 0-.058.015-.133.029-.19.043-.09.022-.167 0-.26.019-.083.007-.165.01-.248.006-.177.009-.355 0-.53-.024a1.63 1.63 0 0 1-.23-.037c-.04-.014-.072-.049-.11-.062-.065-.022-.128-.02-.197-.043-.034-.01-.072-.038-.11-.05l-.062-.006c-.029-.013-.052-.05-.08-.068l-.149-.05c-.064-.038-.12-.09-.185-.13-.03-.017-.11-.042-.137-.06-.026-.02-.038-.066-.068-.087a.822.822 0 0 1-.08-.05c-.035-.033-.06-.084-.1-.11-.016-.012-.04-.01-.055-.024-.032-.03-.05-.074-.08-.11a.89.89 0 0 1-.11-.092c-.015-.021-.017-.047-.031-.069-.015-.022-.068-.045-.093-.073l-.03-.087c-.02-.03-.055-.056-.074-.087l-.007-.06zm14.866 4.453a.567.567 0 0 1-.05.11c-.013.031-.007.071-.024.099-.016.027-.042.04-.056.061-.014.022-.01.075-.03.099-.02.024-.059.045-.074.074-.016.028-.006.048-.019.068-.013.02-.064.063-.087.099-.023.036-.035.08-.061.117l-.043.038c-.018.025-.02.056-.038.08-.017.024-.06.054-.08.087l-.012.043c-.026.04-.081.071-.11.11L18 16.49l-.055.05c-.066.08-.128.165-.185.252l-.13.118-.019.05c-.03.041-.094.061-.123.11l-.019.055c-.017.027-.061.037-.087.057-.025.02-.044.065-.068.098a.604.604 0 0 1-.117.087c-.026.02-.028.064-.05.087a1.067 1.067 0 0 1-.118.074c-.02.015-.022.04-.037.061-.027.04-.09.058-.13.087-.04.03-.043.07-.074.093-.032.022-.065.033-.1.056-.034.023-.077.09-.123.123-.045.033-.071.037-.11.061-.015.011-.022.038-.037.05-.053.043-.119.064-.173.11-.023.016-.035.05-.056.068l-.037.012c-.024.016-.045.044-.074.056-.028.012-.033 0-.05.012-.053.037-.096.097-.153.13-.04.023-.087.022-.123.05-.037.027-.076.072-.118.099-.042.026-.09.024-.13.049l-.037.043-.056.012c-.018.01-.032.038-.05.05l-.123.049a.953.953 0 0 1-.283.142c-.045.016-.074.065-.118.08H14.8a.868.868 0 0 0-.087.056c-.042.021-.093.014-.137.03l-.08.057c-.104.046-.22.064-.33.11-.034.014-.068.05-.11.061-.041.013-.089.008-.136.025-.038.016-.078.03-.118.043a1.01 1.01 0 0 0-.117.018c-.038.015-.068.05-.11.062l-.08.006c-.059.018-.13.04-.192.056l-.172.02c-.07.017-.134.048-.192.067l-.117.012c-.074.02-.159.029-.241.05l-.118.007c-.13.03-.264 0-.396.03h-.087c-.095.023-.183.017-.271.038h-.098c-.179.04-.364.043-.543.006-.039-.009-.075 0-.1 0-.094-.02-.21-.016-.302-.037h-.08a1.068 1.068 0 0 0-.186-.019h-.117c-.156-.037-.33-.03-.476-.068l-.093-.007c-.082-.022-.157-.058-.24-.08l-.149-.012c-.048-.013-.097-.03-.148-.043l-.118-.012c-.05-.019-.096-.06-.148-.08-.053-.02-.08 0-.13-.019s-.129-.042-.192-.061h-.037c-.035-.018-.064-.059-.11-.074l-.154-.024c-.03-.011-.064-.038-.092-.05-.046-.018-.104-.027-.13-.043-.026-.015-.025-.03-.043-.037-.042-.018-.083-.017-.123-.037-.04-.021-.057-.042-.087-.056l-.073-.013c-.011-.007-.018-.03-.031-.037-.052-.027-.11-.027-.167-.056-.058-.029-.105-.085-.16-.11a1.32 1.32 0 0 1-.13-.043c-.056-.033-.11-.083-.168-.118-.036-.022-.073-.023-.11-.042-.014-.008-.024-.029-.037-.038-.013-.009-.047-.015-.068-.03l-.038-.043c-.038-.027-.094-.032-.13-.062a1.122 1.122 0 0 0-.148-.123l-.061-.019c-.017-.01-.025-.034-.043-.043-.019-.009-.031 0-.043-.012l-.031-.055c-.02-.013-.042-.006-.062-.019a1.164 1.164 0 0 1-.141-.11c-.012-.012-.017-.032-.031-.042-.04-.027-.086-.034-.123-.062-.038-.027-.034-.053-.056-.074a.96.96 0 0 0-.124-.073c-.027-.02-.035-.052-.056-.08-.02-.03-.097-.064-.136-.093l-.056-.08c-.044-.036-.097-.06-.136-.1a1.138 1.138 0 0 0-.093-.11c-.02-.016-.058-.02-.073-.042-.016-.022-.014-.05-.031-.068a.957.957 0 0 0-.093-.068c-.02-.017-.02-.045-.037-.068l-.074-.062c-.025-.033-.042-.064-.068-.099l-.068-.056c-.02-.03-.034-.057-.056-.087l-.118-.11c-.015-.022-.018-.055-.037-.074-.019-.018-.09-.069-.11-.092l-.024-.068c-.02-.03-.06-.052-.08-.08-.021-.029-.042-.08-.069-.118-.013-.02-.045-.042-.056-.062l-.006-.042-.087-.08-.03-.093c-.02-.03-.06-.055-.081-.087-.021-.032-.016-.047-.031-.068a.574.574 0 0 1-.074-.11l-.012-.056c-.02-.035-.071-.063-.087-.1a.886.886 0 0 1 .007-.586c.007-.013.027-.021.037-.031.01-.01.017-.054.031-.074a.98.98 0 0 1 .248-.198c.056-.024.169-.018.22-.05a.705.705 0 0 1 .44.11c.015.013.021.038.037.05.035.027.095.054.117.093l.007.043c.01.027.04.044.056.068.015.024.027.071.05.11.021.038.053.061.073.092.02.03.011.047.025.068.015.021.07.07.093.11.01.015 0 .033.012.05.02.035.065.058.087.092l.018.068c.025.038.08.06.11.1l.02.055.073.068c.015.021.016.044.03.069.031.05.103.08.137.13.013.018.012.043.024.06.026.037.081.058.11.093.013.016.013.039.024.056.027.03.058.054.093.074.027.02.035.058.056.087a.306.306 0 0 0 .073.056c.05.036.074.11.123.142.022.014.048.015.069.03l.08.11c.048.037.102.061.148.1.021.017.028.051.05.068a.959.959 0 0 1 .123.073c.02.02.032.05.056.068.048.036.11.058.154.093l.068.074c.028.02.057.025.087.042.03.018.035.038.056.05l.05.012c.016.012.026.037.042.05.037.026.078.036.118.061.04.025.055.036.08.056.007 0 .007.02.012.024a.77.77 0 0 0 .137.062c.065.036.13.096.198.13.038.02.077.016.11.037.063.046.129.087.198.123.045.02.093.016.136.038.058.03.122.076.186.11l.198.056c.061.026.134.069.19.099.058.03.14.015.21.037.11.034.23.102.34.136l.303.038c.056.016.13.03.186.05a.11.11 0 0 1 .05 0c.082.022.16.052.252.073l.383.018c.068.017.156-.006.234.013.036.01.073.016.11.018.129 0 .25-.006.377-.006.074.005.147.002.22-.007.048-.01.11 0 .155-.007h.1c.078-.018.16 0 .228-.018h.092l.21-.019c.158-.04.33-.08.494-.123l.22-.024c.064-.022.126-.05.186-.08.044-.02.095 0 .141-.026.018-.008.047-.03.069-.037l.16-.024c.042-.016.084-.053.123-.069.04-.015.066-.014.11-.03.019-.008.036-.03.056-.038.04-.015.073 0 .118-.018.073-.034.143-.073.21-.118.054-.029.12-.028.173-.056.052-.029.116-.085.172-.118l.08-.018a1.54 1.54 0 0 0 .192-.124c.04-.024.091-.028.13-.056.007 0 .006-.018.012-.024.005-.005.042-.013.061-.024.019-.011.052-.055.08-.074l.087-.03c.03-.031.06-.06.093-.087.04-.027.084-.04.123-.069.038-.028.079-.08.123-.11.044-.028.07-.031.11-.056.04-.024.028-.053.05-.073.041-.028.084-.052.13-.074a.841.841 0 0 0 .08-.092c.035-.035.094-.045.13-.08.034-.036.023-.056.042-.074.04-.032.08-.06.123-.087l.05-.08c.04-.031.097-.05.123-.093.01-.017.006-.034.018-.05.013-.015.027-.01.038-.018l.05-.061c.02-.016.049-.022.06-.043.013-.021.026-.064.057-.087a.314.314 0 0 0 .068-.05c.096-.127.195-.244.284-.377.022-.033.065-.055.087-.087.022-.032 0-.05.018-.073.02-.023.075-.059.1-.093.024-.034.016-.045.03-.068.014-.023.057-.061.074-.092.016-.031.005-.049.018-.068.014-.02.062-.048.08-.08l.013-.074.037-.031c.009-.012 0-.023.012-.038a.953.953 0 0 1 .1-.11c.017-.02.021-.049.042-.068.021-.018.07-.036.1-.061.009-.009.018-.03.03-.038a.752.752 0 0 1 .494-.037c.058.01.114.03.167.056.031.027.06.056.087.087.02.019.051.027.068.05a.741.741 0 0 1 .135.509h-.001z" fill="#F15A24"/>
        <path d="M4.807 9.686c.01.04.03.102.038.13a.696.696 0 0 0 .037.172c.01.02.04.037.05.057.01.02.011.075.03.11 0 .01.024.02.03.03.023.037.033.072.056.11.023.039.082.075.11.118.013.019.01.044.024.061.013.018.043.024.062.038l.05.056.036.012c.02.015.022.053.043.068.021.016.077.028.11.05.06.05.123.093.192.13l.117.018c.016.007.034.03.05.037.037.016.11 0 .148.02.039.018.072.038.11.049.075.015.152.02.229.012h.21c.04-.011.077-.038.11-.05.041-.006.082-.014.123-.024.027-.012.067-.038.099-.05.05-.008.1-.02.148-.037a.927.927 0 0 0 .11-.087c.033-.023.07-.027.11-.05.04-.021.076-.08.118-.11a.513.513 0 0 0 .11-.08c.015-.021.02-.046.037-.068l.093-.086.03-.087c.02-.028.054-.053.069-.087l.012-.056c.013-.021.038-.037.05-.062.01-.025 0-.065.018-.11.023-.069.047-.16.061-.228v-.093a1.078 1.078 0 0 0-.068-.568c.017-.078-.103-.256-.142-.315a.968.968 0 0 0-.26-.297l-.055-.073c-.058-.043-.126-.063-.186-.11l-.037-.056a1.273 1.273 0 0 0-.22-.062c-.083-.032-.178-.085-.266-.11a1.451 1.451 0 0 0-.383-.012c-.03.019-.146.007-.185.019-.038.012-.082.04-.123.055-.04.014-.085.012-.13.03-.014.006-.028.026-.042.031l-.13.025a1.369 1.369 0 0 0-.154.123c-.029.02-.07.023-.1.043a1.332 1.332 0 0 0-.141.148l-.05.037-.018.056-.11.1c-.026.038-.03.082-.056.123-.007.01-.025.024-.03.037l-.008.05c-.015.038-.051.074-.068.11l-.012.06a1.043 1.043 0 0 0-.068.49c.008.058.01.108.012.153z" fill="#F15A24"/>
        <g fill="#F15A24">
            <path d="M8.913 26.853a.495.495 0 0 0-.13-.08c-.054-.018-.11.013-.167 0a.55.55 0 0 0-.13-.012c-.045.028-.163.006-.234.006l-.587.007-1.563-.007h-.488a1.53 1.53 0 0 0-.235.007.33.33 0 0 1-.11-.007l-.191.007a.518.518 0 0 0-.186 0 .3.3 0 0 0-.123.086.209.209 0 0 0-.069.155.22.22 0 0 0 .074.117.33.33 0 0 0 .118.1c.05.018.117-.007.167 0l.22.006a.41.41 0 0 1 .172-.007c.055.012.149-.019.23 0 .114.02.23.02.345 0a.598.598 0 0 1 .154.007l.315-.007c.24 0 .485.021.717 0 .11.008.22.01.33.007h.148c.14 0 .311.01.408 0 .172-.02.386.017.512-.007.085-.016.125.023.192-.012.02-.01.032-.036.05-.05.017-.013.065-.04.08-.073a.46.46 0 0 0 .006-.185l-.025-.058zM4.262 25.717c-.118-.027-.337.03-.402-.024-.015-.008-.017-.015-.03-.024 0-.15-.012-.275-.012-.44.005-.095.005-.19 0-.284 0-.043 0-.087-.007-.13-.007-.042-.065-.067-.092-.11-.013-.016-.017-.041-.031-.056-.044-.04-.152-.031-.234-.03l-.056.018a.827.827 0 0 0-.149.168l-.007.086a2.568 2.568 0 0 0-.012.52v.923c0 .135-.008.318 0 .413.021.22-.028.363.069.507a.46.46 0 0 0 .252.1.631.631 0 0 0 .21-.11c.06-.182.08-.373.057-.563a.969.969 0 0 1 .006-.179v-.155c.009-.032.028-.061.038-.092a.411.411 0 0 1 .185-.024c.05.01.103.013.154.006.067-.014.133-.033.198-.056a.163.163 0 0 0 .038-.05v-.055a.621.621 0 0 0 .042-.087c.01-.035-.017-.06-.024-.08-.044-.125-.064-.162-.193-.192zM3.67 29.194a.575.575 0 0 0-.11 0c-.093.024-.158.092-.254.123-.095.03-.204.024-.309.056-.034.01-.079.032-.11.043-.045.008-.09.015-.136.019-.185.04-.375.046-.562.018h-.11l-.203-.024c-.039-.012-.08-.037-.118-.05-.06-.018-.116-.011-.18-.03a1.25 1.25 0 0 1-.129-.068l-.037-.007a1.296 1.296 0 0 1-.123-.136.244.244 0 0 1 .024-.137c.054-.079.18-.08.315-.08h1.07c.072.005.146.002.219-.006l.24.006a1.96 1.96 0 0 0 .26-.05c.181-.122.318-.3.39-.506a1.22 1.22 0 0 0-.025-.395c-.01-.026-.038-.055-.05-.08-.01-.026 0-.048-.018-.068a.921.921 0 0 0-.11-.11c-.026-.028-.046-.069-.08-.087-.034-.019-.07-.012-.099-.031a.29.29 0 0 0-.08-.05c-.052-.013-.097-.014-.142-.024h-.13a.343.343 0 0 0-.142-.012c-.065.008-.132.01-.198.007H2.34c-.418 0-.762-.008-1.161-.007-.039.023-.117-.006-.168.007a.906.906 0 0 0-.16.061c-.022.015-.028.045-.043.069-.134.193.03.362.22.408h.092c.136.011.273.011.408 0h1.081c.127 0 .267 0 .383.006.06 0 .145-.014.186.012.067.007.086.066.123.11a.252.252 0 0 1-.05.167c-.028.072-.166.068-.266.068h-.556c-.167.01-.334.01-.5 0l-.11.007a1.857 1.857 0 0 0-.494.007c-.052.012-.087 0-.137.012a.66.66 0 0 0-.382.33c0 .024 0 .05-.007.073 0 .008-.02.028-.025.038a.598.598 0 0 0 .019.364c.016.038.008.077.024.11.015.033.034.037.043.056l.018.061.11.11c.068.07.147.127.236.167a.88.88 0 0 0 .117.074c.044.018.09.008.137.024.047.017.089.052.136.068.047.017.065 0 .11.012.228.055.463.078.698.069.124.006.248 0 .37-.02l.11-.006c.037-.01.082-.036.118-.043.067-.003.133-.014.198-.03.029-.012.068-.039.1-.05l.148-.019c.093-.036.184-.08.271-.13a.22.22 0 0 0 .185-.2.176.176 0 0 0-.007-.117c-.043-.121-.087-.212-.245-.19zM7.356 25.242c.098-.018.198-.022.297-.012l.167-.007a.59.59 0 0 0 .191 0h.191a.305.305 0 0 0 .23-.24c.007-.038-.023-.074-.032-.1-.008-.025 0-.059-.018-.08a.542.542 0 0 0-.42-.099.792.792 0 0 1-.167 0h-1.65c-.012.008-.03 0-.05.006-.039.01-.088.027-.129.037-.04.01-.071 0-.11.012-.078.025-.13.1-.191.142-.022.016-.052.016-.074.031s-.027.065-.05.099l-.042.037a.936.936 0 0 0-.08.137l-.013.073a.685.685 0 0 0 .014.612c.006.01.025.024.03.037l.012.062c.018.035.06.056.08.087.022.03.03.079.069.11.038.03.09.048.136.08.046.032.055.064.093.08l.061.007c.033.008.08.027.11.037.053.015.12.007.173.019l.22-.007c.166.019.334.019.5 0 .029-.003.058 0 .087.007h.117a.695.695 0 0 0 .192 0h.11c.117.009.235.006.352-.007a.533.533 0 0 1 .179.007c.093.01.186.006.278-.012l.062-.007a.27.27 0 0 0 .117-.11l.007-.043a.183.183 0 0 0 .03-.117.322.322 0 0 0-.148-.22.406.406 0 0 0-.21-.02.154.154 0 0 1-.061.008c-.193-.044-.544.041-.692-.043a1.725 1.725 0 0 1-.012-.42c-.003-.08-.031-.16.044-.183zm-.574.476v.118c-.019.03-.07.034-.11.043-.13.009-.26.011-.39.006h-.141a.296.296 0 0 1-.149-.073.622.622 0 0 1-.11-.167.36.36 0 0 1 .235-.408 1.22 1.22 0 0 1 .283-.007.3.3 0 0 0 .11-.007.54.54 0 0 1 .272.05c.006.035-.009.07 0 .11.014.112.014.225.001.337l-.001-.002zM8.233 29.195a.577.577 0 0 0-.092.012c-.038.015-.077.055-.11.068l-.062.007c-.032.012-.067.038-.099.05-.062.02-.122.011-.19.03-.07.019-.137.043-.199.062-.061.018-.127.014-.198.03h-.11a1.176 1.176 0 0 1-.382.007c-.11-.02-.213 0-.31-.024-.04-.011-.08-.038-.117-.05-.068-.02-.126-.015-.198-.037a.44.44 0 0 1-.22-.148c-.016-.024-.038-.03-.05-.062-.037-.057.077-.15.11-.16.035-.01.085 0 .13-.013.131-.016.264-.019.395-.006.147.012.294.01.44-.007l.494.007c.178.014.357.002.53-.038.045-.018.088-.038.13-.061.038-.026.058-.078.093-.11a.353.353 0 0 0 .099-.087c.01-.021.006-.043.018-.062.013-.018.044-.04.057-.068.012-.028 0-.06.006-.092a.89.89 0 0 0 .038-.11c0-.129-.023-.257-.069-.377-.018-.031-.058-.06-.073-.093-.016-.031 0-.034-.012-.05-.012-.014-.049-.028-.069-.042-.061-.046-.11-.125-.19-.154-.043-.016-.087 0-.137-.012a1.842 1.842 0 0 0-.44-.03.33.33 0 0 1-.123.006h-1.14c-.13.01-.26.01-.39 0h-.117c-.173 0-.236.043-.284.167-.01.027-.045.065-.03.11a.33.33 0 0 0 .16.22c.056.022.123 0 .191.012.11.01.22.011.33.006h1.47a.4.4 0 0 1 .136 0c.059.014.087-.013.142.007.037.012.056.05.074.08.035.043.046.101.03.154-.017.04-.067.059-.092.093-.423.03-.901.012-1.345.012-.42 0-.77-.027-.952.22a.517.517 0 0 0-.086.11l-.007.068c-.008.025-.03.054-.037.08a1.21 1.21 0 0 0-.013.22l.038.099.006.08a.556.556 0 0 0 .057.08l.018.062.118.11a.32.32 0 0 0 .087.087c.02.012.043.006.061.019.019.012.068.061.11.08.083.032.167.06.253.08l.142.068h.062c.069.02.16.044.234.062h.092c.146.015.293.018.44.006.276.01.552-.036.81-.136l.148-.024c.066-.022.145-.045.21-.074.022-.01.04-.034.061-.043.05-.022.126-.033.154-.073l.019-.056c.023-.048.076-.102.05-.18a.246.246 0 0 0-.3-.192zM1.069 27.156c.07.026.145.035.22.025.084-.021.127-.024.22-.043a.793.793 0 0 0 .123-.019c.128-.05.25-.115.364-.191a1.19 1.19 0 0 0 .11-.11l.068-.056c.048-.07.082-.138.13-.21a.88.88 0 0 0 .073-.093l.024-.148a1.049 1.049 0 0 0-.006-.606c-.015-.043 0-.097-.019-.136a1.189 1.189 0 0 0-.13-.204c-.015-.022-.01-.05-.024-.073-.013-.025-.06-.043-.08-.069a.586.586 0 0 0-.11-.13l-.074-.024c-.055-.036-.11-.09-.167-.123a.567.567 0 0 0-.118-.03 1.437 1.437 0 0 0-.493-.087c-.045.03-.101 0-.167.018l-.186.056c-.06.018-.076.01-.118.026-.042.016-.077.067-.117.092-.066.03-.128.068-.186.11-.019.019-.021.045-.038.068l-.123.11c-.023.039-.032.074-.056.11a.92.92 0 0 0-.092.136c-.017.042-.008.086-.024.13a.862.862 0 0 0-.043.087v.346a.917.917 0 0 0 .061.303.122.122 0 0 0 0 .055c.016.042.068.067.087.11l.007.043c.047.063.098.123.154.179a.345.345 0 0 0 .043.061c.016.014.037.013.056.025.018.012.04.055.068.073.058.041.124.062.186.1a.694.694 0 0 0 .179.08c.067.004.14-.007.198.01zm-.402-.852a1.131 1.131 0 0 1-.037-.123.41.41 0 0 1 0-.358c.009-.029 0-.053.012-.074.012-.02.05-.048.068-.074l.024-.073c.025-.034.061-.039.1-.062.058-.046.12-.087.185-.123l.173-.03a.6.6 0 0 1 .358.08l.043.049c.042.03.11.056.137.099l.024.068c.02.03.06.058.073.092a.66.66 0 0 1-.365.81c-.043.02-.079.005-.13.018a.51.51 0 0 1-.11.025.701.701 0 0 1-.555-.324zM20.666 24.773a.339.339 0 0 0-.272-.08c-.015.008-.04 0-.062.006a.37.37 0 0 0-.167.118 1.31 1.31 0 0 0-.043.283v.11a.53.53 0 0 1-.037.08c-.03.07-.027.153-.05.22-.008.025-.032.055-.042.08-.01.026 0 .066-.019.093-.019.028-.056.047-.074.075l-.024.08-.037.03a1.67 1.67 0 0 1-.352.371c-.039.029-.066.076-.11.11s-.1.058-.154.093c-.023.015-.044.046-.068.061l-.1.038c-.031.02-.06.055-.092.073-.03.019-.103.039-.148.068-.045.03-.074.085-.118.118v.154c.129.122.19.1.364.05.049-.015.08-.008.123-.025.358-.133.686-.337.964-.599a.915.915 0 0 0 .099-.123l.11-.099c.018-.035 0-.058.037-.074.02-.014.04-.007.074-.006l.037.03.007.05c.017.03.064.047.086.074.022.026.028.063.05.087.022.023.1.074.13.11.015.018.024.047.043.061.146.11.3.22.457.315.066.04.158.051.229.086.065.038.133.071.203.1l.118.018a.335.335 0 0 0 .22.03.55.55 0 0 0 .117-.086.454.454 0 0 0-.006-.154.362.362 0 0 0-.11-.118c-.024-.01-.048-.006-.068-.018-.11-.066-.22-.141-.33-.21l-.056-.019c-.015-.009-.025-.033-.038-.043-.033-.026-.078-.042-.11-.068l-.037-.05c-.26-.19-.46-.449-.58-.747 0-.023 0-.045-.007-.068-.017-.05-.047-.11-.062-.16-.014-.051-.015-.177-.024-.22v-.118a.55.55 0 0 0-.071-.187zM13.132 27.237c-.135-.007-.33-.007-.513-.007H10.09c-.096.01-.194.008-.29-.007a.433.433 0 0 1-.154.007c-.11 0-.22.012-.266.074a.254.254 0 0 0 .11.377c.184.027.371.03.556.012.277 0 .69.013 1.008.012.095.101.04.13.061.29.04.29-.096.898.123 1.056.036.023.076.04.118.05a.302.302 0 0 0 .364-.186c.012-.084.014-.17.006-.253v-.557c0-.127-.014-.355.05-.396.02-.012.053 0 .08-.006.11-.025.244.019.352-.007.108-.025.23.027.346 0 .09-.02.193.023.29 0 .08-.007.161-.007.241 0 .124 0 .232-.014.34-.018.036-.038.11-.078.123-.13a.158.158 0 0 0 .007-.118c0-.225-.209-.183-.423-.193z"/>
            <path d="m22.445 27.774-.056-.006a1.465 1.465 0 0 0-.414-.026h-.784a1.334 1.334 0 0 1-.365-.012c-.122-.015-.087-.364-.087-.512 0-.287-.04-.463-.346-.463a1.21 1.21 0 0 1-.118.03.29.29 0 0 0-.13.155.99.99 0 0 0-.012.167c-.043.197.034.47-.05.618a1.83 1.83 0 0 1-.431.019h-.908c-.207 0-.338-.006-.408.136a.22.22 0 0 0-.019.136c.063.238.301.198.593.198l.278.007a.433.433 0 0 1 .13 0c.078.004.157.002.235-.007l.229.007c.178-.027.378.01.561 0 .239-.015.59-.012.88-.007.11 0 .22-.01.33 0 .05.007.099.007.148 0a.625.625 0 0 1 .16.007l.33-.007a.605.605 0 0 0 .173-.006.309.309 0 0 0 .186-.21c.014-.051-.022-.082-.037-.11-.023-.042-.013-.093-.068-.114zM10.963 25.625a.415.415 0 0 1-.05.11l-.037.03-.025.069c-.023.035-.073.054-.099.087-.025.033-.016.042-.03.061a.508.508 0 0 1-.11.08c-.043.032-.074.086-.118.118s-.088.045-.13.074c-.042.028-.064.065-.099.087-.035.022-.05.006-.074.018a.934.934 0 0 0-.086.062c-.021.013-.043.006-.069.019l-.012.018c-.024.013-.048.01-.068.025a.22.22 0 0 0-.05.22c.079.185.34.11.501.056.064-.023.12-.059.18-.08a.611.611 0 0 0 .117-.037c.042-.025.088-.062.13-.087.041-.025.102-.032.148-.062s.099-.1.154-.141c.023-.017.057-.028.074-.05.016-.022.02-.05.037-.068a.477.477 0 0 1 .08-.05.339.339 0 0 0 .056-.068c.116.007.175.127.235.192a.862.862 0 0 0 .136.092c.014.01.019.03.03.043a.99.99 0 0 0 .192.11c.04.025.087.064.13.086.069.036.144.038.22.074.054.027.126.06.184.08.16.059.349.058.402-.092a.22.22 0 0 0 .006-.123c-.01-.1-.2-.176-.283-.21-.026-.01-.052-.005-.074-.019-.022-.013-.057-.055-.087-.073-.056-.038-.118-.055-.173-.093-.024-.016-.038-.05-.061-.068a.859.859 0 0 1-.204-.172l-.11-.1c-.02-.03-.024-.07-.042-.098-.019-.029-.033-.033-.043-.05-.01-.016-.007-.052-.019-.087-.022-.065-.089-.13-.074-.21.006-.03-.007-.071.007-.092.022-.06.242-.05.345-.05.269 0 .669.064.741-.141 0-.022.01-.11 0-.137-.02-.06-.07-.055-.11-.092-.015-.014-.024-.039-.042-.05a.257.257 0 0 0-.137-.006l-.314-.006-.543-.006h-.92a.982.982 0 0 1-.279 0c-.056.034-.226-.013-.302.006a.28.28 0 0 0-.18.142c-.031.047.014.2.031.22.018.02.037.019.056.03a.66.66 0 0 0 .34.038c.208-.01.417 0 .624.031a.396.396 0 0 1-.05.284.472.472 0 0 0-.052.056zM14.872 26.106c.038.064.053.131.093.192.026.04.074.062.11.099.035.036.02.047.037.068a.754.754 0 0 0 .136.099c.031.022.053.06.087.08.048.022.098.04.148.056a.948.948 0 0 0 .482.123.77.77 0 0 0 .092.007c.065-.014.154-.01.22-.031a1.67 1.67 0 0 0 .253-.11c.043-.022.085-.025.123-.05.039-.024.073-.072.11-.098a.76.76 0 0 0 .123-.08.498.498 0 0 0 .038-.062c.023-.032.065-.06.087-.093l.024-.068c.019-.03.058-.055.075-.087l.012-.086c.01-.026.034-.058.043-.08a1.21 1.21 0 0 0 .03-.544 1.43 1.43 0 0 0-.073-.198l-.024-.117c-.017-.029-.05-.054-.069-.08-.018-.027-.012-.04-.024-.062-.03-.05-.089-.09-.123-.137-.015-.02-.022-.046-.043-.061-.02-.016-.042-.017-.061-.031l-.025-.03-.056-.02c-.033-.02-.057-.065-.092-.086-.035-.021-.053-.007-.08-.019-.028-.012-.07-.038-.1-.05l-.049-.006a1.087 1.087 0 0 0-.457-.087l-.18.03c-.088.033-.18.076-.264.11-.044.016-.072.014-.11.032-.039.017-.087.08-.13.11-.043.03-.086.04-.11.073-.024.033-.032.07-.062.093-.03.022-.051.023-.068.042-.016.02-.012.044-.024.075s-.033.033-.043.05c-.023.034-.023.072-.043.11a.77.77 0 0 0-.061.11v.05a.61.61 0 0 0-.043.246v.198l.03.13v.062a.516.516 0 0 0 .061.128zm.458-.574c.024-.083.057-.164.099-.24.031-.048.095-.078.13-.124a.339.339 0 0 1 .086-.086c.066-.041.16-.032.22-.074h.253a.754.754 0 0 1 .507.408.67.67 0 0 1 .024.234c.001.066-.003.132-.012.198a.4.4 0 0 1-.043.068c-.016.027-.016.064-.037.087-.021.023-.08.055-.11.092-.011.016-.011.037-.025.05-.077.05-.16.09-.247.123a.618.618 0 0 1-.278.007h-.092a.814.814 0 0 1-.402-.297.648.648 0 0 1-.03-.1.497.497 0 0 1-.043-.346zM17.93 27.237a.66.66 0 0 0-.186 0 .66.66 0 0 0-.136 0h-.154a.924.924 0 0 0-.234-.007h-.513c-.537 0-1.105 0-1.6-.007-.05.032-.156 0-.22.007a2.128 2.128 0 0 1-.22 0l-.394.007c-.167 0-.317 0-.364.117a.253.253 0 0 0 .087.303c.116.044.24.058.364.043h.389c.053-.004.107-.004.16 0 .036.006.056.028.087.037.008.029.025.05.031.08 0 .048-.002.095-.006.142a.99.99 0 0 1 0 .186c0 .09.002.181.006.271a.77.77 0 0 0 0 .155c.012.057-.01.11 0 .168v.074c.011.064.03.126.055.185a.257.257 0 0 0 .074.056c.067.05.152.07.234.056a.335.335 0 0 0 .198-.117.938.938 0 0 0 .05-.402v-.488a1.083 1.083 0 0 1 .018-.352c.012-.03.039-.03.068-.043a.866.866 0 0 1 .185-.006c.097 0 .211.009.297.006a.22.22 0 0 1 .074-.006.295.295 0 0 1 .068.043c.08.317-.05.895.068 1.21.03.079.1.137.185.153a.29.29 0 0 0 .092-.007c.015 0 .04.021.068.013a.623.623 0 0 0 .173-.11c.033-.05.02-.12.037-.185a1.31 1.31 0 0 0 .012-.266v-.458a.857.857 0 0 1 .031-.358c.029-.008.053-.024.08-.03h.347a.48.48 0 0 1 .16-.007c.113.017.227.017.34 0 .07-.02.11-.082.167-.118 0-.03.012-.065.019-.092.03-.163-.107-.223-.197-.253z"/>
        </g>
    </g>
</svg>
