<svg width="60" height="30" viewBox="0 0 60 30" xmlns="http://www.w3.org/2000/svg">
    <g fill="#0054A4" fill-rule="nonzero">
        <path d="m35.224 20.507 1.364-2.02H35.01l-1.21 1.78h-.016l.783-3.955h-1.51l-1.3 6.647h1.518l.457-2.374h.016l.75 2.388h1.433zM13.467 14.293H11.99l.065-.534h-.012a1.483 1.483 0 0 1-1.227.641c-.633 0-1.023-.352-.843-1.288l.65-3.293h1.516l-.624 3.13a.321.321 0 0 0 .314.407c.169 0 .323-.111.375-.394l.625-3.143h1.516l-.877 4.474zM15.415 9.819h1.478l-.064.535h.07a1.395 1.395 0 0 1 1.17-.64c.633 0 1.024.352.845 1.292l-.65 3.288h-1.516l.625-3.123c.05-.261-.017-.406-.199-.406a.51.51 0 0 0-.49.392l-.626 3.142h-1.515l.872-4.48zM21.938 11.59c-.093.55-.218 1.095-.375 1.63-.053.115-.101.25-.406.18-.39-.097-.115-1.256 0-1.776.125-.56.303-.88.53-.907.153-.019.32.055.32.364-.006.171-.03.341-.07.508zm-.455 2.701h1.425l1.298-6.642h-1.514l-.486 2.499a1.048 1.048 0 0 0-.91-.431c-.723-.025-1.324.447-1.667 1.835-.315 1.285-.324 2.7.715 2.83.461.1.936-.1 1.188-.5l-.05.41zM26.122 12.619c-.054.29-.19.874-.521.874-.243 0-.27-.188-.25-.407.01-.184.045-.365.102-.54.08-.325.327-.723.67-.713l.168-.015-.17.8zm.29-1.47h-.18a2.015 2.015 0 0 0-2.062 1.009c-.15.32-.238.667-.258 1.02-.064.706.257 1.2.964 1.22.375.012.735-.15.974-.44l-.02.333h1.386l.636-3.231c.153-.818-.25-1.348-1.456-1.348a1.682 1.682 0 0 0-1.866 1.156h1.337c.052-.25.186-.364.374-.364.213 0 .277.1.242.282l-.07.363zM29.065 9.818h1.513l-.875 4.473h-1.516l.878-4.473zm.418-2.169H31l-.279 1.427h-1.518l.281-1.427zM27.84 18.487h1.478l-.067.536h.072c.255-.4.696-.641 1.17-.64.63 0 1.024.351.847 1.287l-.651 3.29h-1.517l.625-3.124c.05-.258-.015-.409-.197-.409a.507.507 0 0 0-.5.396l-.625 3.142H26.96l.882-4.478zM24.81 21.291c-.055.29-.191.875-.52.875-.25 0-.272-.191-.259-.409.015-.183.05-.364.105-.54.08-.326.328-.725.67-.714l.169-.015-.165.803zm.292-1.468h-.184a2.019 2.019 0 0 0-2.062 1 2.8 2.8 0 0 0-.259 1.02c-.062.71.258 1.202.962 1.222.377.012.739-.15.98-.44l-.025.334H25.9l.639-3.233c.15-.82-.25-1.346-1.454-1.346a1.687 1.687 0 0 0-1.874 1.154h1.335c.055-.243.19-.364.375-.364.214 0 .275.104.241.28l-.06.373zM13.447 18.487h1.517l-.874 4.472h-1.518l.875-4.472zm.404-2.17h1.517l-.27 1.426h-1.516l.269-1.425zM16.486 16.318h1.511l-1.295 6.644h-1.514zM19.693 21.19c.06-.309.262-1.335.316-1.487.075-.204.187-.348.397-.322.458.053.165 1.17.04 1.73-.125.541-.327.885-.571.885a.242.242 0 0 1-.257-.208 2.259 2.259 0 0 1 .075-.598zm-1.86 1.77h1.427l.102-.407a.89.89 0 0 0 .882.511c.764 0 1.569-.294 1.911-2.852.185-1.348-.206-1.874-1-1.874a1.388 1.388 0 0 0-.999.473l.479-2.498h-1.527l-1.276 6.646zM10.495 16.158a2.008 2.008 0 0 0-2.31 1.357 15.499 15.499 0 0 0-.69 3.052c-.258 1.49.17 2.458 1.675 2.533a2.104 2.104 0 0 0 2.385-1.341c.332-.99.564-2.012.69-3.049.263-1.486-.246-2.522-1.75-2.552zm.038 2.866c-.065.383-.417 2.175-.5 2.468-.146.489-.301.66-.586.668a.818.818 0 0 1-.09 0c-.568-.028-.375-.479-.125-1.837.069-.386.419-2.175.5-2.469.15-.482.304-.657.585-.663.68-.011.48.407.22 1.837l-.004-.004zM6.386 14.299l-.447-4.48h1.45l-.02 3.068L8.492 9.82h1.514l-2.998 6.22h-1.5zM4.164 7.655l-.467 2.364H2.435l.467-2.364H1.308L0 14.291h1.595l.625-3.15h1.262l-.625 3.15h1.597l1.309-6.636zM43.156 6.86c-3.793 0-6.951 2.4-6.951 5.629 0 3.228 3.157 5.637 6.95 5.637 3.795 0 6.958-2.404 6.958-5.637 0-3.233-3.163-5.63-6.957-5.63zm3.879 9.633v.026h-.203l-.008-.016a1.588 1.588 0 0 0-.132-.206 4.256 4.256 0 0 0-7.198.206l-.009.016h-.202v-.026a30.906 30.906 0 0 1 0-7.996v-.026h.202l.009.016c.02.037.043.072.067.106l.017.023a4.255 4.255 0 0 0 7.17-.013 1.707 1.707 0 0 0 .077-.116l.009-.015h.2V8.5a30.915 30.915 0 0 1 0 8.001v-.008z"/>
    </g>
</svg>
