<svg width="60" height="30" viewBox="0 0 60 30" xmlns="http://www.w3.org/2000/svg">
    <g fill-rule="nonzero" fill="none">
        <path d="M12.549 18.302a3.486 3.486 0 0 1-3.675-3.859 3.562 3.562 0 0 1 3.718-3.88 4.622 4.622 0 0 1 2.281.555l-.249 1.61a3.682 3.682 0 0 0-1.989-.637c-1.286 0-1.913.951-1.913 2.346 0 1.394.648 2.389 1.934 2.389.349.01.694-.072 1-.238v-1.334H12.36l-.217-1.372h3.123v3.632c-.81.526-1.758.8-2.724.79M18.762 18.248a6.111 6.111 0 0 1-2.604-.562l.27-1.578c.723.414 1.534.65 2.366.69.53 0 .898-.221.898-.666 0-.42-.217-.616-1.266-1.016-1.49-.574-2.14-1.06-2.14-2.292a2.253 2.253 0 0 1 2.556-2.204 4.738 4.738 0 0 1 2.249.497l-.281 1.555a4.081 4.081 0 0 0-1.946-.605c-.562 0-.832.237-.832.583 0 .379.206.562 1.134.919 1.622.594 2.27 1.157 2.27 2.347 0 1.62-1.188 2.333-2.666 2.333M26.569 18.247a6.111 6.111 0 0 1-2.605-.563l.27-1.577a5.282 5.282 0 0 0 2.367.692c.53 0 .898-.222.898-.667 0-.42-.217-.616-1.265-1.015-1.492-.574-2.14-1.06-2.14-2.291a2.253 2.253 0 0 1 2.555-2.205 4.737 4.737 0 0 1 2.247.497l-.28 1.555a4.076 4.076 0 0 0-1.946-.605c-.562 0-.832.238-.832.583 0 .378.205.562 1.135.919 1.621.594 2.27 1.157 2.27 2.346 0 1.622-1.189 2.333-2.667 2.333M34.573 18.161v-3.048H31.99v3.048H30.14v-7.459h1.848v2.79h2.584v-2.79h1.848v7.46zM48.14 15.687h-.475v2.475h-1.849v-7.459h2.4c1.816 0 2.93.811 2.93 2.433 0 1.686-1.2 2.555-3 2.555m-.032-3.589h-.465v2.195h.432c.822 0 1.275-.357 1.275-1.125 0-.713-.422-1.07-1.242-1.07" fill="#33331F"/>
        <path d="M39.595 11.019a1.15 1.15 0 0 1 .378-.308.322.322 0 0 1 .089-.025v-.13a.816.816 0 0 0-.083.013c-.84.193-2.654 1-2.654 3.858 0 2.857 1.814 3.666 2.654 3.857.027.006.055.01.083.014v-.125a.318.318 0 0 1-.089-.025 1.144 1.144 0 0 1-.378-.308 5.592 5.592 0 0 1-.666-3.412 5.811 5.811 0 0 1 .666-3.412M42.584 11.019a1.153 1.153 0 0 0-.379-.308.327.327 0 0 0-.089-.025v-.13a.83.83 0 0 1 .084.013c.84.193 2.653 1 2.653 3.858 0 2.857-1.813 3.666-2.653 3.857a.768.768 0 0 1-.084.014v-.125a.322.322 0 0 0 .09-.025c.146-.074.276-.18.378-.308a5.592 5.592 0 0 0 .667-3.412 5.817 5.817 0 0 0-.667-3.412" fill="#BFE10E"/>
    </g>
</svg>
