<svg width="60" height="30" viewBox="0 0 60 30" xmlns="http://www.w3.org/2000/svg">
    <g fill-rule="nonzero" fill="none">
        <g fill="#A3895E">
            <path d="M15.51 27.334h-.508v1.9h.508a.953.953 0 1 0 0-1.9m-.264.215h.234a.738.738 0 1 1 0 1.465h-.234v-1.465zM17.514 29.014v-.634h.63v-.215h-.63v-.616h.768v-.215H17.27v1.9h1.114v-.22zM19.63 27.334h-.542v1.9h.249v-.85h.3a.524.524 0 1 0-.01-1.046m-.293.215h.264a.31.31 0 1 1 .01.616h-.274v-.616zM21.315 27.295h-.093l-.786 1.935h.249s.2-.483.205-.518h.747c.01.035.21.518.21.518h.259l-.791-1.935zm.03.674s.181.469.205.527h-.572c.03-.06.21-.527.21-.527l.079-.225.078.225M23.406 28.34a.516.516 0 0 0 .347-.483.534.534 0 0 0-.572-.522h-.552v1.9h.249v-.85h.279c.015.024.616.85.616.85h.293s-.626-.84-.66-.89m-.527-.79h.274a.31.31 0 1 1 .01.616h-.28l-.004-.616zM24.193 27.333v.215h.63v1.68h.249v-1.68h.635v-.215zM28.107 27.334h-.166l-.513 1.046s-.156.352-.215.478a52.7 52.7 0 0 0-.22-.478l-.518-1.046h-.166l-.151 1.9h.229l.079-.982s.015-.263.025-.386l.185.4.484.987h.093l.479-.977.039-.088.151-.323c.005.118.02.386.02.386l.083.982h.24l-.158-1.9zM29.309 29.014v-.634h.63v-.215h-.63v-.616h.767v-.215h-1.018v1.9h1.119v-.22zM32.232 27.334V28.767a38.823 38.823 0 0 0-.376-.445l-.869-.987h-.172v1.9h.249V28.19s-.01-.353-.01-.45c.073.082.41.483.41.483l.919 1.05h.093V27.34l-.244-.005zM33.085 27.333v.215h.63v1.68h.249v-1.68h.635v-.215zM36.852 28.105c-.22-.09-.322-.186-.322-.322a.289.289 0 0 1 .327-.27c.12.005.238.04.342.1l.029.026.054-.22-.015-.005a.74.74 0 0 0-.406-.112.511.511 0 0 0-.576.493c0 .25.171.44.508.558.249.088.352.205.352.38 0 .177-.146.308-.366.308a.89.89 0 0 1-.538-.19l-.053-.044.073.3.005.01a.923.923 0 0 0 .508.146.555.555 0 0 0 .621-.557c0-.347-.274-.494-.543-.6M37.679 27.333v.215h.63v1.68h.244v-1.68h.64v-.215zM40.399 27.299a.982.982 0 1 0 .02 1.964.982.982 0 0 0-.02-1.964m.743.977a.746.746 0 0 1-.743.762.76.76 0 0 1 0-1.52.741.741 0 0 1 .743.758M42.75 28.34a.508.508 0 0 0 .176-.867.536.536 0 0 0-.397-.138h-.552v1.9h.245v-.85h.283c.015.024.616.85.616.85h.293l-.664-.89m-.528-.79h.278a.309.309 0 1 1 .015.616h-.293v-.616zM44.128 29.014v-.634h.63v-.215h-.63v-.616h.772v-.215h-1.021v1.9h1.119v-.22zM23.298 19.618c-2.111 0-3.366 1.3-3.366 2.908 0 1.608 1.255 2.9 3.366 2.9s3.367-1.3 3.367-2.9c0-1.6-1.266-2.908-3.367-2.908m0 5.184a2.351 2.351 0 1 1 1.774-2.276 2.052 2.052 0 0 1-1.774 2.276M26.954 20.474h2.213v4.715h1.671v-4.715h1.872v-.645h-5.756zM33.321 20.474h1.871v4.715h1.666v-4.715h2.218v-.645h-5.755zM16.605 24.225v-4.4h-1.6v4.725a.634.634 0 0 0 .635.634h4.1v-.64h-2.815a.322.322 0 0 1-.318-.322M39.984 20.468v4.085a.638.638 0 0 0 .64.634h4.368v-.634h-3.083a.312.312 0 0 1-.318-.318v-1.578h3.352v-.625h-3.352V20.78a.314.314 0 0 1 .318-.317h3.083v-.635h-4.371a.643.643 0 0 0-.64.64"/>
        </g>
        <path d="M30 16.024a4.41 4.41 0 0 1-3.147-1.3l-3.2-3.2a4.48 4.48 0 0 1 0-6.3l3.2-3.2a4.473 4.473 0 0 1 6.3 0l3.2 3.2a4.473 4.473 0 0 1 0 6.3l-3.2 3.2a4.417 4.417 0 0 1-3.153 1.3zm-.178-12.532a1.709 1.709 0 0 0-1.232.492 3.884 3.884 0 0 0-.787 2.717c.006.366.1 3.623 1.452 5.359.197.255.434.477.7.659.33.23.721.354 1.123.357.14 0 .281-.012.42-.035h.015a4.153 4.153 0 0 0 2.3-1.932.438.438 0 0 0-.132-.593.425.425 0 0 0-.229-.07.43.43 0 0 0-.358.208 3.5 3.5 0 0 1-1.753 1.562 1.623 1.623 0 0 1-.26.025c-.239 0-.47-.08-.659-.226a2.142 2.142 0 0 1-.5-.477c-.952-1.224-1.249-3.624-1.273-4.85a3.033 3.033 0 0 1 .536-2.1c.17-.166.4-.255.637-.245h.079a.843.843 0 0 1 .63.245c.435.608.628 1.357.542 2.1a7.447 7.447 0 0 1-1 3.8.434.434 0 0 0 .147.586.464.464 0 0 0 .219.06.447.447 0 0 0 .367-.207 8.718 8.718 0 0 0 1.113-4.221 3.841 3.841 0 0 0-.787-2.717 1.684 1.684 0 0 0-1.229-.492l-.081-.005z" fill="#A3895E"/>
        <path d="M28.102 13.072a.479.479 0 0 1-.474-.46.472.472 0 0 1 .127-.337.44.44 0 0 1 .328-.151.475.475 0 0 1 .493.454.482.482 0 0 1-.455.494h-.019z" fill="#FFF"/>
    </g>
</svg>
