<svg width="60" height="30" viewBox="0 0 60 30" xmlns="http://www.w3.org/2000/svg">
    <g fill-rule="nonzero" fill="none">
        <path fill="#22802A" d="m21.402 14.988 2.265-.011v.867h-1.019v.833h.958v.805h-.958v.834h.989v.927H21.41zM26.764 14.985h2.255v.85h-1.02v.823h.958v.79h-.958v.82h.989v.913h-2.224zM32.694 14.976h2.253v.867h-1.021v.834h.96v.805h-.96v.834h.991v.927h-2.223zM24.274 15.01h1.184v3.306h.835v.9h-2.009zM29.325 14.985h1.047l.479 3.145.579-3.145h.894l-.711 4.224H29.85zM35.443 15.01h1.208v.244c.339-.18.704-.305 1.081-.371 0 0 .525-.06.866.68v3.647h-1.176v-3.184a.441.441 0 0 0-.772.03v3.122h-1.206l-.001-4.168zM34.369 19.811a.713.713 0 0 0-.722.7.663.663 0 0 0 .212.49.739.739 0 0 0 1.021 0 .671.671 0 0 0 0-.978.717.717 0 0 0-.512-.209m.628.7a.618.618 0 0 1-.628.6.631.631 0 0 1-.443-.177.589.589 0 0 1 0-.853.642.642 0 0 1 .889 0 .59.59 0 0 1 .183.425l-.001.006z"/>
        <path d="m34.73 20.91-.209-.384a.434.434 0 0 0 .112-.09.233.233 0 0 0 .05-.148.215.215 0 0 0-.03-.117.22.22 0 0 0-.082-.092.274.274 0 0 0-.094-.035.989.989 0 0 0-.179-.014h-.247v.1l.008.4v.4a.049.049 0 0 0 .048.052.053.053 0 0 0 .055-.052v-.4h.249l.225.424a.053.053 0 0 0 .067.023.056.056 0 0 0 .028-.07m-.564-.474v-.3h.172a.252.252 0 0 1 .157.038.132.132 0 0 1 .052.117.122.122 0 0 1-.052.108.28.28 0 0 1-.163.04l-.166-.003z" fill="#22802A"/>
        <path d="M22.216 3.688h13.958a18.316 18.316 0 0 0-6.58 5.443h-7.361l-.017-5.444z" fill="#ED6B00"/>
        <path d="M38.349 3.44v5.935a7.7 7.7 0 0 0-4.636 5.13h-5.751A16.7 16.7 0 0 1 38.349 3.44zM27.223 19.637h5.994s-.433 5.5-.123 6.922h-6.243c-.072-2.314.053-4.63.372-6.922z" fill="#DC000C"/>
        <path fill="#22802A" d="m21.402 14.988 2.265-.011v.867h-1.019v.833h.958v.805h-.958v.834h.989v.927H21.41zM26.764 14.985h2.255v.85h-1.02v.823h.958v.79h-.958v.82h.989v.913h-2.224zM32.694 14.976h2.253v.867h-1.021v.834h.96v.805h-.96v.834h.991v.927h-2.223zM24.274 15.01h1.184v3.306h.835v.9h-2.009zM29.325 14.985h1.047l.479 3.145.579-3.145h.894l-.711 4.224H29.85zM35.443 15.01h1.208v.244c.339-.18.704-.305 1.081-.371 0 0 .525-.06.866.68v3.647h-1.176v-3.184a.441.441 0 0 0-.772.03v3.122h-1.206l-.001-4.168zM34.369 19.811a.713.713 0 0 0-.722.7.663.663 0 0 0 .212.49.739.739 0 0 0 1.021 0 .671.671 0 0 0 0-.978.717.717 0 0 0-.512-.209m.628.7a.618.618 0 0 1-.628.6.631.631 0 0 1-.443-.177.589.589 0 0 1 0-.853.642.642 0 0 1 .889 0 .59.59 0 0 1 .183.425l-.001.006z"/>
        <path d="m34.73 20.91-.209-.384a.434.434 0 0 0 .112-.09.233.233 0 0 0 .05-.148.215.215 0 0 0-.03-.117.22.22 0 0 0-.082-.092.274.274 0 0 0-.094-.035.989.989 0 0 0-.179-.014h-.247v.1l.008.4v.4a.049.049 0 0 0 .048.052.053.053 0 0 0 .055-.052v-.4h.249l.225.424a.053.053 0 0 0 .067.023.056.056 0 0 0 .028-.07m-.564-.474v-.3h.172a.252.252 0 0 1 .157.038.132.132 0 0 1 .052.117.122.122 0 0 1-.052.108.28.28 0 0 1-.163.04l-.166-.003z" fill="#22802A"/>
    </g>
</svg>
