<svg width="60" height="30" viewBox="0 0 60 30" xmlns="http://www.w3.org/2000/svg">
    <path d="M50.207 11.961v6.48a.077.077 0 0 1-.077.077h-2.033a.074.074 0 0 1-.066-.04l-2.236-4.116v4.08a.076.076 0 0 1-.075.077h-1.522a.077.077 0 0 1-.077-.077v-6.48c0-.042.035-.077.077-.077h2.033c.028 0 .054.016.067.041l2.235 4.139v-4.104a.076.076 0 0 1 .076-.077h1.52c.043 0 .078.035.078.077m-10.592-.178a3.425 3.425 0 1 1-3.573 3.422 3.253 3.253 0 0 1 3.573-3.422m0 5.39c1.143 0 1.61-.916 1.61-1.968 0-1.053-.467-1.97-1.61-1.97-1.142 0-1.608.916-1.608 1.97 0 1.053.466 1.968 1.608 1.968m-4.656 1.342a.077.077 0 0 0 .077-.076v-6.48a.077.077 0 0 0-.077-.077h-1.708a.077.077 0 0 0-.077.077v6.48c0 .042.034.076.077.076h1.708m-2.55-6.63h-5.056a.059.059 0 0 0-.06.058v1.286c0 .033.027.06.06.06h1.597v5.166a.059.059 0 0 0 .06.06h1.745a.059.059 0 0 0 .058-.06v-5.167h1.596a.059.059 0 0 0 .06-.059v-1.286a.059.059 0 0 0-.06-.059m-7.293 1.32c.482-.042.966.036 1.41.227a.04.04 0 0 0 .06-.034v-1.376c0-.016-.01-.03-.024-.036a4.68 4.68 0 0 0-1.597-.232c-1.062 0-3.98.38-3.98 3.448 0 3.067 2.916 3.446 3.98 3.446a4.68 4.68 0 0 0 1.597-.23.038.038 0 0 0 .024-.036v-1.38a.04.04 0 0 0-.06-.034c-.444.191-.928.269-1.41.227-1.1 0-2.16-.465-2.16-1.99 0-1.523 1.063-1.99 2.16-1.99m-6.906-1.31a.088.088 0 0 0-.088.087v3.887s.012 1.343-1.145 1.343c-1.156 0-1.144-1.343-1.144-1.343V11.99a.086.086 0 0 0-.088-.088h-1.716a.088.088 0 0 0-.088.088v4.073c0 1.8 1.34 2.588 3.035 2.588 1.696 0 3.035-.787 3.035-2.588V11.99a.086.086 0 0 0-.086-.088H18.21zm35.49 5.494a1.259 1.259 0 1 0-2.518 0 1.259 1.259 0 0 0 2.518 0m-42.607-6.055c.026 0 .05.017.058.042l2.376 7.08a.062.062 0 0 1-.06.082h-1.882a.062.062 0 0 1-.06-.045l-.376-1.307H8.61l-.38 1.307a.062.062 0 0 1-.06.045H6.363a.062.062 0 0 1-.059-.082l1.898-5.66h-.948a.062.062 0 0 1-.063-.062v-1.338a.062.062 0 0 1 .063-.062h3.84m-.36 4.397-.84-2.933-.851 2.933h1.69z" fill="#E40B15" fill-rule="nonzero"/>
</svg>
