<svg width="60" height="30" viewBox="0 0 60 30" xmlns="http://www.w3.org/2000/svg">
    <g fill-rule="nonzero" fill="none">
        <path d="M40.222 15.001A5.139 5.139 0 1 1 29.944 15 5.139 5.139 0 0 1 40.222 15" fill="#EA5902"/>
        <path d="M37.524 14.998a2.444 2.444 0 1 1-4.889 0 2.444 2.444 0 0 1 4.889 0" fill="#FFF"/>
        <path d="M36.367 15.001a1.284 1.284 0 1 1-2.569 0 1.284 1.284 0 0 1 2.57 0M30.134 19.04l-2.213-8.247a.339.339 0 0 0-.326-.249.333.333 0 0 0-.273.14l-2.9 3.92-.13.078-.128-.079-2.899-3.919a.333.333 0 0 0-.599.112l-2.213 8.246-.01.081c0 .184.149.334.333.334h2.076a.34.34 0 0 0 .326-.248l.74-2.831a.079.079 0 0 1 .137-.026l2.022 2.82a.248.248 0 0 0 .426 0l2.02-2.82a.079.079 0 0 1 .14.026l.738 2.83a.341.341 0 0 0 .326.249h2.075a.333.333 0 0 0 .333-.334l-.01-.08M9.584 10.544a.35.35 0 0 0-.395.272c-.033.145.04.324.292.495.268.212.404.55.357.889v.778c.003.183.15.33.334.333h2.516a.333.333 0 0 1 .334.333v5.473c0 .184.149.333.333.333h2.2c.184 0 .333-.15.333-.333v-5.473c0-.184.15-.333.334-.333h2.622c.184 0 .333-.15.333-.333v-2.095a.333.333 0 0 0-.333-.333l-9.26-.006zM50.415 19.458a.35.35 0 0 0 .396-.271c.033-.145-.038-.325-.293-.496a.963.963 0 0 1-.356-.889v-6.92a.333.333 0 0 0-.334-.333h-2.09a.333.333 0 0 0-.333.333v3.966c0 .14-.129.175-.21.073l-3.274-4.111a.707.707 0 0 0-.55-.263h-2.094a.333.333 0 0 0-.333.333v8.239c0 .184.15.333.333.333h2.097a.339.339 0 0 0 .34-.333V15.15c0-.137.111-.192.211-.075l3.268 4.118c.13.17.335.267.55.26l2.672.004z" fill="#231815"/>
    </g>
</svg>
