<svg width="60" height="30" viewBox="0 0 60 30" xmlns="http://www.w3.org/2000/svg">
    <g fill="none" fill-rule="evenodd">
        <path d="M38.628 10.494a4.626 4.626 0 0 1-1.382 3.303c-1.127 1.136-2.252 2.275-3.4 3.39a4.568 4.568 0 0 1-4.089 1.266 4.903 4.903 0 0 1-2.795-1.567c-.994-1.026-2.013-2.026-3.026-3.033a4.626 4.626 0 0 1-1.409-3.906 4.568 4.568 0 0 1 1.384-2.848c1.086-1.081 2.16-2.175 3.252-3.25a4.648 4.648 0 0 1 4.889-1.206c.77.256 1.46.705 2.006 1.305 1.074 1.094 2.175 2.16 3.247 3.256a4.579 4.579 0 0 1 1.323 3.29zM29.113 8.67c0-.16-.01-.321 0-.48.003-.545.145-1.08.413-1.556a1.052 1.052 0 0 1 1.769 0c.171.285.288.599.343.926a7.943 7.943 0 0 1-.394 3.909c-.15.426-.38.825-.573 1.236a.406.406 0 0 0 .222.604c.208.076.399-.02.548-.286a9.12 9.12 0 0 0 1.103-4.905 3.917 3.917 0 0 0-.426-1.745 1.823 1.823 0 0 0-1.754-1.036A1.804 1.804 0 0 0 28.69 6.41a4.637 4.637 0 0 0-.422 2.265c.02 1.195.194 2.384.52 3.534a5.46 5.46 0 0 0 1.318 2.462c.494.565 1.25.827 1.987.69.38-.083.737-.248 1.047-.484a5.194 5.194 0 0 0 1.428-1.6.384.384 0 0 0-.117-.508.393.393 0 0 0-.524.026 1.032 1.032 0 0 0-.146.186c-.337.532-.781.989-1.304 1.34a1.258 1.258 0 0 1-1.532-.028 3.371 3.371 0 0 1-1.111-1.618 11.99 11.99 0 0 1-.722-4.006v-.001zm-.445 5.844a.43.43 0 0 0-.43.436c0 .245.2.444.445.444a.444.444 0 0 0 .43-.444.436.436 0 0 0-.446-.435h.001z" fill="#E9232F"/>
        <path d="M29.114 8.67c.01 1.369.254 2.726.722 4.012a3.371 3.371 0 0 0 1.111 1.62 1.258 1.258 0 0 0 1.532.027 4.54 4.54 0 0 0 1.305-1.34c.041-.068.09-.13.147-.187a.393.393 0 0 1 .523-.025.384.384 0 0 1 .118.509 5.194 5.194 0 0 1-1.43 1.598c-.309.236-.666.401-1.046.485a2.126 2.126 0 0 1-1.987-.69 5.46 5.46 0 0 1-1.317-2.462 13.731 13.731 0 0 1-.52-3.535 4.637 4.637 0 0 1 .42-2.264 1.804 1.804 0 0 1 1.674-1.076 1.823 1.823 0 0 1 1.755 1.037c.275.54.42 1.138.425 1.744a9.119 9.119 0 0 1-1.103 4.906c-.15.267-.34.362-.548.285a.406.406 0 0 1-.222-.603c.193-.411.422-.81.573-1.237a7.943 7.943 0 0 0 .395-3.908 2.667 2.667 0 0 0-.344-.926 1.052 1.052 0 0 0-1.769 0 3.194 3.194 0 0 0-.413 1.556c-.011.154-.001.31-.001.474zM28.668 14.514a.436.436 0 0 1 .445.438c0 .24-.191.437-.431.445a.444.444 0 0 1-.321-.754.43.43 0 0 1 .307-.129z" fill="#FFF"/>
        <g fill="#E02A0C" fill-rule="nonzero">
            <path d="M19.142 24.212v.477h-6.534v-.477h2.735v-.654h-1.54a.492.492 0 0 1-.496-.491v-1.138h4.066v-.667h-4.066v-.474h5.024v1.62h-4.057v.453a.234.234 0 0 0 .041.158c.04.034.092.05.144.043h3.962v.49h-2.037v.655h2.758m-2.73.877c.078.29.225.558.429.778.197.213.42.4.666.556a3.667 3.667 0 0 0 1.275.508l-.276.418a3.743 3.743 0 0 1-.54-.11 5.084 5.084 0 0 1-.705-.253 5.424 5.424 0 0 1-.752-.405 3.556 3.556 0 0 1-.68-.57 3.562 3.562 0 0 1-.677.57c-.236.154-.483.29-.74.405a4.8 4.8 0 0 1-.698.252c-.18.051-.362.088-.547.111l-.273-.418a3.728 3.728 0 0 0 1.27-.508c.245-.156.47-.343.667-.556.203-.22.35-.487.426-.778h1.156zM22.656 24.924c.189 0 .339 0 .45-.013a.527.527 0 0 0 .295-.119v-1.555h-1.362v-.49h1.362v-2.06h.942v6.63H23.4v-2.014a.941.941 0 0 1-.284.09c-.153.021-.307.03-.46.028h-2.022a.547.547 0 0 1-.42-.148.493.493 0 0 1-.137-.35v-3.982h2.705v.497h-1.755v3.24a.276.276 0 0 0 .054.18c.048.049.116.073.184.065h1.39m2.349-4.235h.944v6.63h-.944v-6.63zM31.636 21.566c.154.112.281.257.375.423.092.165.14.352.137.542.002.162-.032.322-.099.469a1.264 1.264 0 0 1-.278.386c-.126.119-.27.217-.427.29-.173.082-.357.14-.546.172v.483h2.757v.49h-6.518v-.49h2.758v-.475a2.289 2.289 0 0 1-.569-.168 1.62 1.62 0 0 1-.444-.286 1.15 1.15 0 0 1-.257-1.412c.093-.166.221-.31.374-.423h-1.222v-.477h2.111v-.677h1v.677h2.096v.477h-1.256m-3.233 5.752a.579.579 0 0 1-.444-.163.612.612 0 0 1-.154-.438v-1.412h4.868v2.014l-4.27-.001zm.371-.667a.151.151 0 0 0 .171.17h2.758V25.79h-2.929v.863zm.617-4.154c0 .12.021.24.063.353.04.108.102.207.182.29.08.083.175.15.28.198.23.098.49.098.72 0a.866.866 0 0 0 .274-.198.816.816 0 0 0 .175-.29 1.091 1.091 0 0 0 0-.705.823.823 0 0 0-.175-.29.863.863 0 0 0-.275-.197.914.914 0 0 0-.72 0 .919.919 0 0 0-.279.197.852.852 0 0 0-.182.29 1.013 1.013 0 0 0-.063.352M39.113 24.233V25.7h1.656v.49h-6.533v-.49h1.683v-1.466h1V25.7h1.196v-1.466h1m-4.534-.394c.303-.083.593-.206.863-.367.275-.16.529-.352.758-.572.214-.204.396-.438.542-.696.134-.227.206-.486.209-.75v-.618h1.055v.617c.004.266.077.527.211.756.15.259.337.494.556.698.232.218.488.41.762.573.264.158.548.28.845.359l-.29.417a4.222 4.222 0 0 1-1.337-.491 4.636 4.636 0 0 1-.689-.473 3.322 3.322 0 0 1-.583-.613 2.929 2.929 0 0 1-.538.584 4.718 4.718 0 0 1-1.418.82c-.21.082-.43.14-.653.173l-.293-.417zM41.564 24.062v-.489h.699v-2.149h-.656v-.49h4.185v.49h-.667v1.264c-.002.149-.016.298-.043.444a1.461 1.461 0 0 1-.15.445h.41c.069 0 .15 0 .247-.008s.197-.012.298-.022c.101-.01.2-.025.294-.043.083-.013.165-.034.244-.063v-2.755h.967v3.812h-.967v-.58a1.49 1.49 0 0 1-.234.066 4.204 4.204 0 0 1-.612.074 5.777 5.777 0 0 1-.298.008h-3.717m1.649-2.638v2.149h.84c.026-.066.046-.135.059-.205a2.814 2.814 0 0 0 .057-.469c.003-.076 0-.147 0-.212v-1.263h-.956zm2.029 3.085c.248-.003.496.034.732.111.213.071.412.18.587.32.163.134.297.301.39.49.188.396.188.854 0 1.25-.093.19-.226.357-.39.49-.175.141-.374.25-.587.32-.477.153-.99.153-1.466 0a1.866 1.866 0 0 1-.586-.32 1.461 1.461 0 0 1-.39-.49 1.457 1.457 0 0 1 0-1.25c.093-.189.226-.356.39-.49.174-.14.373-.249.586-.32.237-.077.484-.114.733-.11m0 .497a.778.778 0 0 0-.65.327c-.074.1-.13.213-.164.333a1.333 1.333 0 0 0 0 .773 1 1 0 0 0 .164.334.829.829 0 0 0 .27.233.767.767 0 0 0 .38.09.778.778 0 0 0 .386-.09.832.832 0 0 0 .271-.233c.074-.1.128-.214.16-.334.035-.127.053-.258.053-.39s-.019-.263-.056-.39a1.037 1.037 0 0 0-.162-.333.833.833 0 0 0-.272-.233.778.778 0 0 0-.38-.09"/>
        </g>
    </g>
</svg>
