<svg width="60" height="30" viewBox="0 0 60 30" xmlns="http://www.w3.org/2000/svg">
    <g fill-rule="nonzero" fill="none">
        <path d="M38.062 11.233c-.74.001-1.34.602-1.342 1.342v3.1a1.949 1.949 0 1 1-3.856 0v-3.1a1.311 1.311 0 0 0-1.307-1.342c-.74.001-1.34.602-1.342 1.342v3.16a4.553 4.553 0 0 0 4.577 4.768 4.492 4.492 0 0 0 3.292-1.4 4.937 4.937 0 0 0 1.321-3.428v-3.1a1.344 1.344 0 0 0-1.342-1.342" fill="#652D8D"/>
        <path d="M44.965 25.347c-.114 0-.228-.018-.337-.055l-3.62-.917a9.843 9.843 0 0 1-4.855 1.275H23.844c-5.451 0-9.87-4.419-9.87-9.87 0-5.452 4.419-9.87 9.87-9.87h4.25a1.058 1.058 0 0 1 0 2.114h-4.25a7.755 7.755 0 1 0 0 15.511H36.15a7.729 7.729 0 0 0 4.16-1.209c.27-.172.603-.213.906-.11l2.37.7-1-2.069a1.058 1.058 0 0 1 .11-.906A7.757 7.757 0 0 0 36.15 8.025H31.9a1.058 1.058 0 0 1 0-2.115h4.25a9.872 9.872 0 0 1 8.6 14.725l1.22 3.32a1.058 1.058 0 0 1-1 1.4" fill="#AACE37"/>
        <path d="M27.513 16.9c-.356 0-.697.14-.949.393a2.142 2.142 0 0 1-3.027 0 2.063 2.063 0 0 1 0-3.028 2.14 2.14 0 0 1 3.027 0 1.344 1.344 0 0 0 1.9-1.9 4.824 4.824 0 1 0 0 6.826 1.343 1.343 0 0 0-.949-2.292" fill="#652D8D"/>
    </g>
</svg>
