<svg width="60" height="30" viewBox="0 0 60 30" xmlns="http://www.w3.org/2000/svg">
    <g fill-rule="nonzero" fill="none">
        <path d="M35.746 12.375v-1.626c.273.12.57.18.868.176a1.866 1.866 0 0 0 1.881-2.027A1.793 1.793 0 0 0 36.82 6.92c-.4-.001-.786.153-1.074.43v-.37h-1.45v5.395H9.192v.995h41.615v-.995H35.746zm0-4.087c.16-.106.348-.163.54-.167a.724.724 0 0 1 .769.762.739.739 0 0 1-.768.789 1.46 1.46 0 0 1-.541-.125v-1.26zm-22.987 2.575V8.968h1.835v1.895h1.66V5.852h-1.66v1.824h-1.835V5.852H11.1v5.011h1.66zm6.267.062a2.008 2.008 0 1 0-2.184-2.002 1.968 1.968 0 0 0 2.184 2.002zm-.013-2.759a.753.753 0 1 1-.723.757.71.71 0 0 1 .723-.757zm4.12 2.696V8.574a.685.685 0 0 1 .528-.408c.252 0 .406.214.406.497v2.2h1.443V8.575a.678.678 0 0 1 .553-.408c.232 0 .382.192.382.467v2.223h1.446V8.38c0-.775-.369-1.459-1.2-1.459-.517.019-.998.27-1.307.686a1.152 1.152 0 0 0-1.107-.686 1.448 1.448 0 0 0-1.148.581v-.515h-1.446v3.872l1.45.002zm7.42.103a2.14 2.14 0 0 0 1.728-.774l-.265-.641a2 2 0 0 1-1.203.443.955.955 0 0 1-1.028-.784h2.453a1.93 1.93 0 1 0-3.815-.308 2.02 2.02 0 0 0 2.13 2.064zm-.179-3.167c.429 0 .643.26.643.735h-1.286c-.002-.474.256-.735.647-.735h-.004zM40.582 5.85h-1.446v5.006h1.446V5.85zm1.978 5.075a1.5 1.5 0 0 0 1.252-.664c.123.484.38.664.934.664.213.006.426-.017.633-.068l.37-1.043c-.345.123-.547-.025-.547-.376V6.98h-1.45v2.287c-.182.285-.353.405-.567.405-.298 0-.43-.182-.43-.589V6.981h-1.451v2.476c.001 1.13.638 1.468 1.255 1.468zm6.537-1.177a1.147 1.147 0 0 0-.332-.793c-.49-.528-1.217-.443-1.217-.831 0-.147.144-.263.345-.263.367.032.716.168 1.007.394V7.223a2.587 2.587 0 0 0-1.314-.307c-1.156 0-1.488.64-1.488 1.13 0 1.149 1.549 1.14 1.549 1.62 0 .202-.155.306-.378.306a1.88 1.88 0 0 1-1.167-.528v1.106a3.187 3.187 0 0 0 1.577.372 1.238 1.238 0 0 0 1.417-1.174h.001zM42.974 18.817l-.996-.27c-.733-.205-.885-.64-.885-.967a1.067 1.067 0 0 1 1.156-.96c.415-.027.817.15 1.077.473.11.139.185.3.222.472h.789v-.006a1.9 1.9 0 0 0-.304-.827 1.72 1.72 0 0 0-.624-.568 2.416 2.416 0 0 0-1.155-.258c-.505-.02-1 .152-1.385.48-.35.323-.543.781-.53 1.257-.003.35.114.691.332.966.274.32.644.545 1.055.64l1.045.29c.6.154.916.488.916.967 0 .648-.488 1.05-1.272 1.05h-.028a1.315 1.315 0 0 1-1.345-1.023h-.798v.006a2.027 2.027 0 0 0 2.115 1.73h.057a1.823 1.823 0 0 0 2.033-1.798c-.007-.816-.502-1.369-1.475-1.654zM47.73 18.817l-.995-.27c-.731-.205-.885-.64-.885-.967a1.067 1.067 0 0 1 1.156-.96c.415-.027.817.15 1.078.473.108.139.184.3.221.472h.789v-.006a1.91 1.91 0 0 0-.303-.827 1.725 1.725 0 0 0-.624-.568 2.417 2.417 0 0 0-1.155-.258 2.02 2.02 0 0 0-1.385.48c-.35.323-.544.781-.53 1.257-.004.35.113.692.331.966.275.32.644.545 1.055.64l1.045.29c.6.154.916.488.916.967 0 .648-.486 1.05-1.272 1.05h-.028a1.317 1.317 0 0 1-1.346-1.023H45v.006a2.027 2.027 0 0 0 2.116 1.73h.056a1.823 1.823 0 0 0 2.034-1.798c-.007-.816-.502-1.369-1.475-1.654zM36.38 15.898a3.19 3.19 0 1 0 2.801 4.77v-.01h-.894a2.446 2.446 0 0 1-4.305-1.281h5.532a3.173 3.173 0 0 0-3.133-3.478zm-.007.74a2.412 2.412 0 0 1 2.35 2.014H34.01a2.427 2.427 0 0 1 2.37-2.015h-.007zM15.804 20.664a2.446 2.446 0 0 1-4.305-1.282h5.532a3.173 3.173 0 0 0-3.135-3.476c-.839 0-1.642.336-2.23.935a3.19 3.19 0 1 0 5.03 3.834v-.008h-.893l.001-.003zm-1.917-4.023a2.41 2.41 0 0 1 2.35 2.014h-4.712a2.428 2.428 0 0 1 2.362-2.018v.004zM26.249 15.898a3.193 3.193 0 0 0-3.19 3.19v5.318h.738v-3.28a3.19 3.19 0 1 0 2.452-5.228zm0 5.643a2.45 2.45 0 1 1 2.426-2.451 2.44 2.44 0 0 1-2.422 2.448l-.004.003zM33.405 15.924h-.403a2.66 2.66 0 0 0-2.665 2.662V22.1h.751v-3.476a2.005 2.005 0 0 1 1.915-1.959h.4l.002-.742z" fill="#DC000C"/>
        <path fill="#DC000C" d="m22.595 16.097.012-.014h-.95l-1.81 2.308-1.806-2.306h-.95L19.374 19l-2.424 3.098-.012.016h.95l1.96-2.503 1.958 2.498h.95L20.322 19z"/>
        <path d="M10.589 14.466a3.153 3.153 0 0 1 2.766 3.303 3.154 3.154 0 0 1-2.766-3.303" fill="#8BB81B"/>
    </g>
</svg>
