<svg width="60" height="30" viewBox="0 0 60 30" xmlns="http://www.w3.org/2000/svg">
    <g fill-rule="nonzero" fill="none">
        <path d="M15.069 14.577a1.429 1.429 0 0 0 2.853 0v-2.111a1.429 1.429 0 0 0-2.853 0v2.11zm-1.445-2.044c.006-.49.133-.97.368-1.4a2.656 2.656 0 0 1 2.49-1.259h.016c1-.086 1.964.402 2.488 1.26.236.428.363.91.37 1.4v1.99c-.007.49-.134.971-.37 1.4a2.644 2.644 0 0 1-2.488 1.258h-.016a2.652 2.652 0 0 1-2.49-1.258 2.981 2.981 0 0 1-.368-1.4v-1.99zM13.202 15.749l-.056-.09-1.087-.545-.046-.013-.086.053v.008c-.228.497-.74.8-1.285.761a1.357 1.357 0 0 1-1.426-1.346v-2.111a1.356 1.356 0 0 1 1.426-1.348 1.312 1.312 0 0 1 1.292.778l.094.064.045-.012 1.083-.564.052-.087-.006-.04-.064-.125a2.643 2.643 0 0 0-2.488-1.259h-.017a2.647 2.647 0 0 0-2.487 1.26c-.236.429-.363.91-.368 1.4v1.99c.005.49.132.97.368 1.4a2.651 2.651 0 0 0 2.487 1.26h.017c1 .086 1.965-.402 2.488-1.26.025-.044.044-.086.066-.129l.012-.044M26.047 16.943v-6.839a.101.101 0 0 0-.1-.1H24.71a.1.1 0 0 0-.101.1v4.479a1.429 1.429 0 0 1-2.853 0v-4.466a.102.102 0 0 0-.103-.101h-1.236a.1.1 0 0 0-.1.1v4.408c.006.487.12.965.334 1.402a2.34 2.34 0 0 0 2.24 1.258h.016a2.481 2.481 0 0 0 1.802-.722v.488a.103.103 0 0 0 .1.098h1.147a.102.102 0 0 0 .1-.101" fill="#5E2B28"/>
        <path d="M37.824 14.699a1.396 1.396 0 0 1-2.777 0v-.111a1.396 1.396 0 0 1 2.777 0v.11zm1.334-2.233a2.639 2.639 0 0 0-1.556-2.397 5.111 5.111 0 0 0-3.453.293.101.101 0 0 0-.073.096l.012.045.349.995.09.064.037-.008a3.543 3.543 0 0 1 2.546-.318c.468.232.747.727.703 1.247v.2a2.674 2.674 0 0 0-1.617-.53h-.013a2.364 2.364 0 0 0-2.243 1.19 2.937 2.937 0 0 0-.333 1.323c.005.46.12.913.333 1.32a2.364 2.364 0 0 0 2.243 1.19h.013a2.634 2.634 0 0 0 1.666-.565v.333a.102.102 0 0 0 .101.1h1.095a.103.103 0 0 0 .1-.1v-4.492" fill="#E19423"/>
        <path d="M46.009 12.529a3.251 3.251 0 0 0-.333-1.399 2.346 2.346 0 0 0-2.243-1.259h-.015a2.494 2.494 0 0 0-1.797.716v-.478a.1.1 0 0 0-.097-.101h-1.15a.1.1 0 0 0-.1.1v6.846a.101.101 0 0 0 .1.093h1.236c.052 0 .095-.04.1-.093v-4.556a1.431 1.431 0 0 1 2.851.072v4.464a.101.101 0 0 0 .101.102h1.247a.099.099 0 0 0 .097-.1V12.52l.003.009z" fill="#8DB133"/>
        <path d="M51.243 12.487a1.436 1.436 0 0 1-2.853 0v-.09a1.436 1.436 0 0 1 2.853 0v.09zm2.231-2.476a.1.1 0 0 0-.095-.1 1.906 1.906 0 0 0-1.526.62 2.992 2.992 0 0 0-2.027-.653h-.018a2.682 2.682 0 0 0-2.49 1.2 2.763 2.763 0 0 0-.37 1.333v.067c.008.469.136.928.37 1.333.18.295.422.546.71.735a2 2 0 0 0-1.026 1.865v.527a.1.1 0 0 0 .097.1h4.141a.798.798 0 0 1 .819.636 1.172 1.172 0 0 1-.725 1.278.1.1 0 0 0-.068.094l.016.05.541.984.09.057.044-.011a2.422 2.422 0 0 0 1.327-2.732 2.05 2.05 0 0 0-2.044-1.617l-2.861.067c.158-.864 1.165-.847 1.287-.842H49.827a2.673 2.673 0 0 0 2.486-1.199c.236-.405.364-.864.37-1.333v-.067a2.801 2.801 0 0 0-.23-1.062c.272-.177.595-.258.918-.23a.1.1 0 0 0 .101-.094v-1.015l.002.01z" fill="#4D99D1"/>
        <path d="M31.43 14.583a1.429 1.429 0 0 1-2.853 0v-2.11a1.429 1.429 0 0 1 2.853 0v2.11zm1.111-3.444a2.341 2.341 0 0 0-2.24-1.259h-.015a2.491 2.491 0 0 0-1.803.72v-.491a.1.1 0 0 0-.1-.1H27.24a.1.1 0 0 0-.101.1v9.765a.1.1 0 0 0 .099.098h1.251a.098.098 0 0 0 .086-.09v-3.336c.47.418 1.08.645 1.71.637h.015c.93.065 1.811-.43 2.24-1.259.215-.436.329-.915.333-1.4v-1.99a3.239 3.239 0 0 0-.333-1.4" fill="#CC3129"/>
    </g>
</svg>
