<svg width="60" height="30" viewBox="0 0 60 30" xmlns="http://www.w3.org/2000/svg">
    <g fill="#1A1311" fill-rule="nonzero">
        <path d="M54.08 22.413v-7.32h-1.614l.312.55v6.765zM35.232 22.413v-7.32h-1.339c.122.197.224.405.305.621v4.525l-3.633-5.146h-1.604l.437.645v6.67h1.034v-5.155l3.638 5.155 1.162.005zM27.015 21.276v-6.184h-1.621l.321.55v5.553a2.087 2.087 0 0 1-1.136.344 1.692 1.692 0 0 1-1.64-1.736v-4.706h-1.613l.308.55v4.544a2.339 2.339 0 0 0 2.365 2.37 4.065 4.065 0 0 0 2.344-.82c.234-.138.458-.292.671-.462M19.88 15.097h-1.7l.193.55-1.526 2.65-1.826-3.199h-1.555l2.568 4.401v2.915h1.306V19.46zM11.775 22.413v-7.32H10.16l.306.55v2.463H7.532v-3.013H5.92l.308.55v6.765h1.305v-3.281h2.935v3.281zM40.189 15.097h-2.997l.306.55v6.766h2.11c.615.005 1.22-.16 1.747-.477.192-.105.378-.227.58-.344a3.521 3.521 0 0 0 1.671-3.018 3.432 3.432 0 0 0-3.407-3.477m.995 6.09c-.327.18-.7.26-1.074.23h-1.312v-5.324h.733a2.777 2.777 0 0 1 2.738 2.846 2.682 2.682 0 0 1-1.085 2.248M48.216 15.097h-1.412l.234.55-2.882 6.766h1.536l-.203-.551.62-1.463h2.935l.859 2.02h1.42l-3.107-7.322zm-1.683 4.321 1.054-2.47 1.052 2.47h-2.106zM25.014 7.445l-.178.465h.916v2.968h.617V7.91h.74l.175-.465zM30.07 7.445l.146.253v1.157h-1.38V7.444h-.757l.139.252v3.18h.613V9.327h1.38v1.545h.61V7.439zM31.724 7.445l.143.253v3.179h1.893l.174-.471h-1.445V9.327h1.27l.175-.467h-1.445v-.957h1.27l.175-.463z"/>
    </g>
</svg>
