<svg width="60" height="30" viewBox="0 0 60 30" xmlns="http://www.w3.org/2000/svg">
    <g fill-rule="nonzero" fill="none">
        <path d="M14.928 21.51h1.287c.01-.104.016-.21.016-.317a2.267 2.267 0 0 0-2.404-2.577 2.587 2.587 0 0 0-.043 5.164 2.24 2.24 0 0 0 2.332-1.704h-1.147a1.047 1.047 0 0 1-1.08.612 1.14 1.14 0 0 1-1.151-1.173h2.19v-.005zm-2.22-.852c.117-.618.461-1.062 1.107-1.062.645 0 .974.449 1.086 1.062h-2.193zM24.104 21.51h1.288c.009-.104.015-.21.015-.317a2.267 2.267 0 0 0-2.404-2.577 2.587 2.587 0 0 0-.042 5.164 2.24 2.24 0 0 0 2.331-1.704h-1.147a1.047 1.047 0 0 1-1.08.612 1.14 1.14 0 0 1-1.15-1.173h2.19v-.005zm-2.22-.852c.118-.618.462-1.062 1.107-1.062s.975.449 1.087 1.062h-2.194z" fill="#FFB41E"/>
        <path fill="#FFB41E" d="m19.237 23.573 1.588-4.862H19.39l-.959 2.934-.959-2.934h-1.435l1.589 4.862zM28.549 18.529c-.774 0-1.402.461-1.402 1.03v-.886h-1.364v4.902h1.364v-2.723a.916.916 0 0 1 .297-.66 1.42 1.42 0 0 1 .985-.372c.148 0 .295.022.437.063v-1.332a1.894 1.894 0 0 0-.317-.022zM32.229 23.772l1.792-5.111h-1.364l-1.106 3.152-1.091-3.152h-1.365s1.68 4.638 1.68 4.891c0 .253-.016.263-.156.403s-.194.136-.531.136c-.2 0-.4-.022-.595-.066v1.156c.283.048.57.07.857.066.455.048.91-.09 1.26-.383.259-.332.468-.7.622-1.091l-.003-.001zM46.834 23.772l1.792-5.111h-1.364l-1.106 3.152-1.09-3.152H43.7s1.68 4.638 1.68 4.891c0 .253-.017.263-.157.403s-.194.136-.53.136c-.201 0-.4-.022-.596-.066v1.156c.283.048.57.07.857.066.455.048.91-.09 1.26-.383.259-.332.468-.7.622-1.091l-.003-.001zM37.28 16.86v2.308a1.913 1.913 0 0 0-1.442-.605 2.353 2.353 0 0 0-2.165 2.541 2.41 2.41 0 0 0 2.165 2.598 1.97 1.97 0 0 0 1.441-.662v.536h1.367V16.86l-1.367-.001zm-1.121 5.837c-.616 0-1.12-.713-1.12-1.594 0-.88.5-1.537 1.12-1.537.62 0 1.12.657 1.12 1.537 0 .88-.498 1.594-1.116 1.594h-.004zM41.402 18.52c-1.233 0-2.224.68-2.224 1.518v.176h1.364v-.172c0-.336.385-.605.86-.605s.859.271.859.605c0 .336-.384.609-.86.609h-.078c-1.462 0-2.299.482-2.299 1.482 0 .932.337 1.568 1.689 1.568a3.229 3.229 0 0 0 1.544-.535v.448h1.364v-3.572c.005-.842-.991-1.521-2.22-1.521zm-.17 4.275c-.548 0-.837-.28-.837-.658 0-.405.336-.694.933-.694.33-.016.65-.114.933-.284-.001.9-.001 1.636-1.028 1.636z"/>
        <path d="M40.18 17.99c.554-.075 1.076-.356 1.076-.808a.923.923 0 0 0-1.008-.849 1.16 1.16 0 0 0-1.147.962v1.009c.344-.15.707-.256 1.079-.314z" fill="#B8C306"/>
        <path d="m13.936 11.884 3.74-1.12c.972-.35 2.258-1.194 2.258-2.442a3.578 3.578 0 0 0-3.579-3.578h-1.07a3.91 3.91 0 0 0-3.912 3.91v3.172a3.492 3.492 0 0 0 3.518 3.488h1.294a3.36 3.36 0 0 0 3.473-3.178h-2.262c0 .799-.647 1.446-1.445 1.446h-1.052a1.274 1.274 0 0 1-1.274-1.283c0-.192.127-.36.31-.415zm-.312-1.668v-1.98c0-.958.777-1.735 1.734-1.735h.749a1.568 1.568 0 0 1 1.568 1.569c0 .554-.365 1.042-.896 1.2l-3.155.946z" fill="#FFB41E"/>
        <path d="M34.04 9.416a1.333 1.333 0 0 1 1.224-1.336h.672c.548 0 1.175.353 1.17.942 0 .182-.101.35-.263.435l-3.046.974c-.823.292-1.914 1.002-1.914 2.04v.345c0 1.645 1.622 2.49 3.297 2.49h.643a3.285 3.285 0 0 0 3.314-3.248V9.42a2.85 2.85 0 0 0-2.98-2.801H35.06a2.77 2.77 0 0 0-2.942 2.8l1.921-.003zm3.035 2.743a1.66 1.66 0 0 1-1.56 1.58h-.384a1.074 1.074 0 0 1-1.225-1.1.855.855 0 0 1 .654-.896l2.515-.784v1.2zM30.264 7.206a4.208 4.208 0 0 0-4.33 0 3.976 3.976 0 0 0-2.164-.6c-1.75 0-3.168.993-3.168 2.218v6.273h2.005V8.824c0-.394.52-.713 1.163-.713.641 0 1.162.32 1.162.713v6.273h2.005V8.824c0-.394.52-.713 1.162-.713.642 0 1.163.32 1.163.713v5.214c0 .585.475 1.06 1.061 1.06h.943V8.825a1.983 1.983 0 0 0-1.002-1.619zM39.888 15.1h2.004V9.245a1.12 1.12 0 0 1 1.11-1.12h.022c.318-.036.64.02.925.163V6.731a11.651 11.651 0 0 0-1.742-.13c-.18 0-.374 0-.57.012a1.816 1.816 0 0 0-1.75 1.814l.001 6.673zM47.272 8.396a.998.998 0 0 0 .998-.998v-.6h-1.755v-.883a.998.998 0 0 0-.998-.998h-1.009v8.565c0 .976.774 1.778 1.75 1.812.196.008.39.013.57.013.49.022.978-.048 1.441-.207v-1.51c-.255.105-.525.17-.8.192a1.369 1.369 0 0 1-.473-.048.615.615 0 0 1-.482-.56V8.399l.758-.003z" fill="#55555A"/>
    </g>
</svg>
