<svg width="60" height="30" viewBox="0 0 60 30" xmlns="http://www.w3.org/2000/svg">
    <g fill-rule="nonzero" fill="none">
        <path d="M19.534 18.843c-.246-1.856-1.16-3.369-2.093-3.376-.933-.008-2.296 1.514-3.092 3.377-.795 1.864.105 3.376 2.103 3.376a2.941 2.941 0 0 0 3.082-3.378" fill="#D4000E"/>
        <path d="M10.004 13.903a2.059 2.059 0 0 0-2.064 2.138 2.036 2.036 0 0 0 2.064 2.111 2.176 2.176 0 0 0 1.704-.815.612.612 0 0 0-.544-.287c-.363 0-.445.362-1.162.362a1.323 1.323 0 0 1-1.285-1.369 1.349 1.349 0 0 1 1.285-1.398c.642 0 .795.382 1.124.382a.778.778 0 0 0 .566-.305 2.149 2.149 0 0 0-1.69-.817M14.214 14.027h-1.678a.437.437 0 0 0-.482.444v.248h.747s.028 2.526 0 2.8a1.077 1.077 0 0 1-.58.932.596.596 0 0 0-.42.636c0 .02.014.03.026.033.014 0 .392-.096.444-.119a1.91 1.91 0 0 0 1.157-.854c.182-.363.264-.768.237-1.173v-2.252h.035a.461.461 0 0 0 .51-.444v-.247" fill="#1C110F"/>
        <path d="M22.868 12.698a2.947 2.947 0 0 1 1.46 4.333c-.97 1.749-2.727 1.802-3.972.203-1.246-1.599-1.9-3.51-1.458-4.333.441-.823 2.219-.891 3.97-.203z" fill="#F48800"/>
        <path d="M13.968 13.255c1.556 1.062 3.292 1.382 3.91.695.618-.687.407-2.719-.451-4.556-.858-1.836-2.583-2.174-3.918-.686a2.949 2.949 0 0 0 .459 4.549" fill="#0068B7"/>
        <path d="M28.967 16.221a1.257 1.257 0 0 1-1.247 1.323 1.293 1.293 0 0 1-1.254-1.323 1.308 1.308 0 0 1 1.254-1.347 1.333 1.333 0 0 1 1.247 1.347m.749.008v-.016a2.01 2.01 0 0 0-1.974-2.05h-.027a2 2 0 0 0-2 2.05v.015a2.018 2.018 0 0 0 2.01 2.03 1.98 1.98 0 0 0 1.99-2.03m1.657-1a.491.491 0 0 1 .523-.428.536.536 0 0 1 .35.111c.185.117.416.13.613.036l.147-.08-.05-.087a1.16 1.16 0 0 0-1.05-.617 1.121 1.121 0 0 0-1.2 1.068c0 .584.444.853.875 1.04l.387.174c.359.15.581.312.581.622a.587.587 0 0 1-.604.59.683.683 0 0 1-.638-.242.639.639 0 0 0-.562-.322l-.152.031.012.095c.1.63.663 1.08 1.3 1.04a1.212 1.212 0 0 0 1.308-1.191 1.301 1.301 0 0 0-.99-1.223l-.397-.17c-.31-.118-.455-.257-.455-.438m4.581 1.686v-2.602h-.294c-.203 0-.345.102-.345.296v.892h-.815a.279.279 0 0 0-.257.11v-1.184h-.305c-.223 0-.345.112-.347.307v2.603h.276c.203 0 .37-.103.37-.296v-.892h.787a.356.356 0 0 0 .286-.112v1.303h.305c.223 0 .345-.111.345-.31m2.778-1.138a.821.821 0 0 1-.86.918.844.844 0 0 1-.865-.918.853.853 0 0 1 .865-.933.87.87 0 0 1 .86.933m.642.01v-.133a1.504 1.504 0 1 0-3.009 0v.013a1.516 1.516 0 0 0 1.511 1.526 1.49 1.49 0 0 0 1.498-1.524m1.86-.61c0 .29-.239.332-.472.332h-.071a.243.243 0 0 0-.21.111v-.777h.297c.223 0 .456.039.456.333m.647 0a.878.878 0 0 0-.98-.857h-.725c-.222 0-.344.111-.344.31v2.587h.309c.2 0 .34-.103.34-.296v-.881h.43a.9.9 0 0 0 .97-.867m1.766 0c0 .29-.239.333-.472.333h-.077a.246.246 0 0 0-.21.111v-.777h.297c.222 0 .457.038.457.333m.646 0a.878.878 0 0 0-.979-.857h-.724c-.222 0-.346.111-.346.31v2.591h.31c.2 0 .342-.103.342-.296v-.881h.43a.9.9 0 0 0 .97-.867m1.067 1.74v-2.596h-.305a.333.333 0 0 0-.346.342v2.567h.31c.222 0 .341-.111.341-.311m3.241.014-.046-2.606h-.244a.43.43 0 0 0-.197.042.261.261 0 0 0-.145.249l-.01 1.913-1.1-2.206h-.556c-.203 0-.34.1-.34.292l-.016 2.604h.307c.202 0 .333-.1.34-.29l-.041-2.041 1.152 2.333h.555a.427.427 0 0 0 .196-.042.263.263 0 0 0 .145-.249m3.46-1.153c0-.094 0-.161-.007-.182h-.823a.626.626 0 0 0-.317.083.283.283 0 0 0-.147.242v.222h.667v.014a.618.618 0 0 1-.123.37c-.182.2-.449.301-.717.272a.908.908 0 0 1-.645-.252c-.196-.21-.3-.49-.285-.778-.005-.249.08-.49.239-.682a.867.867 0 0 1 .666-.294.831.831 0 0 1 .47.111.476.476 0 0 0 .28.112.499.499 0 0 0 .3-.106c.048-.038.092-.08.132-.126a1.362 1.362 0 0 0-1.177-.595 1.508 1.508 0 0 0-1.587 1.58 1.572 1.572 0 0 0 1.607 1.64c.506.028.985-.23 1.242-.667.157-.295.234-.626.222-.96" fill="#1C110F"/>
    </g>
</svg>
