<svg width="60" height="30" viewBox="0 0 60 30" xmlns="http://www.w3.org/2000/svg">
    <g fill="none" fill-rule="evenodd">
        <path d="M22.107 19.934V15.04h-4.212l.3 1.85h1.745v1.79a2.637 2.637 0 0 1-1.355.321c-1.734 0-2.607-1.327-2.607-3.218 0-1.89.843-3.163 2.579-3.163a4.96 4.96 0 0 1 2.679.86l.336-2.17a6.216 6.216 0 0 0-3.075-.744c-3.1 0-5.012 2.11-5.012 5.23 0 3.118 1.764 5.2 4.954 5.2a6.618 6.618 0 0 0 3.668-1.06zM30.299 17.772c0-1.6-.872-2.36-3.057-3.162-1.254-.479-1.533-.727-1.533-1.24 0-.466.365-.782 1.125-.782a5.5 5.5 0 0 1 2.62.812l.379-2.1a6.4 6.4 0 0 0-3.03-.67c-1.923 0-3.437 1.032-3.437 2.971 0 1.66.873 2.317 2.884 3.088 1.414.541 1.7.8 1.7 1.371 0 .6-.5.9-1.21.9a7.147 7.147 0 0 1-3.19-.93l-.364 2.125c1.1.506 2.298.765 3.509.756 2.003.011 3.604-.948 3.604-3.139z" fill="#007CFF"/>
        <path d="M35.38 17.305c1.16-.762 2.736-1.755 2.736-3.644a3.1 3.1 0 0 0-3.39-3.018 3.91 3.91 0 0 0-3.556 2.238l1.88.88a1.916 1.916 0 0 1 1.514-1.047A1.142 1.142 0 0 1 35.68 13.9c0 .58-.654 1.02-1.47 1.574-1.29.88-2.9 1.975-2.9 4.225.004.345.038.69.1 1.03h6.7v-2.016h-4.132c.007-.446.648-.91 1.403-1.407z" fill="#00D4EA" fill-rule="nonzero"/>
        <path d="M43.349 15.726a.965.965 0 1 1 0-1.93.965.965 0 0 1 0 1.93z" fill="#FFF" fill-rule="nonzero"/>
        <path d="M43.94 13.706a1.99 1.99 0 0 0-.588-.1 1.159 1.159 0 0 0-.565 2.171c.16.09.568.213.683.275a1.548 1.548 0 1 1-2.271 1.5l-2.074.451a3.732 3.732 0 1 0 4.814-4.288v-.009zm-.588 1.826a.771.771 0 1 1 .544-.225.772.772 0 0 1-.547.225h.003z" fill="#00D4EA" fill-rule="nonzero"/>
        <path d="m39.77 10.783-.41 4.657h2.087l.266-2.646h2.4a1.9 1.9 0 0 0 1.933-2.01H39.77z" fill="#00D4EA" fill-rule="nonzero"/>
    </g>
</svg>
