<svg width="60" height="30" viewBox="0 0 60 30" xmlns="http://www.w3.org/2000/svg">
    <g fill-rule="nonzero" fill="none">
        <path d="M16.988 16.882c-.824-.556-1.374-.741-1.374-1.135 0-.2.162-.47.763-.47.532.03 1.03.27 1.387.666l.018.008.023-.025v-1.333a4.156 4.156 0 0 0-1.68-.367c-1.678 0-2.366.968-2.366 1.69.027.557.34 1.06.827 1.332.725.515 1.657.826 1.657 1.43 0 .306-.308.832-1.312.832a3.827 3.827 0 0 1-3.4-2.264 3.833 3.833 0 0 0 3.666 3.654c2 0 2.912-1.216 2.912-2.223a2.111 2.111 0 0 0-1.116-1.804l-.005.009z" fill="#E6382F"/>
        <path d="M11.564 12.128a1.672 1.672 0 0 0-1.356.722v-.563H8.141l-.026.025.007.014c.264.308.367.425.367 1.176v4.346h1.72V14.26c0-.725.377-.896.645-.896s.642.171.642.896v1.503a2.71 2.71 0 0 0 1.721 2.478v-3.966c0-1.444-.595-2.147-1.653-2.147z" fill="#E6382F"/>
        <path d="M18.624 19.204a5.788 5.788 0 1 0-8.173-8.171 5.788 5.788 0 0 1 8.173 8.171" fill="#E6382F"/>
        <g fill="#3B3B3A">
            <path d="M28.07 12.45h-1.223v3.985h-.009l-2.48-3.984h-1.39v5.71h1.221v-4.065h.025l2.08 3.305a1.72 1.72 0 0 0 1.77.754v-5.704h.005zM33.148 15.07a2.28 2.28 0 0 0-1.15-.223h-1.489c-.497 0-.744-.212-.738-.636.005-.512.306-.768.902-.768h1.952a.889.889 0 0 0 .861-.981v-.016h-2.999a2.137 2.137 0 0 0-1.368.367 1.648 1.648 0 0 0-.505 1.348c0 1.099.596 1.649 1.789 1.649h1.333a.979.979 0 0 1 .629.167c.145.135.217.33.194.527a.569.569 0 0 1-.28.539 1.341 1.341 0 0 1-.614.111h-2.822v1h3c.487.037.972-.092 1.375-.368.367-.341.551-.835.5-1.333a1.51 1.51 0 0 0-.569-1.38v-.003zM41.107 15.544l-.024-.071.024.071c.494-.162.96-.398 1.384-.7.334-.244.617-.553.83-.909.19.303.436.567.725.778.422.304.898.525 1.403.651l.05.016.054.015.5-.77-.221-.047a2.806 2.806 0 0 1-1.491-.698 1.778 1.778 0 0 1-.565-1.334v-.333h-.915v.322a1.982 1.982 0 0 1-.608 1.425c-.42.421-.959.703-1.545.805l-.11.022-.112.023.5.762.111-.035.01.007zm-2.6-3.6h-2.384v.831h2.383v-.831zm9.666 2.827c-.015-.02-.011-.014-.014-.025V13.18a.27.27 0 0 1 0-.042h.55v1.58a.241.241 0 0 1 0 .052h-.538.002zm1.4.745c.426-.04.765-.073 1.013-.103l.083-.013.073-.014-.111-.766-.388.03-.344.045-.348.018V13.14h.777v-.8h-3.714v.802h.729v1.61l-.011.006-.008.016h-.827v.814h1.84c.316 0 .734-.02 1.241-.07l-.005-.002zm-12.778-.96-.044.061.042-.062a.402.402 0 0 1-.19-.353.444.444 0 0 1 .169-.364.66.66 0 0 1 .444-.153h.091a.667.667 0 0 1 .43.15.456.456 0 0 1 .186.375.407.407 0 0 1-.186.347.759.759 0 0 1-.465.141.789.789 0 0 1-.475-.14l-.002-.002zm3.523.967h-2.597a.059.059 0 0 1-.008-.029v-.111c.243-.058.465-.18.643-.356.221-.214.342-.512.333-.82a1.081 1.081 0 0 0-.13-.524h1.05v-.787h-4.682v.786h1a1.078 1.078 0 0 0-.04.089 1.263 1.263 0 0 0-.062.427c-.004.317.124.62.354.838.2.175.438.298.696.357v.097c0 .01 0 0-.008.015h-.006v.007h-2.582v.8h6.04v-.8.01zm-1.744 2.397-.019.025h-2.632v-.651h2.65c.002.01.002.02 0 .029v.598-.001zm.72-1.223a.512.512 0 0 0-.396-.173h-3.287a.57.57 0 0 0-.423.167.581.581 0 0 0-.137.41v1.022a.678.678 0 0 0 .132.424.581.581 0 0 0 .444.19h3.274a.531.531 0 0 0 .406-.185.607.607 0 0 0 .14-.407v-1.048a.537.537 0 0 0-.15-.4h-.003zm11.584.593a.684.684 0 0 1-.25.535l.05.057-.052-.055a.879.879 0 0 1-1.199 0 .688.688 0 0 1-.245-.537.721.721 0 0 1 .24-.543.939.939 0 0 1 1.2 0c.162.133.255.33.256.54v.003zm-2.013-1.104a1.492 1.492 0 0 0-.501 1.127c.003.422.188.823.507 1.1.317.296.736.459 1.17.457a1.702 1.702 0 0 0 1.155-.457c.324-.274.513-.676.517-1.1 0-.432-.186-.843-.511-1.127a1.789 1.789 0 0 0-.18-.142h.863v-3.952h-.88v3.94a1.71 1.71 0 0 0-2.14.154zm-2.532.471h-1.691v-1.335h-.845v1.324l-.008.007h-1.044v-1.259h-.838v1.258c0 .005 0 .005-.008 0h-1.604v.814h6.044v-.814l-.006.005zm-5.222-1.11-.025-.072.025.071c.493-.162.96-.398 1.383-.7.335-.244.617-.553.83-.909.19.303.436.567.725.778.422.305.899.526 1.404.651l.05.016.053.015.501-.77-.222-.046a2.806 2.806 0 0 1-1.491-.7 1.778 1.778 0 0 1-.565-1.333v-.333h-.915v.322a1.982 1.982 0 0 1-.608 1.425c-.419.421-.959.703-1.544.805l-.111.023-.112.022.5.762.112-.034.01.006zm-2.602-3.6h-2.383v.83h2.383v-.83zm9.667 2.826c-.014-.019-.011-.013-.013-.025v-1.566a.27.27 0 0 1 0-.041h.55v1.58a.241.241 0 0 1 0 .05h-.54l.003.002zm1.4.745c.427-.04.766-.073 1.013-.103l.084-.013.072-.014-.111-.766-.388.03-.343.045-.35.018v-1.573h.779v-.801h-3.715v.8h.73v1.611l-.012.006-.008.016h-.826v.814h1.84c.315 0 .733-.02 1.24-.07h-.005zm-12.778-.96-.044.062.042-.063a.402.402 0 0 1-.189-.353.444.444 0 0 1 .168-.363.66.66 0 0 1 .444-.154h.092a.667.667 0 0 1 .43.15.456.456 0 0 1 .185.375.407.407 0 0 1-.185.348.759.759 0 0 1-.466.14.789.789 0 0 1-.474-.14l-.003-.002zm3.524.967h-2.598a.059.059 0 0 1-.008-.029v-.11c.243-.058.466-.181.643-.356.222-.215.343-.512.334-.82a1.081 1.081 0 0 0-.131-.525h1.05v-.789h-4.681v.786h1a1.078 1.078 0 0 0-.04.089 1.263 1.263 0 0 0-.063.427c-.004.317.125.62.355.838.198.175.437.298.695.357v.097c0 .01 0 0-.007.015h-.007v.007h-2.581v.8h6.039v-.8.013zm-1.748 2.395-.019.025h-2.632v-.651h2.65c.002.01.002.02 0 .029v.598-.001zm.72-1.223a.512.512 0 0 0-.396-.173h-3.287a.57.57 0 0 0-.423.167.581.581 0 0 0-.137.41v1.022a.678.678 0 0 0 .132.424.581.581 0 0 0 .444.19h3.274a.531.531 0 0 0 .406-.185.607.607 0 0 0 .14-.407v-1.048a.537.537 0 0 0-.15-.4h-.003zm11.584.593a.684.684 0 0 1-.25.535l.05.057-.052-.055a.879.879 0 0 1-1.199 0 .688.688 0 0 1-.245-.537.721.721 0 0 1 .24-.543.939.939 0 0 1 1.2 0c.162.133.255.33.256.54v.003zm-2.013-1.104a1.492 1.492 0 0 0-.501 1.127c.003.422.188.823.507 1.1.317.296.736.459 1.17.457a1.702 1.702 0 0 0 1.155-.457c.324-.274.513-.676.517-1.1 0-.432-.186-.843-.511-1.127a1.789 1.789 0 0 0-.18-.142h.863v-3.952h-.88v3.94a1.71 1.71 0 0 0-2.14.154zm-2.532.471h-1.691v-1.335h-.845v1.324l-.008.007h-1.044v-1.259h-.838v1.258c0 .005 0 .005-.008 0h-1.604v.814h6.044v-.814l-.006.005z"/>
        </g>
    </g>
</svg>
