<svg width="60" height="30" viewBox="0 0 60 30" xmlns="http://www.w3.org/2000/svg">
    <g fill="#E50019" fill-rule="nonzero">
        <path d="M22.471 5.113c-2.415 0-3.86 1.492-3.86 3.333 0 1.84 1.445 3.332 3.86 3.332s3.863-1.493 3.863-3.332c0-1.84-1.448-3.333-3.863-3.333m0 5.95a2.361 2.361 0 0 1-2.037-2.617 2.361 2.361 0 0 1 2.037-2.618 2.36 2.36 0 0 1 2.039 2.618 2.36 2.36 0 0 1-2.039 2.616M33.296 5.355h-6.632v.74h2.54v5.41h1.915v-5.41h2.177zM40.564 5.355H33.93v.74h2.174v5.41h1.914v-5.41h2.545zM15.166 10.765a.365.365 0 0 1-.365-.365V5.357h-1.839v5.413a.73.73 0 0 0 .73.732h4.698v-.736h-3.224zM43.502 6.085h3.534v-.728h-5.005a.732.732 0 0 0-.732.732v4.684a.73.73 0 0 0 .732.732h5.007v-.726h-3.536a.366.366 0 0 1-.366-.367V8.596h3.846v-.718h-3.846v-1.43c0-.203.164-.367.366-.367M12.561 17.903c0 .773.56 1.42 1.68 1.924l.12.053c.549.243 1.47.651 1.445 1.156a.63.63 0 0 1-.224.464 2.141 2.141 0 0 1-1.545.266 7.224 7.224 0 0 1-2.028-.544c-.049-.02-.14-.05-.18.056-.09.278-.305.95-.403 1.267-.044.136.018.192.08.224.89.376 1.843.581 2.809.605 2.376 0 3.794-1.087 3.794-2.906 0-1.16-1.15-1.746-1.767-2.06l-.035-.015-.224-.112c-.526-.26-1.12-.551-1.16-.956a.56.56 0 0 1 .15-.431c.298-.26.69-.39 1.085-.359a6.611 6.611 0 0 1 2.08.448.15.15 0 0 0 .224-.094l.288-1.179c.041-.168-.036-.215-.084-.224a9.18 9.18 0 0 0-2.476-.386c-.37 0-3.62.08-3.623 2.818M29.949 16.721a.939.939 0 0 0-.288-.997 2.218 2.218 0 0 0-1.552-.062c-.008.135-.044.548-.174 1.417-.142.934-1.294 6.97-1.481 7.88-.026.12-.007.184.181.184h1.92c.167 0 .206-.068.225-.184l.346-2.262a4.802 4.802 0 0 0 4.056-1.069 5.769 5.769 0 0 0 1.631-3.949 1.977 1.977 0 0 0-2.141-2.208 3.48 3.48 0 0 0-2.723 1.25m-.403 4.37-.043-.024.011-.05a7.636 7.636 0 0 1 1.152-3.23 1.345 1.345 0 0 1 1.286-.507c.31.112.449.395.449.883 0 1.42-1.03 2.997-2.156 3.037a1.434 1.434 0 0 1-.699-.112M38.096 15.845a4.714 4.714 0 0 0-2.893 4.496c0 1.717 1.077 2.59 3.2 2.59a7.625 7.625 0 0 0 2.689-.544.19.19 0 0 0 .112-.211l-.065-1.078c-.01-.154-.084-.154-.15-.127a4.706 4.706 0 0 1-1.792.38c-1.12 0-1.753-.514-1.753-1.53v-.088l.083.02a5.759 5.759 0 0 0 2.946-.244 2.45 2.45 0 0 0 1.708-2.417 1.583 1.583 0 0 0-.733-1.233 3.643 3.643 0 0 0-3.356-.019m-.53 2.871-.017-.023.007-.028c.166-.673.896-1.664 1.793-1.664a.658.658 0 0 1 .71.438.945.945 0 0 1-.522.988 2.683 2.683 0 0 1-1.967.29M48.503 15.531c.055.02.112.063.073.224l-.406 1.654c-.04.132-.112.163-.177.153a2.135 2.135 0 0 0-2.227 1.036 13.117 13.117 0 0 0-1.104 3.922.193.193 0 0 1-.224.183H42.53c-.171 0-.184-.107-.171-.183.162-.86.87-4.532 1.009-5.475.13-.866.165-1.28.172-1.418a2.13 2.13 0 0 1 1.553.062c.336.241.326.747.156 1.397a3.071 3.071 0 0 1 3.25-1.557M24.542 15.846c-.128.939-.85 5.3-2.455 5.3a.512.512 0 0 1-.42-.137.598.598 0 0 1-.099-.393c.019-.368.067-.733.145-1.094 0 0 .587-2.93.732-3.676.016-.092.013-.185-.169-.185h-1.962a.2.2 0 0 0-.224.185l-.908 4.784a3.542 3.542 0 0 0-.068.654c-.02.37.093.733.318 1.026.47.44 1.108.653 1.747.582a3.098 3.098 0 0 0 2.773-1.518c-.033.112-.225.843.045 1.175.242.228.581.32.905.247.241-.026.48-.07.716-.133.036-.224.308-1.944.504-2.818.196-.874.644-3.296.769-3.998.013-.09.01-.185-.173-.185h-1.96c-.174 0-.203.08-.218.185"/>
    </g>
</svg>
