<svg width="60" height="30" viewBox="0 0 60 30" xmlns="http://www.w3.org/2000/svg">
    <g fill-rule="nonzero" fill="none">
        <g fill="#8B8B8C">
            <path d="M49.25 19.38h-.783l-.143.7h-.352l.148-.7h-.777l.067-.31h1.906l-.066.31zm-.368-1.014c.117.15.3.233.49.226l-.191.297a1.146 1.146 0 0 1-.401-.164.759.759 0 0 1-.286-.305c-.112.127-.248.23-.402.303-.145.076-.3.132-.46.166l-.06-.304c.175-.018.343-.077.49-.174a.664.664 0 0 0 .346-.391l.01-.05h.353l-.01.05a.468.468 0 0 0 .12.345zM51.291 20.084h-.347l.077-.36a2.148 2.148 0 0 1-.465.06H49.52l.067-.313h.187l.245-1.148h-.135l.067-.31h1.217l-.067.31h-.134l-.245 1.148h.245a.137.137 0 0 0 .087-.035.135.135 0 0 0 .053-.077l.079-.368h-.258l.065-.313h.256l.164-.764h.348l-.47 2.17zm-.913-.613.245-1.148h-.27l-.245 1.148h.27zM53.04 19.793h-.748c-.174 0-.246-.084-.207-.245l.326-1.53h1.009l-.38 1.775zm-.283-.309.245-1.16h-.312l-.245 1.16h.312zm1.281-.42h-.277l-.215 1.02H53.2l.461-2.174h.345l-.18.842h.28l-.067.312zM55.433 18.308h.14l.083-.398h.338l-.253 1.181h-.336l.101-.474h-.22c-.203.304-.521.511-.88.574l-.095-.307a.982.982 0 0 0 .49-.183h-.33l.06-.289h.519a.594.594 0 0 0 .05-.122h-.55l.066-.31h.89l-.045.218c-.009.034-.02.072-.028.11zm.316 1.33c.128.092.28.144.439.15l-.182.293a1.105 1.105 0 0 1-.406-.145.654.654 0 0 1-.288-.295c-.11.124-.245.223-.395.294-.143.07-.296.12-.453.147l-.066-.3c.172-.014.34-.065.491-.15a.594.594 0 0 0 .322-.386l.017-.084h.375l-.016.079a.368.368 0 0 0 .162.396zm.406-.303h-.342l.303-1.423h.34l-.301 1.423z"/>
            <g>
                <path d="M49.25 19.38h-.783l-.143.7h-.352l.148-.7h-.777l.067-.31h1.906l-.066.31zm-.368-1.014c.117.15.3.233.49.226l-.191.297a1.146 1.146 0 0 1-.401-.164.759.759 0 0 1-.286-.305c-.112.127-.248.23-.402.303-.145.076-.3.132-.46.166l-.06-.304c.175-.018.343-.077.49-.174a.664.664 0 0 0 .346-.391l.01-.05h.353l-.01.05a.468.468 0 0 0 .12.345zM51.291 20.084h-.347l.077-.36a2.148 2.148 0 0 1-.465.06H49.52l.067-.313h.187l.245-1.148h-.135l.067-.31h1.217l-.067.31h-.134l-.245 1.148h.245a.137.137 0 0 0 .087-.035.135.135 0 0 0 .053-.077l.079-.368h-.258l.065-.313h.256l.164-.764h.348l-.47 2.17zm-.913-.613.245-1.148h-.27l-.245 1.148h.27zM53.04 19.793h-.748c-.174 0-.246-.084-.207-.245l.326-1.53h1.009l-.38 1.775zm-.283-.309.245-1.16h-.312l-.245 1.16h.312zm1.281-.42h-.277l-.215 1.02H53.2l.461-2.174h.345l-.18.842h.28l-.067.312zM55.433 18.308h.14l.083-.398h.338l-.253 1.181h-.336l.101-.474h-.22c-.203.304-.521.511-.88.574l-.095-.307a.982.982 0 0 0 .49-.183h-.33l.06-.289h.519a.594.594 0 0 0 .05-.122h-.55l.066-.31h.89l-.045.218c-.009.034-.02.072-.028.11zm.316 1.33c.128.092.28.144.439.15l-.182.293a1.105 1.105 0 0 1-.406-.145.654.654 0 0 1-.288-.295c-.11.124-.245.223-.395.294-.143.07-.296.12-.453.147l-.066-.3c.172-.014.34-.065.491-.15a.594.594 0 0 0 .322-.386l.017-.084h.375l-.016.079a.368.368 0 0 0 .162.396zm.406-.303h-.342l.303-1.423h.34l-.301 1.423z"/>
            </g>
        </g>
        <g fill="#00788C">
            <path d="M47.43 13.289a18.29 18.29 0 0 0 .69 3.437c.067.189-.21.255-.531.123a.806.806 0 0 1-.468-.478 28.303 28.303 0 0 1-.443-2.464 6.918 6.918 0 0 0-1.41 1.935c-.158.426-.312.847-.46 1.264-.123.343-.883-.17-.773-.482.684-1.92 1.455-4.05 2.236-6.383.076-.23.958.153.79.65-.198.59-.539 1.568-.797 2.29a21.144 21.144 0 0 1 1.973-1.457c.172-.108.954.418.561.638-.482.269-.94.579-1.369.927zM42.648 13.868a17.995 17.995 0 0 1 1.614-1.635c.095-.093.204-.171.322-.232.245-.072.695.435.53.663-.213.295-.416.55-.599.773-.048.056-.194.024-.326-.041a9.512 9.512 0 0 0-1.75 2.086 6.038 6.038 0 0 0-.565 1.095c-.06.246-.11.474-.159.701-.041.198-.84-.083-.77-.422a44.47 44.47 0 0 1 1.332-4.678c.055-.17.87.136.748.507-.134.418-.26.812-.377 1.183zM34.26 13.367c.344-.387.724-.74 1.136-1.054.852-.614 1.61-.021 1.388.815a37.448 37.448 0 0 0-1.023 3.92c-.064.462-.846-.233-.803-.454.255-1.235.589-2.452.998-3.645.01-.03 0-.078-.06-.046a7.381 7.381 0 0 0-2.178 2.617c-.108.369-.202.701-.368 1.202-.085.246-.85-.189-.772-.414.31-.924.574-1.863.79-2.814.063-.246.015-.27-.123-.143a9.843 9.843 0 0 0-1.84 2.491 30.05 30.05 0 0 0-.194.614c-.103.339-.859-.16-.783-.414.348-1.153.824-2.578 1.273-3.949.086-.264.918.136.805.476-.027.085-.138.425-.225.704a6.85 6.85 0 0 1 .843-.832c.49-.348.951-.257 1.117.276.054.213.06.435.018.65zM19.794 12.692a19.517 19.517 0 0 0-.685 3.894c-.013.348-.844-.036-.833-.336.009-.184.027-.367.056-.548a7.29 7.29 0 0 1-.794.793 1.073 1.073 0 0 1-1.753-.89 13.2 13.2 0 0 1 .523-2.835c.057-.206.095-.416.113-.629.01-.097.044-.183.173-.17.382.04.873.392.776.737a26.831 26.831 0 0 0-.68 3.134c-.015.26.183.123.298.023a9.684 9.684 0 0 0 2.087-3.796c.068-.19.89.178.777.467a6.35 6.35 0 0 0-.058.156zM20.618 15.727c.02.531.302.543.708.356a3.902 3.902 0 0 0 1.806-3.097c.015-.285-.108-.203-.17-.18a6.228 6.228 0 0 0-1.81 1.719 3.748 3.748 0 0 0-.462.891l-.072.31zm.605-2.479a4.39 4.39 0 0 1 1.33-1.105 1.005 1.005 0 0 1 1.406.919c.011 1.631-1.178 3.537-2.666 3.682a1.035 1.035 0 0 1-.86-.245 83.364 83.364 0 0 0-.413 1.906c-.064.317-.879-.227-.832-.454.362-1.775.73-3.117 1.175-4.953.055-.245.096-.493.122-.743.019-.184.917.258.813.678l-.075.315zM25.157 13.963c.068.086.307.055.47 0a2.871 2.871 0 0 0 1.36-1.282c.02-.09.01-.094-.082-.094a3.084 3.084 0 0 0-1.748 1.376zm3.707-.113c.498-.57 1.031-1.109 1.596-1.612.09-.099.2-.178.322-.232a.491.491 0 0 1 .504.307.29.29 0 0 1 0 .351c-.213.296-.395.555-.578.778-.046.055-.194.024-.325-.042a9.517 9.517 0 0 0-1.75 2.087 6.275 6.275 0 0 0-.53 1.002c-.073.3-.13.528-.185.797-.047.22-.852-.102-.78-.466.082-.395.181-.807.298-1.246-.424.45-.927.817-1.484 1.083a1.649 1.649 0 0 1-2.118-.9 3.71 3.71 0 0 1 2.622-3.85 1.074 1.074 0 0 1 1.197 1.228 2.392 2.392 0 0 1-2.002 1.473.996.996 0 0 1-.664-.395 2.368 2.368 0 0 0-.38 1.674c.066.301.245.369.63.268a7.215 7.215 0 0 0 2.602-1.98c.185-.606.395-1.264.633-1.99.054-.17.868.136.747.507-.13.396-.252.777-.368 1.142l.013.016zM37.53 15.922a10.303 10.303 0 0 0 2.763-2.946c.06-.108.054-.227-.235-.146a4.693 4.693 0 0 0-2.624 3.035c0 .089.017.11.095.057zm3.919-3.192a12.933 12.933 0 0 0-1.115 3.895c-.02.336-.874-.1-.828-.384.062-.378.137-.757.234-1.151a6.762 6.762 0 0 1-2.096 1.63c-.419.152-1.24-.192-1.122-.883a5.02 5.02 0 0 1 2.762-3.675 1.084 1.084 0 0 1 1.329.303c.037-.09.088-.245.129-.336.065-.163.873.197.707.598v.003z"/>
            <path d="M49.386 13.963c.066.086.306.055.469 0a2.871 2.871 0 0 0 1.359-1.282c.02-.09.01-.094-.082-.094a3.077 3.077 0 0 0-1.746 1.376zm2.748-1.43.69-.123c.162-.44.346-.904.56-1.393.123-.273.903.19.765.49-.117.254-.224.505-.322.754.889-.114 1.683-.178 2.466-.245.442-.035.95.809.523.871-.251.037-.73.13-.946.171-.096.017-.193-.072-.26-.198-.647.057-1.316.13-2.097.253a37.25 37.25 0 0 0-1.025 3.997c-.075.329-.86-.214-.807-.491.096-.457.188-.899.29-1.337a5.8 5.8 0 0 1-1.744 1.368 1.698 1.698 0 0 1-2.16-.9 3.713 3.713 0 0 1 2.62-3.85 1.074 1.074 0 0 1 1.198 1.228 2.392 2.392 0 0 1-2.002 1.473 1.002 1.002 0 0 1-.665-.395 2.389 2.389 0 0 0-.38 1.674c.067.3.246.368.631.268a7.844 7.844 0 0 0 2.867-2.266c.065-.226.136-.456.213-.689-.313-.149-.644-.617-.412-.66h-.003z"/>
        </g>
        <path d="M10.648 17.03a.43.43 0 0 1 .452.136c1.08-.408 3.01-1.157 3.29-1.679.023-.045.044-.1-.054-.136-.79-.293-2.853-1.105-3.115-1.289a1.289 1.289 0 0 1-.362-1.596c.297-.66 3.491-2.283 5.385-2.041.286.036.569.948.359 1.018-.506.167-.883.3-1.266.413-.134.038-.336-.102-.451-.245a9.112 9.112 0 0 0-3.217 1.424.09.09 0 0 0 .013.138c.21.158.444.28.693.362.858.29 1.697.632 2.514 1.023a1.127 1.127 0 0 1 .152 1.596 13.838 13.838 0 0 1-4.795 2.463c-.137.042-.358-.144-.491-.333-.134-.19-.356-.569-.123-.69.321-.172.65-.371 1.016-.564z" fill="#00788C"/>
        <g fill="#0057AA">
            <path d="M6.412 16.032v-1.918h-1.65l.116.724h.685v.7c-.164.088-.347.13-.532.124-.68 0-1.021-.52-1.021-1.261 0-.742.33-1.239 1.011-1.239.375.01.739.127 1.049.338l.13-.85a2.42 2.42 0 0 0-1.202-.292 1.88 1.88 0 0 0-1.964 2.049 1.841 1.841 0 0 0 1.94 2.036 2.59 2.59 0 0 0 1.438-.41zM9.62 15.189c0-.627-.34-.926-1.197-1.239-.491-.187-.6-.283-.6-.483s.143-.308.441-.308a2.14 2.14 0 0 1 1.027.32l.148-.822a2.497 2.497 0 0 0-1.186-.263 1.188 1.188 0 0 0-1.35 1.164c0 .651.341.907 1.128 1.21.554.21.668.314.668.536 0 .223-.194.353-.474.353a2.777 2.777 0 0 1-1.248-.369l-.144.834c.43.198.9.3 1.374.296.785.002 1.414-.375 1.414-1.229z"/>
        </g>
    </g>
</svg>
