<svg width="60" height="30" viewBox="0 0 60 30" xmlns="http://www.w3.org/2000/svg">
    <g transform="translate(11.301 9.647)" fill="none" fill-rule="evenodd">
        <rect fill="#000" fill-rule="nonzero" x="31.533" width="2.264" height="10.676" rx=".91"/>
        <path d="M7.63.152h-.195c-.591.05-1.043.55-1.035 1.143v2.971H2.26v-2.97A1.132 1.132 0 0 0 1.224.151h-.189C.444.202-.008.702 0 1.295v8.076a1.132 1.132 0 0 0 1.035 1.144h.194A1.132 1.132 0 0 0 2.265 9.37V6.444h4.14V9.37a1.132 1.132 0 0 0 1.035 1.144h.194A1.132 1.132 0 0 0 8.67 9.37V1.295A1.132 1.132 0 0 0 7.63.152z" fill="#E95443"/>
        <rect fill="#000" fill-rule="nonzero" x="35.133" width="2.264" height="10.676" rx=".91"/>
        <path d="M20.756 4.856a3.118 3.118 0 0 0-5.27-1.774 3.118 3.118 0 0 0-5.272 1.803c-.007.03-.01.062-.014.093v.027a.98.98 0 0 0-.011.111v4.26a1.12 1.12 0 0 0 1.027 1.139h.193a1.12 1.12 0 0 0 1.028-1.139V8.302h.012V5.316a.97.97 0 0 1 1.941 0v4.222c.061.525.485.934 1.012.975h.193a1.12 1.12 0 0 0 1.027-1.134V5.316a.97.97 0 0 1 1.941 0v4.222c.061.525.485.934 1.012.975h.193a1.12 1.12 0 0 0 1.027-1.138V5.11a1.04 1.04 0 0 0-.04-.254zM30.285 6.429a4.26 4.26 0 1 0-4.259 4.27c.27.027.543-.024.786-.146a1.15 1.15 0 0 0 .477-.547 1.23 1.23 0 0 0 .082-.42 1.13 1.13 0 0 0-1.14-1.12h-.082c-.048 0-.097.008-.145.008a2.038 2.038 0 1 1 1.99-2.038c0 .208.008.417.009.622v2.446a1.065 1.065 0 0 0 1.04 1.082h.195a1.065 1.065 0 0 0 1.04-1.082V6.813c0-.123.007-.261.007-.384z" fill="#000" fill-rule="nonzero"/>
    </g>
</svg>
