<svg width="60" height="30" viewBox="0 0 60 30" xmlns="http://www.w3.org/2000/svg">
    <g fill-rule="nonzero" fill="none">
        <path d="M24.784 13.764a2.52 2.52 0 0 0-1.767.72 2.532 2.532 0 0 0-4.3 1.814v3.485h1.536v-3.591a.998.998 0 1 1 1.996 0v3.591h1.535v-3.591a.998.998 0 1 1 1.997 0v3.591h1.535v-3.48a2.533 2.533 0 0 0-2.532-2.539zm7.881.588a3 3 0 1 0 0 5.083v.36h1.47v-5.901h-1.47v.458zm-1.59 4.111a1.57 1.57 0 1 1 0-3.139 1.57 1.57 0 0 1 0 3.14zm5.763-4.57h-1.59v5.902h1.59v-3.36a2.014 2.014 0 0 1 1.507-1.03v-1.513a2.302 2.302 0 0 0-1.507.47v-.468zm17.257 1.59v-1.54h-1.402v-1.336H51.1v1.336h-.631v1.54h.63v2.771a2.58 2.58 0 0 0 1.597 1.52h1.251v-1.5h-.69c-.416 0-.537-.543-.561-.682v-2.11l1.399.002zm-6.961-1.707a2.988 2.988 0 0 1 2.948 3.09 2.75 2.75 0 0 1-.086.644h-4.301a1.56 1.56 0 0 0 1.146.894c.209.03.42.043.631.038.137-.002.273-.023.403-.063.28-.095.543-.237.777-.42l.12-.092 1.028.87a3.343 3.343 0 0 1-2.64 1.107 3.035 3.035 0 0 1-.026-6.068zm-6.56-1.95v4.046l1.817-1.96h2.072L41.77 16.82l2.846 2.935h-2.16l-1.878-2.04v2.04H38.96v-7.928h1.614zm6.56 3.417c-.634 0-1.207.375-1.46.956h2.92a1.594 1.594 0 0 0-1.46-.956z" fill="#043591"/>
        <path d="M17.825 15.324a1.68 1.68 0 0 0-.209-.692 1.426 1.426 0 0 0-.686-.612 1.036 1.036 0 0 0-.306-.09c-.12-.011-.24-.017-.36-.018-.12-.002-.263 0-.394 0h-3.787v2.347h3.326a2.848 2.848 0 0 1-.916 1.753 3.6 3.6 0 0 1-1.74.878 3.905 3.905 0 1 1 1.88-6.854 1.154 1.154 0 0 0 1.919-.874 1.17 1.17 0 0 0-.313-.793l-.014-.012a1.15 1.15 0 0 0-.156-.133 6.204 6.204 0 1 0-3.96 10.98 6.285 6.285 0 0 0 1.737-.24 5.941 5.941 0 0 0 1.947-.973 5.33 5.33 0 0 0 2.04-4.073c-.004-.188.002-.394-.008-.594z" fill="#3DAE36"/>
        <path d="M13.392 15.086a1.174 1.174 0 1 1-2.347 0 1.174 1.174 0 0 1 2.347 0z" fill="#043591"/>
    </g>
</svg>
