<svg width="60" height="30" viewBox="0 0 60 30" xmlns="http://www.w3.org/2000/svg">
    <path d="M37.22 20.07c-.276 0-.445-.292-.445-.575V18.24h11.589v1.256c0 .283-.165.575-.445.575h-10.7zm-3.474 1.241h.412a.444.444 0 0 0 .344-.111c.022-.02.63-.628.864-.861a.464.464 0 0 0 .173-.39V9.13c0-.276-.292-.444-.574-.444h-1.222l.003 12.624zm-18.325-5.677a3.472 3.472 0 1 1 3.473-3.472 3.444 3.444 0 0 1-3.473 3.472zm0-5.124a1.652 1.652 0 1 0 .002 3.304 1.652 1.652 0 0 0-.002-3.304zm5.222 10.801h.412a.444.444 0 0 0 .343-.111l.865-.861a.464.464 0 0 0 .173-.39V9.13c0-.276-.292-.444-.574-.444h-1.223l.004 12.624zm-9.007-4.904v1.256c0 .282.165.575.445.575h2.402v3.073h.412a.444.444 0 0 0 .343-.111c.023-.02.631-.628.865-.861a.464.464 0 0 0 .173-.39v-1.711h3.027c.276 0 .444-.293.444-.575v-1.256h-8.11zm33.92-2.727a.462.462 0 0 0 .172-.389v-2.808h1.695c.276 0 .444-.292.444-.574V8.687h-10.58v1.222c0 .282.164.574.444.574h3.092a.444.444 0 0 0-.342.111c-.022.02-.628.626-.86.857a.463.463 0 0 0-.173.389v2.808H37.29v1.222c0 .282.165.574.445.574h9.699c.276 0 .444-.292.444-.574v-1.222h-3.522a.444.444 0 0 0 .342-.111l.86-.857zm-4.333.967v-4.164h2.715v4.164h-2.715zM32.275 8.69h-1.222v3.878h-1.345v-1.543a.797.797 0 0 0-.296-.666c-.4-.398-1.445-1.445-1.481-1.476a.771.771 0 0 0-.59-.19h-3.166v7.211a.797.797 0 0 0 .297.667c.399.398 1.444 1.444 1.48 1.476a.77.77 0 0 0 .59.19h3.166V14.36h1.345v6.951h.412a.444.444 0 0 0 .343-.111c.023-.02.633-.628.865-.861a.464.464 0 0 0 .173-.39V9.13c.003-.276-.284-.441-.571-.441zm-6.302 7.749v-5.956h1.945v5.956h-1.945z" fill="#DC1108" fill-rule="nonzero"/>
</svg>
