<svg width="60" height="30" viewBox="0 0 60 30" xmlns="http://www.w3.org/2000/svg">
    <g fill-rule="nonzero" fill="none">
        <g fill="#CF001C">
            <path d="M30.033.954a16.4 16.4 0 0 1-.722.542c-.446.35-.856.744-1.225 1.176l-.286.395a1.707 1.707 0 0 0-.23.38c-.04.065-.072.135-.096.208a7.27 7.27 0 0 0-.112.406l-.03.336v.285c.042.512.146 1.016.308 1.503.247.511.508 1.015.783 1.511l1.44 1.615c.391-.465.772-.939 1.141-1.421l.383-.648c.266-.437.459-.915.57-1.414l.065-.538a1.964 1.964 0 0 0-.03-.717 2.597 2.597 0 0 0-.049-.273l-.118-.376a3.823 3.823 0 0 0-.379-.834 15.643 15.643 0 0 1-.56-.964 1.29 1.29 0 0 1-.111-.174l-.75-.997M22.836 4.397a13.23 13.23 0 0 1-.693-.196 3.79 3.79 0 0 1-.273-.053 1.27 1.27 0 0 0-.01.16l.07.6c.008.083.017.17.027.252l.04.291c.107.875.394 1.717.843 2.475a5.842 5.842 0 0 0 1.385 1.41 5.89 5.89 0 0 0 1.791.628 9.608 9.608 0 0 0 2.351-.378c0-.055-.012-.112-.02-.164l-.113-.553a5.442 5.442 0 0 0-.95-2.058l-.457-.518a4.908 4.908 0 0 0-1.257-1.058l-.242-.118a5.718 5.718 0 0 0-.593-.259 8.073 8.073 0 0 0-1.383-.302 2 2 0 0 0-.182-.056 2.665 2.665 0 0 1-.335-.103M35.786 5.053a3.102 3.102 0 0 0-1.548.1 3.28 3.28 0 0 0-.567.287c-.454.31-.871.67-1.242 1.076-.019.024-.04.045-.058.067a2.994 2.994 0 0 0-.405.707 4.999 4.999 0 0 1-.336.671l-.104.25c-.055.132-.1.267-.137.405l-.26 1.068c.084.018.17.034.253.047l.967.126c.202.032.406.047.61.046a6.09 6.09 0 0 0 2.52-.666c.05-.02.1-.043.149-.066.39-.197.767-.421 1.125-.672a4.05 4.05 0 0 0 1.15-1.163c.094-.133.175-.274.24-.422.146-.367.237-.753.27-1.146l-1.222-.42a12.521 12.521 0 0 0-1.408-.296M25.154 14.003c.277-.111.528-.277.738-.487l.46-.458c.354-.38.678-.787.97-1.217.133-.21.273-.414.42-.616a15.85 15.85 0 0 0-1.998-.766c-.41-.117-.825-.217-1.243-.299a3.316 3.316 0 0 0-.493-.048l-.842-.047a2.423 2.423 0 0 0-.672.076 7.33 7.33 0 0 0-2.597 1.308l-.366.295c.315.494.662.967 1.038 1.417a1.982 1.982 0 0 0 .23.257l.43.432c.175.085.352.168.53.244a2.81 2.81 0 0 0 1.096.33l.28.03a7.632 7.632 0 0 0 1.691-.31c.115-.038.228-.085.336-.14M35.2 10.103a1.449 1.449 0 0 0-.266 0 8.707 8.707 0 0 0-.588.079c-.274.092-.545.193-.812.305a6.51 6.51 0 0 0-1.791 1.026l.224.41c.142.265.3.52.475.765.176.22.377.421.597.598l.144.102c.087.068.18.127.28.175l.159.096c.062.039.127.074.194.105l.566.224.075.03c.224.072.456.121.69.147.28.027.56.044.84.045h.148c.08.005.159.001.237-.011.18 0 .356-.014.534-.03.278-.024.555-.06.829-.105.402-.068.801-.149 1.198-.244.159-.059.319-.112.48-.159l.112-.035a1.59 1.59 0 0 0 .26-.087l-.026-.065A14.354 14.354 0 0 0 39.081 12l-.062-.099a2.634 2.634 0 0 1-.122-.21 4.867 4.867 0 0 0-.485-.529l-.323-.266a3.359 3.359 0 0 0-.291-.183 6.646 6.646 0 0 0-1.904-.56l-.127-.01a3.724 3.724 0 0 0-.56-.034M34.114 14.821a4.886 4.886 0 0 0-.808-.732 10.781 10.781 0 0 0-2.834-1.383l-.038.171a10.076 10.076 0 0 0-.448 1.983c-.015.152-.02.304-.013.456v.096c.006.31.05.62.13.92.035.113.08.223.134.328.142.224.288.442.44.655.045.064.094.124.149.18.241.242.5.467.775.671a9.667 9.667 0 0 0 1.595.905l.287.103 1.211.426c.224.088.44.17.666.243l.032-1.36a8.294 8.294 0 0 0-.074-.877 6.552 6.552 0 0 0-.112-.796 2.773 2.773 0 0 0-.386-1.02 11.267 11.267 0 0 0-.706-.962M28.881 12.725c-.892.35-1.77.731-2.634 1.146l-.448.284c-.27.278-.548.545-.835.803a2.43 2.43 0 0 0-.62.948 1.335 1.335 0 0 0-.066.413 7.182 7.182 0 0 0 .093 1.52c.113.543.263 1.077.447 1.6l.124.504c.035 0 .07-.002.105-.006a.806.806 0 0 1 .088-.019c.636-.213 1.26-.459 1.87-.735l.163-.089a5.102 5.102 0 0 0 1.12-.812c.08-.084.155-.173.224-.266a1.11 1.11 0 0 0 .097-.112l.089-.112c.477-.65.742-1.432.758-2.239 0-.122 0-.242.008-.363-.03-.241-.068-.48-.112-.718l-.02-.147a4.593 4.593 0 0 1-.1-.388 26.415 26.415 0 0 0-.335-1.13l-.023-.087"/>
        </g>
        <g fill="#4F5556">
            <path d="M10.808 24.062c-.285.252-.442.619-.43 1 0 .32.125.626.35.853.2.201.427.375.673.517l.223.137c.23.13.449.277.655.44.138.11.25.25.326.408a.68.68 0 0 1-.268.882 1.077 1.077 0 0 1-.575.152 1.667 1.667 0 0 1-1.082-.435 2.866 2.866 0 0 1-.135-.125l-.136-.137.016.83c.411.308.913.47 1.426.46a1.367 1.367 0 0 0 1.44-1.393c.004-.4-.158-.784-.448-1.06a3.382 3.382 0 0 0-.754-.54l-.141-.08a4.505 4.505 0 0 1-.582-.364 1.071 1.071 0 0 1-.294-.327.672.672 0 0 1-.079-.318c0-.214.113-.412.297-.522.177-.107.382-.16.59-.154.386.01.759.147 1.059.392l.14.112-.018-.75a2.12 2.12 0 0 0-1.12-.342 1.751 1.751 0 0 0-1.047.301.93.93 0 0 0-.087.07M28.634 24.062a1.282 1.282 0 0 0-.432 1c0 .32.128.626.354.853.2.201.425.375.671.517l.224.137c.23.13.448.277.654.44.138.11.25.25.327.408a.792.792 0 0 1 .068.323.683.683 0 0 1-.336.56 1.08 1.08 0 0 1-.576.15 1.665 1.665 0 0 1-1.082-.434 2.895 2.895 0 0 1-.135-.125l-.137-.137.017.83c.41.309.911.47 1.424.46a1.367 1.367 0 0 0 1.44-1.393c.005-.4-.157-.785-.448-1.06a3.332 3.332 0 0 0-.735-.528l-.162-.092a4.686 4.686 0 0 1-.58-.364 1.064 1.064 0 0 1-.29-.327.65.65 0 0 1-.08-.318c0-.214.113-.412.296-.522.178-.107.383-.161.59-.154.39.009.764.148 1.065.395l.135.104-.02-.75a2.11 2.11 0 0 0-1.12-.343c-.367-.013-.73.09-1.036.295-.033.024-.065.05-.096.076M17.913 23.77v2.312h-2.791V23.77h-.65v5.193h.65v-2.31h2.791v2.31h.65v-5.193h-.65M20.207 23.77v5.194h.65v-5.193h-.65M32.346 23.77v5.194h2.917v-.57h-2.266v-1.736h2.118v-.574h-2.118v-1.739h2.196v-.572h-2.847M46.705 23.77v5.194h2.917v-.57h-2.267v-1.736h2.12v-.574h-2.12v-1.739h2.197v-.572h-2.847M43.716 23.74h-.466l-2.102 5.226h.672l.604-1.568h2.161l.654 1.568h.664l-2.189-5.225m-1.064 3.088.815-2.113.883 2.113H42.65M40.43 24.77v-.682a4.366 4.366 0 0 0-1.332-.377 1.68 1.68 0 0 0-.18-.009 3.17 3.17 0 0 0-1.516.326 2.4 2.4 0 0 0-.52.375 2.631 2.631 0 0 0-.75 1.784v.178a2.9 2.9 0 0 0 .547 1.791c.385.485.951.793 1.567.853.151.02.303.03.455.03a3.452 3.452 0 0 0 1.567-.35c.06-.034.12-.067.176-.106l.015-2.494h-1.664v.548h1.038v1.567a2.21 2.21 0 0 1-1.151.236c-.5-.02-.977-.219-1.343-.56a1.886 1.886 0 0 1-.523-1.168 2.89 2.89 0 0 1-.017-.326 2.276 2.276 0 0 1 .366-1.313 1.818 1.818 0 0 1 1.216-.74c.16-.026.32-.04.482-.04.207.008.412.036.613.082.338.074.661.208.953.396M26.28 23.77v4.041l-3.158-4.04h-.621v5.196h.605V24.81l3.23 4.155h.546V23.77h-.603"/>
        </g>
    </g>
</svg>
