<svg width="60" height="30" viewBox="0 0 60 30" xmlns="http://www.w3.org/2000/svg">
    <g fill-rule="nonzero" fill="none">
        <path d="M56.333 20.132 53.6 17.154l2.7-2.593a.026.026 0 0 0 0-.031.031.031 0 0 0-.03-.018h-1.29a.03.03 0 0 0-.022.008l-2.424 2.466v-2.445a.029.029 0 0 0-.01-.02.034.034 0 0 0-.023-.01h-.97a.032.032 0 0 0-.02.01.026.026 0 0 0-.01.02v5.61c0 .008.003.015.01.02a.032.032 0 0 0 .02.009h.987a.031.031 0 0 0 .023-.009.029.029 0 0 0 .01-.02v-2.83l2.453 2.85a.034.034 0 0 0 .023.009h1.29a.031.031 0 0 0 .03-.017.028.028 0 0 0-.015-.031zm-12.129.03a.031.031 0 0 0 .03.018h1.08a.03.03 0 0 0 .024-.014.026.026 0 0 0 0-.026l-1.735-4.615c-.422-.952-.72-1.013-1.278-1.013h-.451a.03.03 0 0 0-.028.018l-2.16 5.61a.026.026 0 0 0 0 .026.031.031 0 0 0 .025.014h1.08a.03.03 0 0 0 .028-.018l1.63-4.481a.157.157 0 0 1 .156.096l1.6 4.385zm-4.157-3.84a1.834 1.834 0 0 0-.434-1.209 1.67 1.67 0 0 0-.6-.44 2.1 2.1 0 0 0-.84-.161h-2.84a.032.032 0 0 0-.022.008.028.028 0 0 0-.01.02v5.61c0 .009.004.016.01.021a.031.031 0 0 0 .022.009h.986a.032.032 0 0 0 .022-.009.026.026 0 0 0 .01-.02v-4.774h1.827c.153-.002.304.029.445.089.154.067.28.184.36.332.085.161.13.34.128.522a.92.92 0 0 1-.217.62.732.732 0 0 1-.269.182c-.143.06-.297.092-.452.092h-1.349a.21.21 0 0 0-.132.042.126.126 0 0 0-.05.099c0 .032.012.062.033.086l.534.62c.007.006.015.01.024.01h.94a2.2 2.2 0 0 0 .822-.147 1.64 1.64 0 0 0 .811-.687 1.79 1.79 0 0 0 .246-.913l-.005-.002zm8.812 1.521a2.23 2.23 0 0 0 .646-.133 1.572 1.572 0 0 0 1.053-1.504 1.637 1.637 0 0 0-1.039-1.544 2.218 2.218 0 0 0-.84-.152h-2.848a.035.035 0 0 0-.021.008.025.025 0 0 0-.01.02v5.608c0 .007.004.014.01.02a.035.035 0 0 0 .021.008h.988a.035.035 0 0 0 .022-.009.024.024 0 0 0 .01-.02V15.37h1.826c.164-.002.327.027.48.086a.67.67 0 0 1 .327.273.91.91 0 0 1 .127.48.828.828 0 0 1-.217.582.734.734 0 0 1-.267.17 1.258 1.258 0 0 1-.454.086H47.39a.193.193 0 0 0-.12.038.113.113 0 0 0-.042.088.14.14 0 0 0 .035.09l2.174 2.9c.007.007.016.01.026.01h1.2a.032.032 0 0 0 .027-.015.025.025 0 0 0 0-.03l-1.83-2.284zm-24.422-3.331h-4.19v.6h1.744v5.071h.67v-5.071h1.776v-.6zm-11.45 0h.671v5.668h-.67v-5.668zm12.28 4.054c-.027.426.119.846.404 1.165a1.8 1.8 0 0 0 1.329.443h2.083v-.554h-2.082a.996.996 0 0 1-1.063-1.06v-1.134h3.145v-.6h-3.145V15.1h3.145v-.6h-3.816v4.066zm6.186-1.373h1.2c.164.004.327-.023.48-.08a.84.84 0 0 0 .302-.229c.167-.212.255-.475.248-.745a1.283 1.283 0 0 0-.143-.6.72.72 0 0 0-.35-.33c-.168-.069-.349-.1-.53-.09h-1.832v5.064h-.67V14.52h2.547c.248-.003.493.048.72.15.196.09.37.225.506.394.24.308.366.69.36 1.08.003.285-.067.565-.202.816-.138.27-.363.485-.638.612a1.612 1.612 0 0 1-.592.144l-.499.01 1.94 2.455h-.815l-2.128-2.793a.12.12 0 0 1 .096-.195zM19.6 20.184v-4.057a1.588 1.588 0 0 0-.408-1.171 1.824 1.824 0 0 0-1.34-.444h-2.554v5.671h.665v-5.126h1.89c.29-.012.572.093.785.29.2.21.307.49.298.78v4.057h.664zm-11.106-4.98a9.608 9.608 0 0 0-1.117 4.94c.272.04.548.04.82 0a13.714 13.714 0 0 1-.094-1.733c0-.17.015-.352.024-.521a6.04 6.04 0 0 1 .293-1.516c.068-.207.12-.333.16-.442.106-.276.24-.54.398-.79-.174-.04-.377-.104-.474.048l-.01.013z" fill="#0F0F0F"/>
        <path d="M7.72 14.456a1.778 1.778 0 0 1-.595 2.046c-.199-.549-.946-.594-1.366-.96-1.142-.99.619-1.527 1.306-.327-.081-.749.352-1.178.654-.76zm2.073-.286c.265 0 .678.323.36 1.1.4-.4 1.05-.35 1.067.105.017.455-.525.663-.912.632-.463-.04-.528-.13-.755.01-.31-.756-.36-1.818.24-1.847zm-4.526-.757c.12.036.537.373-.053.96-.18.176-.613.386-.694.72-.453-.335-1.015-.816-.833-1.331a.24.24 0 0 1 .353-.144.593.593 0 0 1 .257.287c.042.085.08.173.11.263a.814.814 0 0 1 .087-.275c.091-.18.337-.62.773-.48zm5.884-.204c.657-1.366 2.476-.795 1.44.38-.542.624-1.248.587-1.405 1.03-.528-.627-1.14-1.595-.807-2.188.289-.48.897-.075.772.778zm-1.756.413c-.267.332-.747.465-.896.832a1.404 1.404 0 0 1-.765-1.456c.17-.36.593-.093.635.48.26-1.09 1.75-.758 1.026.144zm-2.428-2.073a1.705 1.705 0 0 1-.078 2.04c-.307-.465-1.014-.336-1.494-.575-1.291-.656.222-1.567 1.14-.607-.25-.678.053-1.177.432-.858zm2.236-.054c.74-.756 1.936-.015.902.495-.382.188-.943.076-1.195.444a1.357 1.357 0 0 1-.043-1.626c.304-.251.54.15.336.687zm-.756-1.046c-.066.18-.162.298-.263.403l-.202.201a.936.936 0 0 0-.234.405 2.084 2.084 0 0 1-.848-.738.74.74 0 0 1-.129-.46.294.294 0 0 1 .417-.192c.169.114.296.28.36.473.137-.942 1.223-.96.899-.092z" fill="#E40B15"/>
    </g>
</svg>
