<svg id="ic-card-size36" xmlns="http://www.w3.org/2000/svg" width="36" height="36" viewBox="0 0 36 36">
  <rect id="사각형_16452" data-name="사각형 16452" width="36" height="36" fill="#fff" opacity="0"/>
  <g id="그룹_13128" data-name="그룹 13128" transform="translate(1 6)">
    <g id="사각형_14074" data-name="사각형 14074" transform="translate(1 1)" fill="#fff" stroke="#2d3239" stroke-width="1.5">
      <rect width="28" height="21" rx="5" stroke="none"/>
      <rect x="0.75" y="0.75" width="26.5" height="19.5" rx="4.25" fill="none"/>
    </g>
    <rect id="사각형_14077" data-name="사각형 14077" width="26" height="1.5" transform="translate(2 5.75)" fill="#2d3239"/>
    <rect id="사각형_16453" data-name="사각형 16453" width="4.951" height="1.5" rx="0.75" transform="translate(5 8.75)" fill="#2d3239"/>
    <rect id="사각형_16454" data-name="사각형 16454" width="4.951" height="1.5" rx="0.75" transform="translate(5 11)" fill="#2d3239"/>
  </g>
  <g id="그룹_12466" data-name="그룹 12466" transform="translate(-31.33 -771.768)">
    <circle id="타원_1896" data-name="타원 1896" cx="8" cy="8" r="8" transform="translate(48.33 786.768)" fill="#fff"/>
    <path id="패스_10995" data-name="패스 10995" d="M7,0A7,7,0,1,1,0,7,7,7,0,0,1,7,0Z" transform="translate(51.33 788.268)" fill="#7dedf3"/>
    <g id="타원_1441" data-name="타원 1441" transform="translate(48.33 786.768)" fill="none" stroke="#2d3239" stroke-width="1.5">
      <circle cx="8" cy="8" r="8" stroke="none"/>
      <circle cx="8" cy="8" r="7.25" fill="none"/>
    </g>
    <g id="그룹_10611" data-name="그룹 10611" transform="translate(52.158 792.632)">
      <path id="패스_2252" data-name="패스 2252" d="M3649.637,5413.028l1.622,4.635,1.623-4.635,1.622,4.635,1.623-4.635" transform="translate(-3648.709 -5413.028)" fill="none" stroke="#2d3239" stroke-linecap="round" stroke-linejoin="round" stroke-width="1.5"/>
      <line id="선_11" data-name="선 11" x2="1.391" transform="translate(0 1.854)" fill="none" stroke="#2d3239" stroke-linecap="round" stroke-width="1.5"/>
      <line id="선_166" data-name="선 166" x2="1.391" transform="translate(6.953 1.854)" fill="none" stroke="#2d3239" stroke-linecap="round" stroke-width="1.5"/>
    </g>
  </g>
</svg>
