<svg xmlns="http://www.w3.org/2000/svg" width="28" height="28" viewBox="0 0 28 28">
    <path data-name="사각형 18025" style="fill:none" d="M0 0h28v28H0z"/>
    <g data-name="그룹 14736">
        <path data-name="패스 13886" d="M409.811 79.657a9.872 9.872 0 1 0 19.744 0 5.6 5.6 0 0 0-.531-2.37c-.849-1.79-1.8-2.663-1.7-4.814.128-2.9-3.592-2.938-5.6-2.938a14.532 14.532 0 0 0-6.473 1.292 9.86 9.86 0 0 0-5.446 8.6v.226" transform="translate(-405.811 -65.535)" style="fill:#888"/>
    </g>
    <g data-name="그룹 14750" transform="translate(-21.649 -311.75)">
        <circle data-name="타원 2316" cx="1.25" cy="1.25" r="1.25" transform="translate(31.399 323)" style="fill:#fff"/>
        <circle data-name="타원 2317" cx="1.25" cy="1.25" r="1.25" transform="translate(37.399 323)" style="fill:#fff"/>
    </g>
    <g data-name="그룹 14751">
        <path data-name="패스 13893" d="M3.522 3A4 4 0 0 1 .11 1.11a.721.721 0 0 1 .248-1 .758.758 0 0 1 1.026.239 2.511 2.511 0 0 0 2.138 1.19A2.515 2.515 0 0 0 5.625.4.758.758 0 0 1 6.658.186.721.721 0 0 1 6.88 1.2 4.012 4.012 0 0 1 3.522 3" transform="translate(10.55 15.75)" style="fill:#fff"/>
    </g>
</svg>
