<svg xmlns="http://www.w3.org/2000/svg" width="28" height="28" viewBox="0 0 28 28">
    <path data-name="사각형 17998" style="fill:none" d="M0 0h28v28H0z"/>
    <g data-name="그룹 14698">
        <path data-name="패스 13876" d="M5 0h10a5 5 0 0 1 5 5v10a5 5 0 0 1-5 5H5a5 5 0 0 1-5-5V5a5 5 0 0 1 5-5z" transform="translate(4 4)" style="fill:#888"/>
        <g data-name="그룹 14696">
            <path d="M0 0h1.5v20H0z" transform="translate(13 4)" style="fill:#fff"/>
            <path data-name="사각형_7232" d="M0 0h1.5v5.679H0z" transform="rotate(90 -1.786 11.465)" style="fill:#fff"/>
            <path data-name="사각형_7232" d="M0 0h1.5v6H0z" transform="rotate(90 5.375 18.625)" style="fill:#fff"/>
            <g data-name="그룹 14697">
                <path data-name="패스 13862" d="M2.25 7A2.293 2.293 0 0 0 4.5 4.667C4.5 1.045 2.25 0 2.25 0S0 1.045 0 4.667A2.293 2.293 0 0 0 2.25 7z" transform="rotate(130.02 4.19 10.93)" style="fill:none"/>
                <path data-name="패스 13863" d="M2.25 5.5a.71.71 0 0 0 .511-.225A.868.868 0 0 0 3 4.667a4.434 4.434 0 0 0-.75-2.693 4.494 4.494 0 0 0-.75 2.693.8.8 0 0 0 .75.833m0 1.5A2.293 2.293 0 0 1 0 4.667C0 1.045 2.25 0 2.25 0S4.5 1.045 4.5 4.667A2.293 2.293 0 0 1 2.25 7z" transform="rotate(130.02 4.314 10.988)" style="fill:#fff"/>
                <g>
                    <path data-name="패스 13864" d="M2.25 0A2.293 2.293 0 0 1 4.5 2.333C4.5 5.955 2.25 7 2.25 7S0 5.955 0 2.333A2.293 2.293 0 0 1 2.25 0z" transform="rotate(49.98 -2.312 23.745)" style="fill:none"/>
                    <path data-name="패스 13865" d="M2.25 1.5a.8.8 0 0 0-.75.833 4.423 4.423 0 0 0 .75 2.692A4.423 4.423 0 0 0 3 2.333a.867.867 0 0 0-.239-.608.712.712 0 0 0-.511-.225m0-1.5A2.293 2.293 0 0 1 4.5 2.333C4.5 5.955 2.25 7 2.25 7S0 5.955 0 2.333A2.293 2.293 0 0 1 2.25 0z" transform="rotate(49.98 -2.312 23.745)" style="fill:#fff"/>
                </g>
            </g>
        </g>
    </g>
</svg>
