<svg xmlns="http://www.w3.org/2000/svg" width="36" height="36" viewBox="0 0 36 36">
  <g id="ic_d_store_21" transform="translate(-218 -648)">
    <rect id="사각형_17712" data-name="사각형 17712" width="36" height="36" rx="12" transform="translate(218 648)" fill="#f8f8f8"/>
    <path id="패스_14102" data-name="패스 14102" d="M0,0H24V24H0Z" transform="translate(224 654)" fill="rgba(255,255,255,0)"/>
    <g id="그룹_14229" data-name="그룹 14229" transform="translate(227.493 654.124)">
      <path id="패스_14106" data-name="패스 14106" d="M4,0h9.013a4,4,0,0,1,4,4V14.492a4,4,0,0,1-4,4H4a4,4,0,0,1-4-4V4A4,4,0,0,1,4,0Z" transform="translate(0 0)" fill="#fff"/>
      <path id="패스_13091" data-name="패스 13091" d="M1154.505,182h7.958a.9.9,0,0,1,.8.476l3.391,6.332a.9.9,0,0,1-.8,1.328h-14.74a.9.9,0,0,1-.8-1.328l3.391-6.332A.9.9,0,0,1,1154.505,182Z" transform="translate(-1149.978 -166.384)" fill="#7dedf3"/>
      <path id="패스_14105" data-name="패스 14105" d="M0,0,2.959,4.9" transform="translate(11.835 18.122)" fill="none" stroke="#2d3239" stroke-linecap="round" stroke-width="1.5"/>
      <path id="패스_14104" data-name="패스 14104" d="M2.959,0,0,4.9" transform="translate(2.219 18.122)" fill="none" stroke="#2d3239" stroke-linecap="round" stroke-width="1.5"/>
      <g id="패스_14103" data-name="패스 14103" transform="translate(0 0)" fill="none">
        <path d="M4,0h9.013a4,4,0,0,1,4,4V14.492a4,4,0,0,1-4,4H4a4,4,0,0,1-4-4V4A4,4,0,0,1,4,0Z" stroke="none"/>
        <path d="M 3.999999046325684 1.499998092651367 C 2.621499061584473 1.499998092651367 1.499999046325684 2.621498107910156 1.499999046325684 3.999998092651367 L 1.499999046325684 14.49197769165039 C 1.499999046325684 15.8704776763916 2.621499061584473 16.99197769165039 3.999999046325684 16.99197769165039 L 13.01261901855469 16.99197769165039 C 14.3911190032959 16.99197769165039 15.51261901855469 15.8704776763916 15.51261901855469 14.49197769165039 L 15.51261901855469 3.999998092651367 C 15.51261901855469 2.621498107910156 14.3911190032959 1.499998092651367 13.01261901855469 1.499998092651367 L 3.999999046325684 1.499998092651367 M 3.999999046325684 -1.9073486328125e-06 L 13.01261901855469 -1.9073486328125e-06 C 15.22175979614258 -1.9073486328125e-06 17.01261901855469 1.790857315063477 17.01261901855469 3.999998092651367 L 17.01261901855469 14.49197769165039 C 17.01261901855469 16.70111846923828 15.22175979614258 18.49197769165039 13.01261901855469 18.49197769165039 L 3.999999046325684 18.49197769165039 C 1.790859222412109 18.49197769165039 0 16.70111846923828 0 14.49197769165039 L 0 3.999998092651367 C 0 1.790857315063477 1.790859222412109 -1.9073486328125e-06 3.999999046325684 -1.9073486328125e-06 Z" stroke="none" fill="#2d3239"/>
      </g>
    </g>
    <g id="패스_14101" data-name="패스 14101" transform="translate(230.452 665.959)" fill="none">
      <path d="M1.849,0A1.849,1.849,0,1,1,0,1.849,1.849,1.849,0,0,1,1.849,0Z" stroke="none"/>
      <path d="M 1.849197626113892 1.499997615814209 C 1.656647682189941 1.499997615814209 1.499997615814209 1.656647682189941 1.499997615814209 1.849197626113892 C 1.499997615814209 2.041747570037842 1.656647682189941 2.198397636413574 1.849197626113892 2.198397636413574 C 2.041747570037842 2.198397636413574 2.198397636413574 2.041747570037842 2.198397636413574 1.849197626113892 C 2.198397636413574 1.656647682189941 2.041747570037842 1.499997615814209 1.849197626113892 1.499997615814209 M 1.849197626113892 -2.384185791015625e-06 C 2.870477676391602 -2.384185791015625e-06 3.698397636413574 0.8279175758361816 3.698397636413574 1.849197626113892 C 3.698397636413574 2.870477676391602 2.870477676391602 3.698397636413574 1.849197626113892 3.698397636413574 C 0.8279175758361816 3.698397636413574 -2.384185791015625e-06 2.870477676391602 -2.384185791015625e-06 1.849197626113892 C -2.384185791015625e-06 0.8279175758361816 0.8279175758361816 -2.384185791015625e-06 1.849197626113892 -2.384185791015625e-06 Z" stroke="none" fill="#2d3239"/>
    </g>
    <g id="패스_14100" data-name="패스 14100" transform="translate(237.85 665.959)" fill="none">
      <path d="M1.849,0A1.849,1.849,0,1,1,0,1.849,1.849,1.849,0,0,1,1.849,0Z" stroke="none"/>
      <path d="M 1.849197626113892 1.499997615814209 C 1.656647682189941 1.499997615814209 1.499997615814209 1.656647682189941 1.499997615814209 1.849197626113892 C 1.499997615814209 2.041747570037842 1.656647682189941 2.198397636413574 1.849197626113892 2.198397636413574 C 2.041747570037842 2.198397636413574 2.198397636413574 2.041747570037842 2.198397636413574 1.849197626113892 C 2.198397636413574 1.656647682189941 2.041747570037842 1.499997615814209 1.849197626113892 1.499997615814209 M 1.849197626113892 -2.384185791015625e-06 C 2.870477676391602 -2.384185791015625e-06 3.698397636413574 0.8279175758361816 3.698397636413574 1.849197626113892 C 3.698397636413574 2.870477676391602 2.870477676391602 3.698397636413574 1.849197626113892 3.698397636413574 C 0.8279175758361816 3.698397636413574 -2.384185791015625e-06 2.870477676391602 -2.384185791015625e-06 1.849197626113892 C -2.384185791015625e-06 0.8279175758361816 0.8279175758361816 -2.384185791015625e-06 1.849197626113892 -2.384185791015625e-06 Z" stroke="none" fill="#2d3239"/>
    </g>
    <g id="패스_14099" data-name="패스 14099" transform="translate(230.452 657.083)" fill="none">
      <path d="M1.333,0H9.762A1.333,1.333,0,0,1,11.1,1.333v3.99A1.333,1.333,0,0,1,9.762,6.657H1.333A1.333,1.333,0,0,1,0,5.324V1.333A1.333,1.333,0,0,1,1.333,0Z" stroke="none"/>
      <path d="M 1.500002861022949 1.499995708465576 L 1.500002861022949 5.157115459442139 L 9.595183372497559 5.157115459442139 L 9.595183372497559 1.499995708465576 L 1.500002861022949 1.499995708465576 M 1.333333015441895 -4.291534423828125e-06 L 9.761853218078613 -4.291534423828125e-06 C 10.4982328414917 -4.291534423828125e-06 11.09518337249756 0.5969557762145996 11.09518337249756 1.333335399627686 L 11.09518337249756 5.323775291442871 C 11.09518337249756 6.060155391693115 10.4982328414917 6.657115459442139 9.761853218078613 6.657115459442139 L 1.333333015441895 6.657115459442139 C 0.5969533920288086 6.657115459442139 2.86102294921875e-06 6.060155391693115 2.86102294921875e-06 5.323775291442871 L 2.86102294921875e-06 1.333335399627686 C 2.86102294921875e-06 0.5969557762145996 0.5969533920288086 -4.291534423828125e-06 1.333333015441895 -4.291534423828125e-06 Z" stroke="none" fill="#2d3239"/>
    </g>
    <path id="패스_14098" data-name="패스 14098" d="M0,0V5.178" transform="translate(236 657.822)" fill="none" stroke="#2d3239" stroke-width="1.5"/>
  </g>
</svg>
