<?xml version="1.0" encoding="utf-8"?>
<!-- Generator: Adobe Illustrator 26.1.0, SVG Export Plug-In . SVG Version: 6.00 Build 0)  -->
<svg version="1.1" id="Layer_1" xmlns="http://www.w3.org/2000/svg" xmlns:xlink="http://www.w3.org/1999/xlink" x="0px" y="0px"
	 viewBox="0 0 44 44" style="enable-background:new 0 0 44 44;" xml:space="preserve">
<style type="text/css">
	.st0{fill:none;stroke:#2D3239;stroke-width:1.5;}
	.st1{fill:#7DEDF3;stroke:#2D3239;stroke-width:1.5;}
	.st2{fill:#FFFFFF;stroke:#2D3239;stroke-width:1.5;}
</style>
<path class="st0" d="M28.7,35.1h-7h-9.9H9.4c1.3,0,2.3-1.1,2.3-2.3v-7.8V9.5h19.3v23.2C31.1,34,30,35.1,28.7,35.1z"/>
<path class="st1" d="M7.1,26.8v6c0,1.3,1.1,2.3,2.3,2.3c1.3,0,2.3-1.1,2.3-2.3v-6H7.1z"/>
<polyline class="st0" points="17.7,13.2 16,14.9 14.7,13.6 "/>
<line class="st0" x1="20.2" y1="14" x2="27.8" y2="14"/>
<polyline class="st0" points="17.7,18.1 16,19.8 14.7,18.5 "/>
<line class="st0" x1="20.2" y1="19" x2="27.8" y2="19"/>
<polyline class="st0" points="17.7,23 16,24.7 14.7,23.5 "/>
<line class="st0" x1="20.2" y1="23.9" x2="27.8" y2="23.9"/>
<polyline class="st0" points="17.7,27.9 16,29.7 14.7,28.4 "/>
<line class="st0" x1="20.2" y1="28.8" x2="27.8" y2="28.8"/>
<rect x="31.9" y="17.7" transform="matrix(0.7071 0.7071 -0.7071 0.7071 26.6299 -16.6447)" class="st1" width="3" height="12.3"/>
<path class="st2" d="M25.9,31.1l2-3.8c0.1-0.1,0.2-0.1,0.3,0L30,29c0.1,0.1,0.1,0.2,0,0.3l-3.8,2C26,31.4,25.8,31.2,25.9,31.1z"/>
</svg>
