<?xml version="1.0" encoding="utf-8"?>
<!-- Generator: Adobe Illustrator 26.1.0, SVG Export Plug-In . SVG Version: 6.00 Build 0)  -->
<svg version="1.1" id="Layer_1" xmlns="http://www.w3.org/2000/svg" xmlns:xlink="http://www.w3.org/1999/xlink" x="0px" y="0px"
	 viewBox="0 0 44 44" style="enable-background:new 0 0 44 44;" xml:space="preserve">
<style type="text/css">
	.st0{fill:#7DEDF3;}
	.st1{fill:none;stroke:#2D3239;stroke-width:1.5;}
	.st2{fill:#FFFFFF;stroke:#1B3547;stroke-width:2.5;stroke-linecap:round;stroke-linejoin:round;stroke-miterlimit:10;}
	.st3{fill:#FFFFFF;stroke:#2D3239;stroke-width:1.2;stroke-linecap:round;stroke-linejoin:round;stroke-miterlimit:10;}
	.st4{fill:#2D3239;}
	.st5{font-family:'Cafe24Ssurround';}
	.st6{font-size:11.4557px;}
</style>
<g>
	<path class="st0" d="M32.1,32.6v1.3c0,2.6-2.1,4.7-4.7,4.7h-2.9c2.6,0,4.7-2.1,4.7-4.7v-1.3c0-5.6-1.8-11.2-5.1-15.7l-1.9-2.6H22
		c0.8,0,1.5-0.7,1.5-1.5c0-0.8-0.7-1.5-1.5-1.5h0.1l2.6-4.3c0.6-0.1,1.2,0.1,1.6,0.6c0.2,0.2,0.4,0.3,0.7,0.4l-2,3.3h-0.1
		c0.8,0,1.5,0.7,1.5,1.5c0,0.9-0.7,1.5-1.5,1.5H25l1.9,2.6C30.3,21.4,32.1,26.9,32.1,32.6z"/>
	<path class="st1" d="M25,14.3H13.9L12,16.9c-3.3,4.6-5.1,10.1-5.1,15.7v1.3c0,2.6,2.1,4.7,4.7,4.7h15.8c2.6,0,4.7-2.1,4.7-4.7v-1.3
		c0-5.7-1.8-11.2-5.1-15.7L25,14.3z"/>
	<path class="st1" d="M25.5,11.2H13.4c-0.5,0-0.9,0.4-0.9,0.9v1.3c0,0.5,0.4,0.9,0.9,0.9h12.1c0.5,0,0.9-0.4,0.9-0.9v-1.3
		C26.4,11.6,26,11.2,25.5,11.2z"/>
	<path class="st1" d="M27,7.9l-2,3.3H13.9l-2-3.3c0.2-0.1,0.5-0.2,0.7-0.4C13,7.1,13.5,6.9,14,6.9c0.5,0,1,0.2,1.4,0.6
		c0.4,0.4,0.9,0.6,1.4,0.6c0.5,0,1-0.2,1.4-0.6c0.8-0.8,2-0.8,2.7,0c0.8,0.8,2,0.8,2.7,0c0.3-0.3,0.7-0.5,1.1-0.6
		c0.6-0.1,1.2,0.1,1.6,0.6C26.5,7.7,26.7,7.8,27,7.9z"/>
	<path class="st2" d="M33.1,12.7"/>
	<g>
		<rect x="29.1" y="35.7" class="st3" width="9.4" height="2.9"/>
		<rect x="35.9" y="35.7" class="st0" width="2.6" height="2.9"/>
	</g>
	<g>
		<rect x="27.4" y="32.8" class="st3" width="9.4" height="2.9"/>
		<rect x="34.3" y="32.8" class="st0" width="2.6" height="2.9"/>
	</g>
	<g>
		<rect x="29.6" y="29.9" class="st3" width="9.4" height="2.9"/>
		<rect x="36.4" y="29.9" class="st0" width="2.6" height="2.9"/>
	</g>
	<text transform="matrix(1 0 0 1 13.7243 30.3695)" class="st4 st5 st6">￦</text>
</g>
</svg>
