<?xml version="1.0" encoding="iso-8859-1"?>
<!-- Generator: Adobe Illustrator 26.0.3, SVG Export Plug-In . SVG Version: 6.00 Build 0)  -->
<svg version="1.2" baseProfile="tiny" id="Layer_1" xmlns="http://www.w3.org/2000/svg" xmlns:xlink="http://www.w3.org/1999/xlink"
	 x="0px" y="0px" width="20px" height="20px" viewBox="0 0 20 20" overflow="visible" xml:space="preserve">
<g id="ic_menu_sns2">
	<g id="&#xADF8;&#xB8F9;_9339">
		<path id="&#xC0AC;&#xAC01;&#xD615;_11745" fill="none" d="M1,2h18v18H1V2z"/>
		<path id="&#xBE7C;&#xAE30;_164" fill="#231815" d="M10,2.2c-4.6,0-8.4,3.5-8.4,7.7c-0.1,2.4,1.1,4.7,3.1,6l0,0v3.7
			c0,0.1,0.1,0.2,0.2,0.2l0,0H5l3.2-2.4h0.1c0.5,0.1,1.1,0.2,1.6,0.1c4.6,0,8.4-3.5,8.4-7.7S14.6,2.2,10,2.2 M7.2,11.9
			c0.8,0,1.5-0.5,1.7-1.2h1.2C9.9,12,8.7,13,7.2,13c-1.7,0-3.1-1.3-3.1-3l0,0V9.9c0-1.7,1.3-3.1,3-3.1l0,0h0.1c1.5-0.1,2.8,1,3,2.5
			H9C8.8,8.4,8,7.8,7.2,7.9c-1-0.1-1.9,0.7-2,1.8l0,0c0,0.1,0,0.1,0,0.2C5.2,11,6,11.9,7.2,11.9C7.1,11.9,7.1,11.9,7.2,11.9
			L7.2,11.9 M15.2,12.9h-1.1v-2.5c0-0.4-0.3-0.8-0.7-0.9h-0.1c-0.6,0-1,0.4-1,1.1v2.3h-1.1V6.8h1.1v2.3c0.3-0.4,0.8-0.6,1.3-0.6
			c0.4,0,0.9,0.2,1.2,0.5c0.3,0.4,0.5,0.8,0.5,1.3L15.2,12.9z"/>
	</g>
	<path id="&#xC0AC;&#xAC01;&#xD615;_14072" fill="none" d="M0,0h20v20H0V0z"/>
</g>
</svg>
