<?xml version="1.0" encoding="utf-8"?>
<!-- Generator: Adobe Illustrator 26.1.0, SVG Export Plug-In . SVG Version: 6.00 Build 0)  -->
<svg version="1.1" id="ic-my-view-3" xmlns="http://www.w3.org/2000/svg" xmlns:xlink="http://www.w3.org/1999/xlink" x="0px"
	 y="0px" viewBox="0 0 36 36" style="enable-background:new 0 0 36 36;" xml:space="preserve">
<style type="text/css">
	.st0{fill:#7DEDF3;}
	.st1{fill:none;stroke:#252D32;stroke-width:1.5;stroke-linecap:round;stroke-linejoin:round;stroke-miterlimit:10;}
	.st2{fill:#FFFFFF;}
	.st3{fill:#FFFFFF;stroke:#252D32;stroke-width:1.5;stroke-miterlimit:10;}
	.st4{fill:none;stroke:#252D32;stroke-width:1.5;stroke-miterlimit:10;}
	.st5{fill:#252D32;stroke:#252D32;stroke-width:0.5;stroke-miterlimit:10;}
</style>
<ellipse transform="matrix(0.9999 -1.510711e-02 1.510711e-02 0.9999 -0.2145 0.2736)" class="st0" cx="18" cy="14.3" rx="9.5" ry="6.7"/>
<line class="st1" x1="23" y1="3.5" x2="9.2" y2="17.2"/>
<line class="st1" x1="26.8" y1="8.4" x2="10.7" y2="19.4"/>
<path class="st2" d="M14.7,29.1c-0.6,0-1.3,0.1-2,0.1c0,0.4,0,2.8,0,3.3c3.3,0,6.7,0,10,0c0-0.4,0-2.9,0-3.3c-0.9,0-1.9,0-2.8,0
	C18.2,29.1,16.5,29.1,14.7,29.1z"/>
<path class="st2" d="M11.3,27.1c0.3,0.2,0.6,0.3,0.8,0.5c0.1,0,0.2,0.1,0.2,0.1c1.3,0,2.5,0,3.8,0c2.4,0,4.8,0,7.3,0
	c3.9-1.9,6.5-5.7,6.8-10.1c-0.8,0-1.7,0-2.5,0c-7.4,0-14.7,0-22.1,0c0.2,2.6,1.2,5.1,2.9,7.1C9.3,25.7,10.2,26.5,11.3,27.1z"/>
<path class="st3" d="M18,29h5.3c4.6-1.3,6.6-5.9,7.6-9c1-3.1-0.3-3.1-0.3-3.1s-12.6,0-12.6,0H5.4c0,0-1.3,0-0.3,3.1s3,7.7,7.6,9
	C12.7,29,18,29,18,29z"/>
<rect x="12.7" y="29" class="st4" width="10" height="4.2"/>
<path class="st5" d="M26.1,21.8c0.2-0.2,0.2-0.5,0-0.8l0,0c-0.3-0.4-0.9-0.4-1.1,0.1c-0.8,1.2-1.9,2.2-3,3c-0.2,0.1-0.4,0.4-0.4,0.6
	c0,0.5,0.5,0.8,1,0.5C24,24.3,25.2,23.2,26.1,21.8z"/>
</svg>
