<?xml version="1.0" encoding="iso-8859-1"?>
<!-- Generator: Adobe Illustrator 26.0.3, SVG Export Plug-In . SVG Version: 6.00 Build 0)  -->
<svg version="1.1" id="Layer_1" xmlns="http://www.w3.org/2000/svg" xmlns:xlink="http://www.w3.org/1999/xlink" x="0px" y="0px"
	 width="20px" height="20px" viewBox="0 0 20 20" style="enable-background:new 0 0 20 20;" xml:space="preserve">
<style type="text/css">
	.st0{fill:none;}
	.st1{fill:#ED3023;}
</style>
<g id="ic_menu_sns4" transform="translate(-149 -639)">
	<g id="&#xADF8;&#xB8F9;_9338" transform="translate(8035 11179)">
		<path id="&#xC0AC;&#xAC01;&#xD615;_11747" class="st0" d="M-7884-10538h16v16h-16V-10538z"/>
		<path id="&#xBE7C;&#xAE30;_162" class="st1" d="M-7876-10524.6c-2.1,0-4.2-0.1-6.3-0.3c-0.7-0.2-1.2-0.7-1.4-1.4
			c-0.2-1.2-0.3-2.5-0.3-3.7s0.1-2.5,0.3-3.7c0.2-0.7,0.7-1.2,1.4-1.4c2.1-0.2,4.2-0.3,6.3-0.3c2.1,0,4.2,0.1,6.3,0.3
			c0.7,0.2,1.2,0.7,1.4,1.4c0.2,1.2,0.3,2.5,0.3,3.7s-0.1,2.5-0.3,3.7c-0.2,0.7-0.7,1.2-1.4,1.4
			C-7871.8-10524.7-7873.9-10524.6-7876-10524.6z M-7877.6-10532.3v4.6l4.2-2.3L-7877.6-10532.3z"/>
	</g>
	<path id="&#xC0AC;&#xAC01;&#xD615;_14074" class="st0" d="M149,639h20v20h-20V639z"/>
</g>
</svg>
