<?xml version="1.0" encoding="iso-8859-1"?>
<!-- Generator: Adobe Illustrator 26.0.3, SVG Export Plug-In . SVG Version: 6.00 Build 0)  -->
<svg version="1.1" id="Layer_1" xmlns="http://www.w3.org/2000/svg" xmlns:xlink="http://www.w3.org/1999/xlink" x="0px" y="0px"
	 width="20px" height="20px" viewBox="0 0 20 20" style="enable-background:new 0 0 20 20;" xml:space="preserve">
<style type="text/css">
	.st0{fill:#FFFFFF;}
	.st1{fill:none;}
</style>
<path class="st0" d="M13.7,10.9L14.1,8h-2.8V6.2c-0.1-0.8,0.5-1.5,1.3-1.6c0.1,0,0.2,0,0.3,0h1.2V2.2C13.5,2.1,12.8,2,12,2
	c-1.9-0.1-3.6,1.3-3.8,3.2c0,0.2,0,0.4,0,0.6V8H5.7v2.9h2.5v6.9c1,0.2,2.1,0.2,3.1,0v-6.9H13.7z"/>
<path class="st1" d="M0,0h20v20H0V0z"/>
</svg>
