<svg xmlns="http://www.w3.org/2000/svg" width="40" height="40" viewBox="0 0 40 40">
  <g id="그룹_15076" data-name="그룹 15076" transform="translate(-303 -2659)">
    <g id="그룹_15075" data-name="그룹 15075">
      <g id="ic-travel" transform="translate(63 1552)">
        <g id="사각형_16262" data-name="사각형 16262" transform="translate(240 1107)" fill="#fff" stroke="#707070" stroke-width="1" opacity="0">
          <rect width="40" height="40" stroke="none"/>
          <rect x="0.5" y="0.5" width="39" height="39" fill="none"/>
        </g>
        <g id="사각형_14416" data-name="사각형 14416" transform="translate(253.24 1138.4)" fill="#fff" stroke="#2d3239" stroke-width="1.5">
          <path d="M0,0H4.507a0,0,0,0,1,0,0V2.254A2.254,2.254,0,0,1,2.254,4.507h0A2.254,2.254,0,0,1,0,2.254V0A0,0,0,0,1,0,0Z" stroke="none"/>
          <path d="M.75.75H3.757a0,0,0,0,1,0,0v1.5a1.5,1.5,0,0,1-1.5,1.5h0a1.5,1.5,0,0,1-1.5-1.5V.75A0,0,0,0,1,.75.75Z" fill="none"/>
        </g>
        <g id="사각형_14423" data-name="사각형 14423" transform="translate(262.253 1138.4)" fill="#fff" stroke="#2d3239" stroke-width="1.5">
          <path d="M0,0H4.507a0,0,0,0,1,0,0V2.254A2.254,2.254,0,0,1,2.254,4.507h0A2.254,2.254,0,0,1,0,2.254V0A0,0,0,0,1,0,0Z" stroke="none"/>
          <path d="M.75.75H3.757a0,0,0,0,1,0,0v1.5a1.5,1.5,0,0,1-1.5,1.5h0a1.5,1.5,0,0,1-1.5-1.5V.75A0,0,0,0,1,.75.75Z" fill="none"/>
        </g>
        <g id="사각형_16261" data-name="사각형 16261" transform="translate(244 1111)" fill="#fff" stroke="#707070" stroke-width="1" opacity="0">
          <rect width="32" height="32" stroke="none"/>
          <rect x="0.5" y="0.5" width="31" height="31" fill="none"/>
        </g>
        <g id="사각형_14415" data-name="사각형 14415" transform="translate(254.592 1111)" fill="none" stroke="#2d3239" stroke-width="1.5">
          <path d="M5,0h.817a5,5,0,0,1,5,5V9.014a0,0,0,0,1,0,0H0a0,0,0,0,1,0,0V5A5,5,0,0,1,5,0Z" stroke="none"/>
          <path d="M5,.75h.817A4.25,4.25,0,0,1,10.067,5V8.264a0,0,0,0,1,0,0H.75a0,0,0,0,1,0,0V5A4.25,4.25,0,0,1,5,.75Z" fill="none"/>
        </g>
        <rect id="사각형_14419" data-name="사각형 14419" width="17.945" height="20.732" rx="4" transform="translate(250.618 1118.211)" fill="#fff"/>
        <path id="빼기_327" data-name="빼기 327" d="M14.846,20.732H4A4,4,0,0,1,.007,16.964a4,4,0,0,0,3.051,1.412h9.9a4,4,0,0,0,4-4v-9.9a4,4,0,0,0-4-4h-9.9a3.994,3.994,0,0,0-1.3.216A3.979,3.979,0,0,1,4,0H14.846a4,4,0,0,1,4,4V16.732A4,4,0,0,1,14.846,20.732Z" transform="translate(250.618 1119.114)" fill="#7dedf3"/>
        <g id="사각형_14414" data-name="사각형 14414" transform="translate(249.183 1118.211)" fill="none" stroke="#2d3239" stroke-width="1.5">
          <rect width="21.634" height="21.634" rx="5" stroke="none"/>
          <rect x="0.75" y="0.75" width="20.134" height="20.134" rx="4.25" fill="none"/>
        </g>
        <rect id="사각형_14418" data-name="사각형 14418" width="1.5" height="10.817" rx="0.75" transform="translate(264.082 1123.62)" fill="#2d3239"/>
        <rect id="사각형_17436" data-name="사각형 17436" width="1.5" height="10.817" rx="0.75" transform="translate(259.2 1123.62)" fill="#2d3239"/>
        <rect id="사각형_17437" data-name="사각형 17437" width="1.5" height="10.817" rx="0.75" transform="translate(254.3 1123.62)" fill="#2d3239"/>
      </g>
      <g id="그룹_12718" data-name="그룹 12718" transform="matrix(0.985, 0.174, -0.174, 0.985, 423.632, 1919.838)">
        <path id="패스_12239" data-name="패스 12239" d="M6.112,11.107H1.222A1.178,1.178,0,0,1,0,9.978V3.143A1.1,1.1,0,0,1,.409,2.3L2.854.286a1.3,1.3,0,0,1,1.627,0L6.925,2.3a1.1,1.1,0,0,1,.409.844V9.978A1.178,1.178,0,0,1,6.112,11.107Z" transform="translate(38.578 770.128) rotate(-45)" fill="#fff"/>
        <path id="패스_12238" data-name="패스 12238" d="M6.112,11.107H1.222A1.178,1.178,0,0,1,0,9.978V3.143A1.1,1.1,0,0,1,.409,2.3L2.854.286a1.3,1.3,0,0,1,1.627,0L6.925,2.3a1.1,1.1,0,0,1,.409.844V9.978A1.178,1.178,0,0,1,6.112,11.107Z" transform="translate(37.152 771.383) rotate(-45)" fill="#7dedf3"/>
        <path id="패스_12236" data-name="패스 12236" d="M6.112,11.107H1.222A1.178,1.178,0,0,1,0,9.978V3.143A1.1,1.1,0,0,1,.409,2.3L2.854.286a1.3,1.3,0,0,1,1.627,0L6.925,2.3a1.1,1.1,0,0,1,.409.844V9.978A1.178,1.178,0,0,1,6.112,11.107Z" transform="translate(38.578 770.128) rotate(-45)" fill="none" stroke="#2d3239" stroke-linecap="round" stroke-miterlimit="10" stroke-width="1.5"/>
        <g id="패스_12292" data-name="패스 12292" transform="translate(41.616 769.462) rotate(-45)" fill="none">
          <path d="M1.048,0A1.048,1.048,0,1,1,0,1.048,1.048,1.048,0,0,1,1.048,0Z" stroke="none"/>
          <path d="M 1.047744512557983 4.529953002929688e-06 C 1.626394510269165 4.529953002929688e-06 2.095484495162964 0.4690945148468018 2.095484495162964 1.047744512557983 C 2.095484495162964 1.626394510269165 1.626394510269165 2.095484495162964 1.047744512557983 2.095484495162964 C 0.4690945148468018 2.095484495162964 4.529953002929688e-06 1.626394510269165 4.529953002929688e-06 1.047744512557983 C 4.529953002929688e-06 0.4690945148468018 0.4690945148468018 4.529953002929688e-06 1.047744512557983 4.529953002929688e-06 Z" stroke="none" fill="#2d3239"/>
        </g>
      </g>
    </g>
  </g>
</svg>
