<svg width="16" height="16" viewBox="0 0 16 16" xmlns="http://www.w3.org/2000/svg" xmlns:xlink="http://www.w3.org/1999/xlink">
    <defs>
        <path id="j2vn5637ta" d="M0 0h14.932v7.723H0z"/>
    </defs>
    <g fill="none" fill-rule="evenodd">
        <path fill="#091F2C" d="m11.814 6.65-4.507 3.835-3.126-1.137 4.505-3.834 2.907 1.056z"/>
        <g transform="translate(.532 6.941)">
            <mask id="s3r26hre3b" fill="#fff">
                <use xlink:href="#j2vn5637ta"/>
            </mask>
            <path d="M14.932 1.032 7.578 7.29a1.809 1.809 0 0 1-1.791.325L0 5.51l2.84-2.416 3.935 1.43L12.092 0l2.84 1.032z" fill="#0047A0" mask="url(#s3r26hre3b)"/>
        </g>
        <path d="m15.464 3.542-.81.69-2.84 2.416-.22-.08-2.908-1.055L4.18 9.347 1.34 8.314l-.808-.293L3.612 5.4l4.27-3.634a1.808 1.808 0 0 1 1.79-.324l1.92.697.743.269 3.129 1.135z" fill="#CD2E3A"/>
    </g>
</svg>
