<svg width="10" height="14" viewBox="0 0 10 14" xmlns="http://www.w3.org/2000/svg">
    <g fill-rule="nonzero" fill="none">
        <path d="M.646.646a.5.5 0 0 0-.057.638l.057.07 4 4a.5.5 0 0 0 .638.057l.07-.057 4-4a.5.5 0 0 0-.638-.765l-.07.057L5 4.293 1.354.646A.5.5 0 0 0 .716.59l-.07.057z" fill="#CCC"/>
        <path d="M.646 8.646a.5.5 0 0 0-.057.638l.057.07 4 4a.5.5 0 0 0 .638.057l.07-.057 4-4a.5.5 0 0 0-.638-.765l-.07.057L5 12.293 1.354 8.646a.5.5 0 0 0-.638-.057l-.07.057z" fill="#A2A2A2"/>
    </g>
</svg>
