<svg width="24" height="24" viewBox="0 0 24 24" xmlns="http://www.w3.org/2000/svg">
    <g fill="none" fill-rule="evenodd">
        <path d="M6.833 2.333h7.334A3.333 3.333 0 0 1 17.5 5.667v16h-12a2 2 0 0 1-2-2v-14a3.333 3.333 0 0 1 3.333-3.334z" fill="#FFF" fill-rule="nonzero"/>
        <path d="M6.833 2.833h7.334A2.833 2.833 0 0 1 17 5.667v15.5H5.5a1.5 1.5 0 0 1-1.5-1.5v-14a2.833 2.833 0 0 1 2.833-2.834z" stroke="#2D3239"/>
        <path d="M16.5 11h.667a3.333 3.333 0 0 1 3.333 3.333v5.334a2 2 0 0 1-2 2h-2V11z" fill="#FFF" fill-rule="nonzero"/>
        <path d="M17 11.5h.167A2.833 2.833 0 0 1 20 14.333v5.334a1.5 1.5 0 0 1-1.5 1.5H17V11.5z" stroke="#2D3239"/>
        <g transform="translate(6.5 6)">
            <rect width="3.333" height="3.333" rx="1.667"/>
            <rect stroke="#2D3239" x=".5" y=".5" width="2.333" height="2.333" rx="1.167"/>
        </g>
        <g transform="translate(6.5 10.333)">
            <rect width="3.333" height="3.333" rx="1.667"/>
            <rect stroke="#2D3239" x=".5" y=".5" width="2.333" height="2.333" rx="1.167"/>
        </g>
        <g transform="translate(11.167 6)">
            <rect width="3.333" height="3.333" rx="1.667"/>
            <rect stroke="#2D3239" x=".5" y=".5" width="2.333" height="2.333" rx="1.167"/>
        </g>
        <g transform="translate(11.167 10.333)">
            <rect width="3.333" height="3.333" rx="1.667"/>
            <rect stroke="#2D3239" x=".5" y=".5" width="2.333" height="2.333" rx="1.167"/>
        </g>
        <path d="M11.5 15.333h.333a2 2 0 0 1 2 2v4.334H9.5v-4.334a2 2 0 0 1 2-2z" fill="#7DEDF3" fill-rule="nonzero"/>
        <g>
            <path d="M9.833 15.333h1.334a2 2 0 0 1 2 2v4.334H7.833v-4.334a2 2 0 0 1 2-2z"/>
            <path d="M9.833 15.833h1.334a1.5 1.5 0 0 1 1.5 1.5v3.834H8.333v-3.834a1.5 1.5 0 0 1 1.5-1.5z" stroke="#2D3239"/>
        </g>
    </g>
</svg>
