<svg width="24" height="24" viewBox="0 0 24 24" xmlns="http://www.w3.org/2000/svg">
    <g fill="none" fill-rule="evenodd">
        <path fill="#FFF" fill-rule="nonzero" d="M12 2.667 20 10H4z"/>
        <path d="M5.333 9h13.334C19.403 9 20 9.597 20 10.333v8a3.333 3.333 0 0 1-3.333 3.334H7.333A3.333 3.333 0 0 1 4 18.333v-8C4 9.597 4.597 9 5.333 9z" fill="#FFF" fill-rule="nonzero"/>
        <path d="M17.235 21.692H7.554a3.338 3.338 0 0 1-3.267-2.687c.425.188.884.285 1.348.284h10.049a2 2 0 0 0 2-2V8.26a3.343 3.343 0 0 1 2.885 3.305v6.794a3.337 3.337 0 0 1-3.334 3.333z" fill="#7DEDF3" fill-rule="nonzero"/>
        <path d="M16.665 21.665H7.332a3.337 3.337 0 0 1-3.333-3.333v-8c0-.608.411-1.139 1-1.29v9.29a2.333 2.333 0 0 0 2.333 2.333h9.333A2.333 2.333 0 0 0 19 18.332v-9.29c.588.151 1 .682 1 1.29v8a3.337 3.337 0 0 1-3.334 3.333z"/>
        <path d="M16.666 21.667H7.333A3.337 3.337 0 0 1 4 18.333v-8c0-.61.411-1.14 1-1.292v9.292a2.336 2.336 0 0 0 2.333 2.333h9.333A2.336 2.336 0 0 0 19 18.333V9.04c.589.152 1 .683 1 1.292v8a3.337 3.337 0 0 1-3.334 3.334z" fill="#2D3239" fill-rule="nonzero"/>
        <path d="M12.38 2.716a.5.5 0 0 1-.062.705l-9.959 8.356a.5.5 0 1 1-.643-.766l9.959-8.356a.5.5 0 0 1 .704.061z" fill="#2D3239" fill-rule="nonzero"/>
        <path d="M11.655 2.717a.5.5 0 0 1 .704-.062l9.959 8.357a.5.5 0 1 1-.643.766L11.716 3.42a.5.5 0 0 1-.061-.704z" fill="#2D3239" fill-rule="nonzero"/>
        <rect stroke="#2D3239" x="10.499" y="8.76" width="3" height="3" rx="1.37"/>
        <path d="M13 15.3h.333a2 2 0 0 1 2 2v4.333H11V17.3a2 2 0 0 1 2-2z" fill="#7DEDF3" fill-rule="nonzero"/>
        <g>
            <path d="M11.332 15.3h1.334a2 2 0 0 1 2 2v4.333H9.332V17.3a2 2 0 0 1 2-2z"/>
            <path d="M11.332 15.8h1.334a1.5 1.5 0 0 1 1.5 1.5v3.833H9.832V17.3a1.5 1.5 0 0 1 1.5-1.5z" stroke="#2D3239"/>
        </g>
    </g>
</svg>
