<svg width="44" height="44" viewBox="0 0 44 44" xmlns="http://www.w3.org/2000/svg">
    <g fill="none" fill-rule="evenodd">
        <g transform="translate(5 10)">
            <rect fill="#FFF" fill-rule="nonzero" width="30" height="24" rx="5"/>
            <rect stroke="#2D3239" stroke-width="1.5" x=".75" y=".75" width="28.5" height="22.5" rx="4.25"/>
        </g>
        <g transform="translate(23.51 14.917)">
            <path d="M6.27.983a2 2 0 0 1 3.439 0l5.987 10.083a2 2 0 0 1-1.72 3.017H2.004a2 2 0 0 1-1.72-3.021L6.27.982z" fill="#FFF" fill-rule="nonzero"/>
            <path d="M8.77 2.983a2 2 0 0 1 3.439 0l5.987 10.083a2 2 0 0 1-1.72 3.017H4.504a2 2 0 0 1-1.72-3.021L8.77 2.982z" fill="#7DEDF3" fill-rule="nonzero"/>
            <path d="M6.27.983a2 2 0 0 1 3.439 0l5.987 10.083a2 2 0 0 1-1.72 3.017H2.004a2 2 0 0 1-1.72-3.021L6.27.982z"/>
            <path d="M7.99 1.5a.485.485 0 0 0-.43.245L1.573 11.827a.484.484 0 0 0-.004.503.484.484 0 0 0 .434.253h11.973c.253 0 .38-.159.435-.253a.484.484 0 0 0-.005-.503L8.42 1.745a.485.485 0 0 0-.43-.245m0-1.5c.666 0 1.332.326 1.72.979l5.986 10.082c.791 1.334-.17 3.022-1.72 3.022H2.003c-1.55 0-2.511-1.688-1.72-3.022L6.27.98A1.982 1.982 0 0 1 7.99 0z" fill="#2D3239" fill-rule="nonzero"/>
            <g transform="rotate(180 4.37 4.416)">
                <rect width="1.5" height="4.25" rx=".75"/>
                <rect stroke="#2D3239" x=".5" y=".5" width="1" height="3.25" rx=".25"/>
            </g>
            <circle fill="#2D3239" fill-rule="nonzero" cx="7.99" cy="10.583" r="1"/>
        </g>
        <rect fill="#7DEDF3" fill-rule="nonzero" x="11.376" y="20.876" width="4.504" height="4.504" rx="1.5"/>
        <g transform="translate(9.5 19)">
            <rect width="6.005" height="6.005" rx="2"/>
            <rect stroke="#2D3239" stroke-width="1.5" x=".75" y=".75" width="4.505" height="4.505" rx="1.25"/>
        </g>
    </g>
</svg>
