<svg width="44" height="44" viewBox="0 0 44 44" xmlns="http://www.w3.org/2000/svg">
    <g fill="none" fill-rule="evenodd">
        <path fill="none" d="M0 0h44v44H0z"/>
        <g transform="translate(7 14.563)">
            <rect fill="#FFF" fill-rule="nonzero" width="25.38" height="19.85" rx="5"/>
            <rect stroke="#2D3239" stroke-width="1.5" x=".75" y=".75" width="23.88" height="18.35" rx="4.25"/>
        </g>
        <path d="M19.689 5a6.845 6.845 0 0 1 6.845 6.845V16h-13.69v-4.155A6.845 6.845 0 0 1 19.689 5z"/>
        <path d="M19.689 5.75a6.095 6.095 0 0 1 6.095 6.095v3.405h-12.19v-3.405a6.095 6.095 0 0 1 6.095-6.095z" stroke="#2D3239" stroke-width="1.5"/>
        <path d="M22.828 26.4c.344-.994 6.613-3.4 7.602-3.4.989 0 7.128 2.711 7.6 3.4.472.689-.449 5.952-1.788 8.5S31.598 40 30.43 40c-1.168 0-4.51-2.745-5.81-5.1-1.3-2.355-2.136-7.506-1.792-8.5z" fill="#FFF" fill-rule="nonzero"/>
        <path d="M26.007 26.719c.309-.933 5.929-3.188 6.816-3.188.887 0 6.39 2.541 6.815 3.188.425.647-.4 5.58-1.6 7.969-1.2 2.389-4.444 4.781-5.211 4.781-.767 0-4.049-2.574-5.22-4.782-1.171-2.208-1.909-7.036-1.6-7.968z" fill="#7DEDF3" fill-rule="nonzero"/>
        <path stroke="#2D3239" stroke-width="1.5" stroke-linecap="round" stroke-linejoin="round" d="m27.797 30.862 2.192 2.232 3.651-3.719"/>
        <path d="M22.828 26.4c.344-.994 6.613-3.4 7.602-3.4.989 0 7.128 2.711 7.6 3.4.472.689-.449 5.952-1.788 8.5S31.598 40 30.43 40c-1.168 0-4.51-2.745-5.81-5.1-1.3-2.355-2.136-7.506-1.792-8.5z"/>
        <path d="M30.418 24.509c-.379.071-1.573.43-3.226 1.108-1.7.698-2.58 1.2-2.942 1.45-.005.474.071 1.509.369 2.993.343 1.711.834 3.25 1.312 4.115.475.86 1.386 1.93 2.435 2.86 1.014.897 1.772 1.33 2.074 1.445.303-.106 1.052-.513 2.035-1.366 1.063-.923 1.952-1.985 2.44-2.912.487-.928.99-2.473 1.347-4.135.298-1.394.389-2.357.395-2.839-.484-.293-1.5-.822-2.936-1.457-1.71-.757-2.91-1.176-3.303-1.262M30.43 23c.989 0 7.128 2.71 7.6 3.4.474.69-.448 5.952-1.788 8.5S31.598 40 30.43 40c-1.168 0-4.512-2.745-5.812-5.1-1.301-2.355-2.134-7.506-1.79-8.5.344-.994 6.613-3.4 7.602-3.4z" fill="#2D3239" fill-rule="nonzero"/>
        <g transform="translate(16.689 19)">
            <circle cx="3" cy="3" r="3"/>
            <circle stroke="#2D3239" stroke-width="1.5" cx="3" cy="3" r="2.25"/>
        </g>
        <path stroke="#2D3239" stroke-width="1.5" stroke-linecap="round" d="M19.689 24.5v4"/>
    </g>
</svg>
