<svg width="44" height="44" viewBox="0 0 44 44" xmlns="http://www.w3.org/2000/svg">
    <g fill="none" fill-rule="evenodd">
        <g>
            <g transform="translate(5 10)">
                <rect fill="#FFF" fill-rule="nonzero" width="30" height="24" rx="5"/>
                <rect stroke="#2D3239" stroke-width="1.5" x=".75" y=".75" width="28.5" height="22.5" rx="4.25"/>
            </g>
            <g transform="rotate(90 5.5 25)">
                <rect width="1.5" height="9" rx=".75"/>
                <rect stroke="#2D3239" x=".5" y=".5" width="1" height="8" rx=".25"/>
            </g>
            <g transform="rotate(90 2.75 25.75)">
                <rect width="1.5" height="6" rx=".75"/>
                <rect stroke="#2D3239" x=".5" y=".5" width="1" height="5" rx=".25"/>
            </g>
            <g transform="translate(11.75 15.25)">
                <rect width="6.5" height="6.5" rx="3.25"/>
                <rect stroke="#2D3239" stroke-width="1.5" x=".75" y=".75" width="5" height="5" rx="2.5"/>
            </g>
            <path d="M13.5 22.5h3a4 4 0 0 1 4 4v3h-11v-3a4 4 0 0 1 4-4z"/>
            <path d="M13.5 23.25h3a3.25 3.25 0 0 1 3.25 3.25v2.25h-9.5V26.5a3.25 3.25 0 0 1 3.25-3.25z" stroke="#2D3239" stroke-width="1.5"/>
            <path fill="#FFF" fill-rule="nonzero" d="M9.5 27h11v3h-11z"/>
            <rect fill="#2D3239" fill-rule="nonzero" x="9.5" y="26" width="1.5" height="2" rx=".75"/>
            <rect fill="#2D3239" fill-rule="nonzero" x="19" y="26" width="1.5" height="2" rx=".75"/>
        </g>
        <g transform="translate(27.5 13)">
            <rect fill="#FFF" fill-rule="nonzero" y="5.5" width="14" height="12" rx="4"/>
            <rect fill="#7DEDF3" fill-rule="nonzero" x="2" y="7.5" width="13" height="11" rx="4"/>
            <g transform="translate(0 5.5)">
                <rect width="14" height="12" rx="4"/>
                <rect stroke="#2D3239" stroke-width="1.5" x=".75" y=".75" width="12.5" height="10.5" rx="3.25"/>
            </g>
            <path d="M7 0a4 4 0 0 1 4 4v3H3V4a4 4 0 0 1 4-4z" fill="#FFF" fill-rule="nonzero"/>
            <path d="M7 .75A3.25 3.25 0 0 1 10.25 4v2.25h-6.5V4A3.25 3.25 0 0 1 7 .75z" stroke="#2D3239" stroke-width="1.5"/>
            <rect fill="#2D3239" fill-rule="nonzero" x="6.25" y="10" width="1.5" height="3" rx=".75"/>
        </g>
    </g>
</svg>
