<svg width="44" height="44" viewBox="0 0 44 44" xmlns="http://www.w3.org/2000/svg">
    <g transform="translate(2.25 7.5)" fill="none" fill-rule="evenodd">
        <rect fill="#FFF" fill-rule="nonzero" width="30" height="24" rx="5"/>
        <rect stroke="#2D3239" stroke-width="1.5" x=".75" y=".75" width="28.5" height="22.5" rx="4.25"/>
        <g transform="rotate(90 8 17.5)">
            <rect width="1.5" height="9" rx=".75"/>
            <rect stroke="#2D3239" x=".5" y=".5" width="1" height="8" rx=".25"/>
        </g>
        <g transform="rotate(90 5.25 18.25)">
            <rect width="1.5" height="6" rx=".75"/>
            <rect stroke="#2D3239" x=".5" y=".5" width="1" height="5" rx=".25"/>
        </g>
        <g transform="translate(6.75 5.25)">
            <rect width="6.5" height="6.5" rx="3.25"/>
            <rect stroke="#2D3239" stroke-width="1.5" x=".75" y=".75" width="5" height="5" rx="2.5"/>
        </g>
        <path d="M8.5 12.5h3a4 4 0 0 1 4 4v3h-11v-3a4 4 0 0 1 4-4z"/>
        <path d="M8.5 13.25h3a3.25 3.25 0 0 1 3.25 3.25v2.25h-9.5V16.5a3.25 3.25 0 0 1 3.25-3.25z" stroke="#2D3239" stroke-width="1.5"/>
        <path fill="#FFF" fill-rule="nonzero" d="M4.5 17h11v3h-11z"/>
        <rect fill="#2D3239" fill-rule="nonzero" x="4.5" y="16" width="1.5" height="2" rx=".75"/>
        <rect fill="#2D3239" fill-rule="nonzero" x="14" y="16" width="1.5" height="2" rx=".75"/>
        <g transform="translate(22.5 13)">
            <circle fill="#FFF" fill-rule="nonzero" cx="8" cy="8" r="8"/>
            <path d="M10 1.5a7 7 0 1 1 0 14 7 7 0 0 1 0-14z" fill="#7DEDF3" fill-rule="nonzero"/>
            <circle cx="8" cy="8" r="8"/>
            <circle stroke="#2D3239" stroke-width="1.5" cx="8" cy="8" r="7.25"/>
            <path d="M8 4a.75.75 0 0 1 .75.75v4.5a.75.75 0 0 1-1.5 0v-4.5A.75.75 0 0 1 8 4z" fill="#2D3239" fill-rule="nonzero"/>
            <circle fill="#2D3239" cx="8" cy="11.75" r="1"/>
        </g>
    </g>
</svg>
