<svg width="44" height="44" viewBox="0 0 44 44" xmlns="http://www.w3.org/2000/svg">
    <g fill="none" fill-rule="evenodd">
        <g transform="translate(10 4)">
            <rect fill="#FFF" fill-rule="nonzero" width="20" height="32" rx="5.5"/>
            <rect stroke="#2D3239" stroke-width="1.5" x=".75" y=".75" width="18.5" height="30.5" rx="4.75"/>
        </g>
        <path fill="#2D3239" fill-rule="nonzero" d="M11.338 29.752h14.447v1.605H11.338zM11.069 8.815h18.93v1.605h-18.93z"/>
        <g transform="translate(21 24)">
            <circle fill="#FFF" fill-rule="nonzero" cx="8" cy="8" r="8"/>
            <path d="M10 1.5a7 7 0 1 1 0 14 7 7 0 0 1 0-14z" fill="#7DEDF3" fill-rule="nonzero"/>
            <circle cx="8" cy="8" r="8"/>
            <circle stroke="#2D3239" stroke-width="1.5" cx="8" cy="8" r="7.25"/>
            <path d="M5.85 5.418c.25-.005.5.03.739.105.187.059.36.154.511.28.13.111.23.252.294.41.063.154.095.32.095.486v.077c0 .266-.064.529-.186.766a2.863 2.863 0 0 1-.543.724L5.283 9.73h2.121a.272.272 0 0 1 .238.109c.052.077.08.168.077.261a.442.442 0 0 1-.077.263.272.272 0 0 1-.238.109H4.737a.772.772 0 0 1-.487-.119.441.441 0 0 1-.143-.364.4.4 0 0 1 .059-.21c.05-.078.107-.15.172-.217l1.624-1.638c.111-.11.217-.225.315-.346.072-.089.135-.184.189-.284a.953.953 0 0 0 .095-.255 1.3 1.3 0 0 0 .025-.255v-.035a.478.478 0 0 0-.178-.382.827.827 0 0 0-.543-.15 1.053 1.053 0 0 0-.525.119 1.325 1.325 0 0 0-.392.357.361.361 0 0 1-.245.154.392.392 0 0 1-.287-.077.445.445 0 0 1-.182-.245.366.366 0 0 1 .063-.308c.16-.234.37-.429.616-.57.286-.16.61-.239.937-.229zm5.173.105a.431.431 0 0 1 .186.238.37.37 0 0 1-.074.322L9.308 8.722h1.449V7.574a.323.323 0 0 1 .133-.287.532.532 0 0 1 .308-.087c.11-.002.217.03.308.091a.323.323 0 0 1 .133.287v1.148h.427a.254.254 0 0 1 .231.109.461.461 0 0 1 .07.256.448.448 0 0 1-.07.248.254.254 0 0 1-.231.109h-.427v.693a.323.323 0 0 1-.133.287.532.532 0 0 1-.308.091.532.532 0 0 1-.308-.096.323.323 0 0 1-.133-.287v-.693h-1.96a.675.675 0 0 1-.423-.105.4.4 0 0 1-.13-.329.411.411 0 0 1 .034-.165c.018-.043.04-.085.063-.126.028-.049.068-.11.119-.186l2.01-2.904a.359.359 0 0 1 .259-.172.458.458 0 0 1 .294.067z" stroke="#2D3239" stroke-width=".5" fill="#2D3239" fill-rule="nonzero"/>
        </g>
        <g transform="rotate(90 2.47 24.478)">
            <rect width="1.5" height="6.771" rx=".75"/>
            <rect stroke="#2D3239" x=".5" y=".5" width="1" height="5.771" rx=".25"/>
        </g>
        <g transform="rotate(90 5.2 21.747)">
            <rect width="1.5" height="6.771" rx=".75"/>
            <rect stroke="#2D3239" x=".5" y=".5" width="1" height="5.771" rx=".25"/>
        </g>
        <path stroke="#2D3239" stroke-width="1.5" stroke-linecap="round" stroke-linejoin="round" d="m13.734 22.566 1.759 1.738 3.183-3.1M13.734 17.16l1.759 1.738 3.183-3.1"/>
    </g>
</svg>
