<svg width="24" height="24" viewBox="0 0 24 24" xmlns="http://www.w3.org/2000/svg">
    <g fill="none" fill-rule="evenodd">
        <path d="M2 2h20v20H2z"/>
        <path d="M12 3a9 9 0 1 1 0 18 9 9 0 0 1 0-18zm0 1.688c-4.032 0-7.313 3.28-7.313 7.312s3.28 7.313 7.313 7.313c4.032 0 7.313-3.28 7.313-7.313 0-4.032-3.28-7.313-7.313-7.313zm-.001 10.088a1.111 1.111 0 1 1 0 2.224 1.111 1.111 0 1 1 0-2.224zm0-7.774c.615 0 1.112.493 1.112 1.11v4.444a1.111 1.111 0 1 1-2.224 0V8.11c0-.616.497-1.109 1.112-1.109z" fill="#888" fill-rule="nonzero"/>
    </g>
</svg>
