<svg width="30" height="30" viewBox="0 0 30 30" xmlns="http://www.w3.org/2000/svg">
    <g fill="none" fill-rule="evenodd">
        <path d="M19.65 2.308h4.416a3.626 3.626 0 0 1 3.626 3.626v4.49h0m0 9.237v4.405a3.626 3.626 0 0 1-3.626 3.626h-4.398m-9.273 0h-4.46a3.626 3.626 0 0 1-3.627-3.626v-4.413m0-9.25V5.935a3.626 3.626 0 0 1 3.626-3.626h4.446" stroke="#FFF" stroke-width="2" stroke-linecap="round" stroke-linejoin="round"/>
        <path d="M8.255 19.462h13.49a1 1 0 0 1 .908.58l.923 2a1 1 0 0 1-.908 1.42H7.332a1 1 0 0 1-.908-1.42l.923-2a1 1 0 0 1 .908-.58z" fill-opacity=".9" fill="#FFF" opacity=".8"/>
        <path stroke="#FFF" stroke-width="2" stroke-linecap="round" stroke-linejoin="round" d="m11.308 11.4 2.885 3.312 5.266-6.347"/>
    </g>
</svg>
