<svg width="30" height="30" viewBox="0 0 30 30" xmlns="http://www.w3.org/2000/svg">
    <g fill="none" fill-rule="evenodd">
        <path d="M8.528 3.776C8.517 9.48 5.224 14.1 1.154 14.135v.026c4.076.036 7.373 4.67 7.373 10.384 0-5.735 3.322-10.384 7.42-10.384l.045.001v-.027l-.046.001c-4.091 0-7.408-4.636-7.418-10.36z" stroke="#FFF" stroke-width="2" stroke-linecap="square" stroke-linejoin="round"/>
        <path d="M29.96 21.589c-3.506 0-6.349-3.747-6.358-8.372-.01 4.608-2.831 8.342-6.32 8.37v.023c3.493.027 6.32 3.773 6.32 8.39 0-4.635 2.847-8.392 6.359-8.392l.039.002v-.022h-.04M25.466 5.65c-2.301 0-4.167-2.528-4.173-5.65-.006 3.11-1.858 5.631-4.147 5.65v.015c2.292.019 4.147 2.547 4.147 5.664 0-3.129 1.869-5.665 4.173-5.665l.026.001V5.65h-.026" fill="#FFF" opacity=".8"/>
    </g>
</svg>
