<?xml version="1.0" encoding="utf-8"?>
<!-- Generator: Adobe Illustrator 22.0.0, SVG Export Plug-In . SVG Version: 6.00 Build 0)  -->
<svg version="1.1" id="Layer_1" xmlns="http://www.w3.org/2000/svg" xmlns:xlink="http://www.w3.org/1999/xlink" x="0px" y="0px"
	 viewBox="0 0 24 24" style="enable-background:new 0 0 24 24;" xml:space="preserve">
<style type="text/css">
	.st0{fill:none;}
	.st1{fill:#3E32FE;}
</style>
<rect class="st0" width="24" height="24"/>
<g id="q56ZcT.tif">
	
		<image style="overflow:visible;" width="64" height="58" id="Layer_0" xlink:href="9872B5DE86688358.png"  transform="matrix(0.375 0 0 0.375 22 -25)">
	</image>
</g>
<g>
	<path class="st1" d="M23.1,18.5L14.4,3.4c-0.5-0.8-1.3-1.3-2.3-1.3c0,0,0,0,0,0c-0.9,0-1.8,0.5-2.3,1.3L1.1,18.5
		c-0.5,0.8-0.5,1.8,0,2.6s1.3,1.3,2.3,1.3h17.4c0.9,0,1.8-0.5,2.3-1.3C23.6,20.3,23.6,19.3,23.1,18.5z M21.8,20.4
		c-0.2,0.4-0.6,0.6-1,0.6H3.4c-0.4,0-0.8-0.2-1-0.6s-0.2-0.8,0-1.1l8.7-15.1c0.2-0.4,0.6-0.6,1-0.6h0c0.4,0,0.8,0.2,1,0.6l8.7,15.1
		C22,19.6,22,20,21.8,20.4z"/>
	<path class="st1" d="M12.1,7.5c-0.8,0-1.5,0.7-1.5,1.5v6c0,0.8,0.7,1.5,1.5,1.5s1.5-0.7,1.5-1.5V9C13.6,8.2,13,7.5,12.1,7.5z"/>
	<circle class="st1" cx="12.1" cy="18.5" r="1.5"/>
</g>
</svg>
