<svg width="57" height="24" viewBox="0 0 57 24" xmlns="http://www.w3.org/2000/svg">
    <g fill="none" fill-rule="evenodd">
        <path d="M45.098 24H11.873C5.316 24 0 18.627 0 12S5.316 0 11.873 0h33.254C51.684 0 57 5.373 57 12s-5.346 12-11.902 12" fill="#FFEB00"/>
        <g fill="#000" fill-rule="nonzero">
            <path d="M13.463 5.761c-3.612 0-6.538 2.299-6.538 5.164 0 1.821 1.224 3.433 3.045 4.359l-.627 2.328c-.03.06 0 .15.06.209.03.03.09.06.12.06s.089-.03.119-.03l2.657-1.791c.388.06.776.09 1.194.09 3.611 0 6.537-2.33 6.537-5.165 0-2.925-2.926-5.224-6.567-5.224zM25.552 15.224v3.343h-2.388V6.24h1.672l.298.776c.508-.508 1.284-1.045 2.508-1.045 2.328 0 3.433 1.731 3.433 4.567 0 2.956-1.702 4.836-4.15 4.836-.477.03-.835 0-1.373-.15zm0-6.985v5.313c.12.03.448.06.776.06 1.702 0 2.359-1.194 2.359-3.075 0-1.641-.448-2.627-1.791-2.627-.478 0-.956.12-1.344.329zM36.239 9.731h1.343v-.298c0-.985-.567-1.433-1.522-1.433-.747 0-1.672.209-2.448.597l-.657-1.582c.836-.597 2.15-.985 3.314-.985 2.268 0 3.522 1.194 3.522 3.492v5.642h-1.672l-.238-.746c-.956.686-1.851.985-2.627.985-1.732 0-2.717-1.045-2.717-2.806 0-1.88 1.284-2.866 3.702-2.866zm1.373 3.135v-1.642h-1.105c-1.223 0-1.85.448-1.85 1.313 0 .657.328.985 1.044.985.657.03 1.493-.298 1.91-.656zM47.015 14.239c-.836 2.209-1.821 3.82-3.284 4.716l-1.462-1.343c.835-.746 1.462-1.463 1.97-2.418l-3.164-8.627 2.358-.627 2.03 6.985 2-7.015 2.328.657-2.776 7.672z"/>
        </g>
    </g>
</svg>
