<svg width="46" height="18" viewBox="0 0 46 18" xmlns="http://www.w3.org/2000/svg">
    <g fill-rule="nonzero" fill="none">
        <g fill="#333">
            <path d="M23.147 3.853h3.672c.572 0 1.084.06 1.505.21.422.151.783.362 1.054.603.27.27.482.571.632.933.15.36.21.752.21 1.174v.3c0 .422-.06.813-.21 1.174-.15.362-.361.693-.662.964-.271.27-.632.481-1.054.662-.421.15-.903.24-1.475.24h-2.257v4.004h-1.415V3.853zm1.415 1.234V8.91h2.017c1.475 0 2.227-.602 2.227-1.836v-.271c0-.602-.18-1.024-.542-1.295-.361-.27-.873-.421-1.535-.421h-2.167zM33.863 14.268c-.783 0-1.415-.181-1.866-.572-.452-.392-.693-.933-.693-1.626v-.391c0-.662.211-1.204.663-1.625.451-.422 1.173-.633 2.167-.633h1.986V8.97c0-.512-.12-.903-.39-1.174-.242-.24-.663-.391-1.235-.391-.452 0-.843.06-1.204.21-.331.15-.692.331-1.054.572l-.692-1.023c.391-.271.813-.512 1.294-.692a4.639 4.639 0 0 1 1.656-.301c.451 0 .843.06 1.204.15.361.12.662.271.933.482.271.21.452.481.602.782.15.301.21.662.21 1.054v5.478H36.12v-.933c-.09.15-.18.27-.3.391-.121.12-.272.211-.422.301-.21.12-.421.211-.692.271-.211.09-.512.12-.843.12zm2.257-3.673h-1.956c-.542 0-.933.09-1.174.301-.24.211-.361.512-.361.873v.21c0 .392.12.663.391.844.271.18.572.27.963.27.331 0 .632-.03.903-.12.241-.09.482-.21.693-.361.18-.15.33-.301.421-.482.09-.18.12-.421.12-.722v-.813zM42.321 12.582l2.047-6.23h1.445l-4.064 11.046-1.264-.452 1.023-2.678-2.83-7.917h1.506l2.077 6.23h.06z"/>
        </g>
        <path fill="#00C73C" d="M0 0h18v18H0z"/>
        <path fill="#FFF" d="m10.445 13.124-2.92-4.275v4.275h-3.01V4.876h3.07l2.89 4.275V4.876h3.04v8.248z"/>
    </g>
</svg>
