<svg width="87" height="24" viewBox="0 0 87 24" xmlns="http://www.w3.org/2000/svg">
    <g fill="#08B2A6" fill-rule="evenodd">
        <path d="M19.484.389v17.676H16v-2.45h-5.032V13.29H16V.39h3.484zM8.772 21.677h10.712V24H6.736c-1.42 0-2.48-1.445-2.48-3.097v-3.998h3.486v3.74c0 .62.413 1.032 1.03 1.032zM6.837 2.324c-1.314 0-2.658 1.47-2.658 3.637 0 2.09 1.266 3.587 2.634 3.587 1.368 0 2.658-1.522 2.658-3.587 0-2.192-1.161-3.637-2.634-3.637zm0-2.324c3.202 0 6.118 2.735 6.118 5.961 0 1.602-.673 3.02-1.73 4.078h3.485v2.322H8.516v3.899h-3.51V12.36H0V10.04h2.426C1.368 8.98.696 7.563.696 5.96.697 2.735 3.407 0 6.838 0zM36.688 11.614c.336-.955.466-1.962.542-3.097H24.972V6.194h12.284v-2.71H24.998V1.163H40.74v5.6c0 1.91-.18 3.51-.645 4.852h3.2v2.322h-4.566v9.807h-3.51v-9.807h-4.748v9.807h-3.51v-9.807h-4.57v-2.322h14.297zM61.861 23.743h3.355V.39h-3.355v23.353zm-12.258-9.032h.697c.361-.905.466-2.53.466-4.49V4h-1.163v10.71zm-5.032 2.32v-2.32h1.808V4H44.7V1.678h10.968v2.323h-1.676v6.22c0 1.91-.182 3.664-.466 4.49h.361c.905 0 2.118-.131 3.202-.905v-3.482h-2.195V8h2.195V.388h3.353v23.355h-3.353V16.13c-.957.67-2.35.902-3.202.902h-9.316zM82.97 23.743h3.483V.39H82.97v23.353zM73.626 3.382c-1.445 0-2.787 1.961-2.787 5.78 0 3.637 1.342 5.807 2.762 5.807 1.496 0 2.787-2.065 2.787-5.807 0-3.845-1.265-5.78-2.762-5.78zm0-2.323c3.381 0 6.246 3.148 6.246 8.103 0 4.904-2.762 8.13-6.246 8.13-3.637 0-6.27-3.304-6.27-8.13 0-4.877 2.76-8.103 6.27-8.103z"/>
    </g>
</svg>
