<svg width="50" height="55" viewBox="0 0 50 55" xmlns="http://www.w3.org/2000/svg">
    <g fill="none" fill-rule="evenodd">
        <path fill="#221714" fill-rule="nonzero" d="M47.247 53.056H42.66v-42.92L27.045 39.34h-4.642L6.857 10.331v42.725H2.27V2.125h5.16l17.293 32.49 17.294-32.49h5.229z"/>
        <path stroke="#221714" stroke-width=".97" d="M47.247 53.056H42.66v-42.92L27.045 39.34h-4.642L6.857 10.331v42.725H2.27V2.125h5.16l17.293 32.49 17.294-32.49h5.229z"/>
        <path d="M48.589 54.426h-7.27V15.532l-13.463 25.18h-6.25L8.213 15.713v38.712H.929V.755h7.312l16.483 30.98L41.207.756h7.382v53.671zm-4.586-2.74h1.888V3.495h-3.076l-18.091 34-18.09-34H3.626v48.19h1.888V4.95l17.7 33.022h3.047l17.77-33.232v46.947h-.029z" fill="#221714" fill-rule="nonzero"/>
        <path d="M48.589 54.426h-7.27V15.532l-13.463 25.18h-6.25L8.213 15.713v38.712H.929V.755h7.312l16.483 30.98L41.207.756h7.382v53.671zm-4.586-2.74h1.888V3.495h-3.076l-18.091 34-18.09-34H3.626v48.19h1.888V4.95l17.7 33.022h3.047l17.77-33.232v46.947h-.029z" stroke="#221714" stroke-width=".97"/>
    </g>
</svg>
