<svg width="133" height="85" viewBox="0 0 133 85" xmlns="http://www.w3.org/2000/svg">
    <g fill="none" fill-rule="evenodd">
        <path fill="#FFF" fill-rule="nonzero" d="M9.266 1.874H45.35l17.084-.685-13.127 61.123h-12.43l-5.76-30.436-3.886-14.89-2.838 45.326-8.835-.182L.487 1.762z"/>
        <path stroke="#B8B9B9" stroke-width=".47" d="M9.266 1.874H45.35l17.084-.685-13.127 61.123h-12.43l-5.76-30.436-3.886-14.89-2.838 45.326-8.835-.182L.487 1.762z"/>
        <path fill="#FFF" fill-rule="nonzero" d="M35.256 3.3H47.7l16.748-.657-12.456 60.382h-3.719l-4.222-.294h-4.698l-5.606-29.303-3.789-14.316-.517 8.29-2.432 35.623-8.598-.182L4.038 3.622l8.514-.014L24.91 3.44z"/>
        <path stroke="#B8B9B9" stroke-width=".47" d="M35.256 3.3H47.7l16.748-.657-12.456 60.382h-3.719l-4.222-.294h-4.698l-5.606-29.303-3.789-14.316-.517 8.29-2.432 35.623-8.598-.182L4.038 3.622l8.514-.014L24.91 3.44z"/>
        <path fill="#FFF" fill-rule="nonzero" d="M37.968 4.74h12.163l16.428-.643-11.8 59.627h-3.845l-4.124-.587h-4.865l-5.467-28.143-3.662-13.757-.518 8.053-2.572 34.434-8.347-.168L7.686 5.467l8.263-.126 11.995-.335z"/>
        <path stroke="#B8B9B9" stroke-width=".47" d="M37.968 4.74h12.163l16.428-.643-11.8 59.627h-3.845l-4.124-.587h-4.865l-5.467-28.143-3.662-13.757-.518 8.053-2.572 34.434-8.347-.168L7.686 5.467l8.263-.126 11.995-.335z"/>
        <path fill="#FFF" fill-rule="nonzero" d="M40.639 6.166h11.883l16.106-.63-11.129 58.887h-3.984l-4.04-.867H44.44l-5.312-27.01-3.565-13.184-.504 7.815-2.684 33.246-8.123-.168L11.28 7.312l8.011-.237 11.618-.504z"/>
        <path stroke="#B8B9B9" stroke-width=".47" d="M40.639 6.166h11.883l16.106-.63-11.129 58.887h-3.984l-4.04-.867H44.44l-5.312-27.01-3.565-13.184-.504 7.815-2.684 33.246-8.123-.168L11.28 7.312l8.011-.237 11.618-.504z"/>
        <path fill="#FFF" fill-rule="nonzero" d="M43.295 7.592h11.618l15.784-.601-10.472 58.145h-4.124l-3.928-1.16h-5.201l-5.173-25.864-3.453-12.639-.504 7.606-2.81 32.057-7.885-.168L14.872 9.172l7.76-.364 11.254-.67z"/>
        <path stroke="#B8B9B9" stroke-width=".47" d="M43.295 7.592h11.618l15.784-.601-10.472 58.145h-4.124l-3.928-1.16h-5.201l-5.173-25.864-3.453-12.639-.504 7.606-2.81 32.057-7.885-.168L14.872 9.172l7.76-.364 11.254-.67z"/>
        <path fill="#FFF" fill-rule="nonzero" d="M45.965 9.018h11.338l15.463-.573-9.8 57.39H58.7l-3.844-1.454h-5.369l-5.005-24.704-3.355-12.079-.49 7.368-2.95 30.869-7.633-.154-11.59-54.664 7.508-.475 10.89-.839z"/>
        <path stroke="#B8B9B9" stroke-width=".47" d="M45.965 9.018h11.338l15.463-.573-9.8 57.39H58.7l-3.844-1.454h-5.369l-5.005-24.704-3.355-12.079-.49 7.368-2.95 30.869-7.633-.154-11.59-54.664 7.508-.475 10.89-.839z"/>
        <path fill="#FFF" fill-rule="nonzero" d="M48.635 10.458h11.06l15.14-.56-9.143 56.65h-4.39L57.555 64.8h-5.55l-4.851-23.57-3.244-11.507-.49 7.13-3.075 29.695-7.396-.154-10.89-53.531 7.255-.588 10.528-1.006z"/>
        <path stroke="#B8B9B9" stroke-width=".47" d="M48.635 10.458h11.06l15.14-.56-9.143 56.65h-4.39L57.555 64.8h-5.55l-4.851-23.57-3.244-11.507-.49 7.13-3.075 29.695-7.396-.154-10.89-53.531 7.255-.588 10.528-1.006z"/>
        <path fill="#FFF" fill-rule="nonzero" d="M51.306 11.884h10.793l14.805-.531-8.486 55.894h-4.516l-3.663-2.041h-5.704l-4.711-22.411-3.132-10.947-.49 6.907-3.187 28.492-7.172-.14-10.178-52.399 6.99-.699 10.165-1.174z"/>
        <path stroke="#B8B9B9" stroke-width=".47" d="M51.306 11.884h10.793l14.805-.531-8.486 55.894h-4.516l-3.663-2.041h-5.704l-4.711-22.411-3.132-10.947-.49 6.907-3.187 28.492-7.172-.14-10.178-52.399 6.99-.699 10.165-1.174z"/>
        <path fill="#FFF" fill-rule="nonzero" d="M53.976 13.31h10.513l14.484-.503-7.815 55.153h-4.655l-3.58-2.335h-5.871l-4.558-21.278-3.02-10.388L49 40.642 45.672 67.96l-6.935-.14-9.479-51.252 6.74-.825 9.8-1.342z"/>
        <path stroke="#B8B9B9" stroke-width=".47" d="M53.976 13.31h10.513l14.484-.503-7.815 55.153h-4.655l-3.58-2.335h-5.871l-4.558-21.278-3.02-10.388L49 40.642 45.672 67.96l-6.935-.14-9.479-51.252 6.74-.825 9.8-1.342z"/>
        <path fill="#FFF" fill-rule="nonzero" d="M49.6 14.736h12.247l19.181-.49-7.144 54.413h-4.781l-3.481-2.628h-6.054l-4.404-20.118-2.922-9.829-.46 6.445-3.454 26.13-6.683-.14-8.794-50.106 6.487-.937 2.391-1.51z"/>
        <path stroke="#B8B9B9" stroke-width=".47" d="M49.6 14.736h12.247l19.181-.49-7.144 54.413h-4.781l-3.481-2.628h-6.054l-4.404-20.118-2.922-9.829-.46 6.445-3.454 26.13-6.683-.14-8.794-50.106 6.487-.937 2.391-1.51z"/>
        <path fill="#FFF" fill-rule="nonzero" d="M52.27 16.176h9.955l20.872-.475-6.486 53.657h-4.908l-3.397-2.908H62.1l-4.264-18.986-2.81-9.255-.448 6.222-3.579 24.927-6.459-.126-5.718-51.42 5.872-.28z"/>
        <path stroke="#B8B9B9" stroke-width=".47" d="M52.27 16.176h9.955l20.872-.475-6.486 53.657h-4.908l-3.397-2.908H62.1l-4.264-18.986-2.81-9.255-.448 6.222-3.579 24.927-6.459-.126-5.718-51.42 5.872-.28z"/>
        <path fill="#FFF" fill-rule="nonzero" d="M54.927 17.602h9.688l20.552-.447L79.35 70.07h-5.047l-3.3-3.202h-6.389l-4.11-17.839-2.698-8.696-.448 5.984-3.705 23.753-6.22-.126.237-50.847z"/>
        <path stroke="#B8B9B9" stroke-width=".47" d="M54.927 17.602h9.688l20.552-.447L79.35 70.07h-5.047l-3.3-3.202h-6.389l-4.11-17.839-2.698-8.696-.448 5.984-3.705 23.753-6.22-.126.237-50.847z"/>
        <path fill="#FFF" fill-rule="nonzero" d="M57.597 19.028h9.409l21.558-.447-3.02 51.602-8.654.587-3.201-3.495h-6.557l-3.957-16.693-2.586-8.137-.448 5.76-3.83 22.565-5.97-.112.308-49.994z"/>
        <path stroke="#B8B9B9" stroke-width=".47" d="M57.597 19.028h9.409l21.558-.447-3.02 51.602-8.654.587-3.201-3.495h-6.557l-3.957-16.693-2.586-8.137-.448 5.76-3.83 22.565-5.97-.112.308-49.994z"/>
        <path fill="#FFF" fill-rule="nonzero" d="M60.267 20.454h9.13l19.908-.391-4.488 51.42H79.49l-3.103-3.789h-6.725l-3.817-15.546-2.474-7.577-.433 5.536-3.97 21.376-5.733-.112z"/>
        <path stroke="#B8B9B9" stroke-width=".47" d="M60.267 20.454h9.13l19.908-.391-4.488 51.42H79.49l-3.103-3.789h-6.725l-3.817-15.546-2.474-7.577-.433 5.536-3.97 21.376-5.733-.112z"/>
        <path fill="#FFF" fill-rule="nonzero" d="M62.938 21.894h8.85l19.586-.377-3.83 50.665H82.09L79.07 68.1H72.18l-3.65-14.386-2.376-7.018-.433 5.298-4.083 20.188-5.508-.098z"/>
        <path stroke="#B8B9B9" stroke-width=".47" d="M62.938 21.894h8.85l19.586-.377-3.83 50.665H82.09L79.07 68.1H72.18l-3.65-14.386-2.376-7.018-.433 5.298-4.083 20.188-5.508-.098z"/>
        <path fill="#FFF" fill-rule="nonzero" d="M65.608 23.32h8.57l19.265-.363L90.27 72.88h-5.578l-2.936-4.362h-7.06L71.2 55.266l-2.279-6.445-.42 5.06-4.207 19-5.271-.084z"/>
        <path stroke="#B8B9B9" stroke-width=".47" d="M65.608 23.32h8.57l19.265-.363L90.27 72.88h-5.578l-2.936-4.362h-7.06L71.2 55.266l-2.279-6.445-.42 5.06-4.207 19-5.271-.084z"/>
        <path fill="#FFF" fill-rule="nonzero" d="M68.278 24.746h8.29l18.944-.335-2.502 49.183h-5.718l-2.838-4.67h-7.228L73.87 56.832l-2.167-5.9-.405 4.852-4.348 17.811-5.02-.098z"/>
        <path stroke="#B8B9B9" stroke-width=".47" d="M68.278 24.746h8.29l18.944-.335-2.502 49.183h-5.718l-2.838-4.67h-7.228L73.87 56.832l-2.167-5.9-.405 4.852-4.348 17.811-5.02-.098z"/>
        <path fill="#FFF" fill-rule="nonzero" d="m70.85 26.172 26.633-.307-1.845 48.428h-5.844l-2.74-4.949h-7.41l-3.201-10.96-2.041-5.327-.406 4.613-4.474 16.623-4.795-.084z"/>
        <path stroke="#B8B9B9" stroke-width=".47" d="m70.85 26.172 26.633-.307-1.845 48.428h-5.844l-2.74-4.949h-7.41l-3.201-10.96-2.041-5.327-.406 4.613-4.474 16.623-4.795-.084z"/>
        <path fill="#FFF" fill-rule="nonzero" d="m73.185 27.612 26.032-.293-1.174 47.687h-5.984l-2.656-5.243h-7.564l-3.048-9.814-1.943-4.767-.405 4.39-4.6 15.434-4.544-.084z"/>
        <path stroke="#B8B9B9" stroke-width=".47" d="m73.185 27.612 26.032-.293-1.174 47.687h-5.984l-2.656-5.243h-7.564l-3.048-9.814-1.943-4.767-.405 4.39-4.6 15.434-4.544-.084z"/>
        <path fill="#FFF" fill-rule="nonzero" d="m75.52 29.038 25.43-.265-.503 46.932h-6.123l-2.559-5.536H84.02L81.126 61.5l-1.831-4.194-.392 4.152-4.725 14.246-4.32-.07z"/>
        <path stroke="#B8B9B9" stroke-width=".47" d="m75.52 29.038 25.43-.265-.503 46.932h-6.123l-2.559-5.536H84.02L81.126 61.5l-1.831-4.194-.392 4.152-4.725 14.246-4.32-.07z"/>
        <path fill="#FFF" fill-rule="nonzero" d="m78.484 30.464 24.2-.251.154 46.191h-6.25l-2.46-5.816h-7.913l-2.754-7.521-1.72-3.65-.391 3.93-4.851 13.057-4.069-.056z"/>
        <path stroke="#B8B9B9" stroke-width=".47" d="m78.484 30.464 24.2-.251.154 46.191h-6.25l-2.46-5.816h-7.913l-2.754-7.521-1.72-3.65-.391 3.93-4.851 13.057-4.069-.056z"/>
        <path fill="#FFF" fill-rule="nonzero" d="m81.588 31.89 22.83-.224.825 45.451h-6.39l-2.376-6.123h-8.08l-2.587-6.361-1.622-3.09-.378 3.705-4.977 11.87-3.844-.057z"/>
        <path stroke="#B8B9B9" stroke-width=".47" d="m81.588 31.89 22.83-.224.825 45.451h-6.39l-2.376-6.123h-8.08l-2.587-6.361-1.622-3.09-.378 3.705-4.977 11.87-3.844-.057z"/>
        <path fill="#FFF" fill-rule="nonzero" d="m84.384 33.316 21.921-.196 1.482 44.696h-6.515l-2.293-6.403h-8.248l-2.447-5.229-1.51-2.516-.363 3.467-5.103 10.681-3.607-.056z"/>
        <path stroke="#B8B9B9" stroke-width=".47" d="m84.384 33.316 21.921-.196 1.482 44.696h-6.515l-2.293-6.403h-8.248l-2.447-5.229-1.51-2.516-.363 3.467-5.103 10.681-3.607-.056z"/>
        <path fill="#FFF" fill-rule="nonzero" d="m87.78 34.756 20.608-.182 2.14 43.955h-6.641l-2.195-6.71h-8.417l-2.293-4.069-1.412-1.957-.363 3.23-5.229 9.506-3.37-.056z"/>
        <path stroke="#B8B9B9" stroke-width=".47" d="m87.78 34.756 20.608-.182 2.14 43.955h-6.641l-2.195-6.71h-8.417l-2.293-4.069-1.412-1.957-.363 3.23-5.229 9.506-3.37-.056z"/>
        <path fill="#FFF" fill-rule="nonzero" d="m91.192 36.182 19.28-.154 2.81 43.2H106.5l-2.111-6.99h-8.584l-2.14-2.936-1.3-1.398-.349 3.02-4.264 8.304-4.222-.042z"/>
        <path stroke="#B8B9B9" stroke-width=".47" d="m91.192 36.182 19.28-.154 2.81 43.2H106.5l-2.111-6.99h-8.584l-2.14-2.936-1.3-1.398-.349 3.02-4.264 8.304-4.222-.042z"/>
        <path fill="#FFF" fill-rule="nonzero" d="m94.603 37.608 17.951-.126 3.482 42.46h-6.92l-2.014-7.285H98.35l-1.999-1.79-1.188-.838-.336 2.782-4.516 7.13-3.858-.042z"/>
        <path stroke="#B8B9B9" stroke-width=".47" d="m94.603 37.608 17.951-.126 3.482 42.46h-6.92l-2.014-7.285H98.35l-1.999-1.79-1.188-.838-.336 2.782-4.516 7.13-3.858-.042z"/>
        <path fill="#FFF" fill-rule="nonzero" d="m97.707 39.034 16.93-.098 4.139 41.704h-7.046l-1.916-7.577h-8.933l-1.832-.643-1.09-.266-.336 2.545-4.418 5.941-4.18.126z"/>
        <path stroke="#B8B9B9" stroke-width=".47" d="m97.707 39.034 16.93-.098 4.139 41.704h-7.046l-1.916-7.577h-8.933l-1.832-.643-1.09-.266-.336 2.545-4.418 5.941-4.18.126z"/>
        <path fill="#FFF" fill-rule="nonzero" d="m101.118 40.474 15.603-.098 4.809 40.963h-7.186l-1.831-7.857h-9.088l-1.691.504-.98.293-.32 2.32-3.971 4.74-4.194-.014z"/>
        <path stroke="#B8B9B9" stroke-width=".47" d="m101.118 40.474 15.603-.098 4.809 40.963h-7.186l-1.831-7.857h-9.088l-1.691.504-.98.293-.32 2.32-3.971 4.74-4.194-.014z"/>
        <path fill="#FFF" fill-rule="nonzero" d="m104.53 41.9 14.274-.07 5.466 40.222h-7.312l-1.733-8.164h-9.27l-1.537 1.65-.867.852-.322 2.097-4.208 3.565-3.83-.028z"/>
        <path stroke="#B8B9B9" stroke-width=".47" d="m104.53 41.9 14.274-.07 5.466 40.222h-7.312l-1.733-8.164h-9.27l-1.537 1.65-.867.852-.322 2.097-4.208 3.565-3.83-.028z"/>
        <path fill="#FFF" fill-rule="nonzero" d="m107.62 43.326 13.267-.042 6.137 39.467h-7.451l-1.636-8.444H108.5l-1.384 2.796-.769 1.412-.307 1.86-4.348 2.376-3.593-.014z"/>
        <path stroke="#B8B9B9" stroke-width=".47" d="m107.62 43.326 13.267-.042 6.137 39.467h-7.451l-1.636-8.444H108.5l-1.384 2.796-.769 1.412-.307 1.86-4.348 2.376-3.593-.014z"/>
        <path fill="#FFF" fill-rule="nonzero" d="m111.03 44.752 12.01-.014 6.794 38.726h-7.577l-1.552-8.751H111.1l-1.244 3.942-.643 1.985-.307 1.636-4.195 1.188-3.635-.014z"/>
        <path stroke="#B8B9B9" stroke-width=".47" d="m111.03 44.752 12.01-.014 6.794 38.726h-7.577l-1.552-8.751H111.1l-1.244 3.942-.643 1.985-.307 1.636-4.195 1.188-3.635-.014z"/>
        <path fill="#FFF" fill-rule="nonzero" d="m125.053 46.248 7.466 37.915-7.368.336-1.804-9.367h-9.772l-1.93 9.031h-7.717l9.969-37.97z"/>
        <path stroke="#B8B9B9" stroke-width=".47" d="m125.053 46.248 7.466 37.915-7.368.336-1.804-9.367h-9.772l-1.93 9.031h-7.717l9.969-37.97z"/>
        <path fill="#FFF" fill-rule="nonzero" d="m122.061 69.064-3.55-16.497h-.099l-3.55 16.497z"/>
        <path stroke="#B8B9B9" stroke-width=".47" d="m122.061 69.064-3.55-16.497h-.099l-3.55 16.497z"/>
    </g>
</svg>
