<svg width="118" height="108" viewBox="0 0 118 108" xmlns="http://www.w3.org/2000/svg">
    <g fill="none" fill-rule="evenodd">
        <path fill="#FFF" fill-rule="nonzero" d="m7.961.35 7.997 18.663 7.983 18.65h.154l7.955-18.65L41.696.35h5.788V53.21h-9.772V11.017h-.14l-4.697 21.096-4.712 21.097h-8.29l-4.698-21.097-4.697-21.096h-.154V53.21H.552V.349z"/>
        <path stroke="#B8B9B9" stroke-width=".57" d="m7.961.35 7.997 18.663 7.983 18.65h.154l7.955-18.65L41.696.35h5.788V53.21h-9.772V11.017h-.14l-4.697 21.096-4.712 21.097h-8.29l-4.698-21.097-4.697-21.096h-.154V53.21H.552V.349z"/>
        <path fill="#FFF" fill-rule="nonzero" d="M3.236 2.209h7.326l7.927 18.468 7.913 18.454h.153l.322-.74.965-2.196 6.612-15.462 7.9-18.44 2.586-.056h4.781l-.07 12.918-.07 12.932-.083 16.734-.042 9.102-9.507.098-.112-20.202-.014-3.16V13.631h-.154l-4.543 20.677-4.558 20.663h-8.123l-.713-3.02-3.872-17.615-4.558-20.677h-.14l-.014 20.174v1.482l-.112 18.706-9.506-.098-.07-11.758-.07-14.106-.084-12.918z"/>
        <path stroke="#B8B9B9" stroke-width=".57" d="M3.236 2.209h7.326l7.927 18.468 7.913 18.454h.153l.322-.74.965-2.196 6.612-15.462 7.9-18.44 2.586-.056h4.781l-.07 12.918-.07 12.932-.083 16.734-.042 9.102-9.507.098-.112-20.202-.014-3.16V13.631h-.154l-4.543 20.677-4.558 20.663h-8.123l-.713-3.02-3.872-17.615-4.558-20.677h-.14l-.014 20.174v1.482l-.112 18.706-9.506-.098-.07-11.758-.07-14.106-.084-12.918z"/>
        <path fill="#FFF" fill-rule="nonzero" d="m5.92 4.068 7.228.014 7.871 18.273 7.843 18.244h.14l.336-.699.964-2.167 6.571-15.28 7.83-18.231 2.516-.098h4.74l-.14 12.625-.14 12.638-.168 16.357-.098 8.906-9.241.195-.21-19.307-.042-3.033V16.259h-.14l-4.404 20.23-4.403 20.23-7.955.014-.727-2.922-3.761-17.252-4.404-20.258h-.14l-.014 19.237v1.426l-.21 17.868-9.255-.196-.125-11.506-.168-13.785-.14-12.638z"/>
        <path stroke="#B8B9B9" stroke-width=".56" d="m5.92 4.068 7.228.014 7.871 18.273 7.843 18.244h.14l.336-.699.964-2.167 6.571-15.28 7.83-18.231 2.516-.098h4.74l-.14 12.625-.14 12.638-.168 16.357-.098 8.906-9.241.195-.21-19.307-.042-3.033V16.259h-.14l-4.404 20.23-4.403 20.23-7.955.014-.727-2.922-3.761-17.252-4.404-20.258h-.14l-.014 19.237v1.426l-.21 17.868-9.255-.196-.125-11.506-.168-13.785-.14-12.638z"/>
        <path fill="#FFF" fill-rule="nonzero" d="m8.604 5.914 7.145.028 7.8 18.09 7.774 18.035h.14l.321-.657.979-2.125 6.515-15.113L47.05 6.165l2.46-.154h4.67l-.196 12.331-.21 12.345-.251 15.98-.154 8.696-8.975.293-.322-18.412-.042-2.894-.014-15.462h-.126l-4.264 19.796-4.264 19.796-7.773.014-.74-2.81-3.636-16.902-4.264-19.825h-.126l-.014 18.301V38.6l-.335 17.042-8.976-.307-.21-11.227-.237-13.477-.224-12.359z"/>
        <path stroke="#B8B9B9" stroke-width=".56" d="m8.604 5.914 7.145.028 7.8 18.09 7.774 18.035h.14l.321-.657.979-2.125 6.515-15.113L47.05 6.165l2.46-.154h4.67l-.196 12.331-.21 12.345-.251 15.98-.154 8.696-8.975.293-.322-18.412-.042-2.894-.014-15.462h-.126l-4.264 19.796-4.264 19.796-7.773.014-.74-2.81-3.636-16.902-4.264-19.825h-.126l-.014 18.301V38.6l-.335 17.042-8.976-.307-.21-11.227-.237-13.477-.224-12.359z"/>
        <path fill="#FFF" fill-rule="nonzero" d="m11.289 7.773 7.06.028 7.731 17.91 7.703 17.824h.14l.322-.615.978-2.097 6.46-14.917 7.703-17.811 2.404-.196h4.628l-.266 12.037-.28 12.051-.335 15.603-.196 8.486-8.71.391-.433-17.517-.07-2.74-.014-14.694h-.126l-4.11 19.363-4.11 19.349-7.606.028-.754-2.712-3.51-16.525-4.11-19.42h-.14l-.014 17.365v1.286l-.433 16.203-8.724-.405-.266-10.975-.335-13.156-.294-12.065z"/>
        <path stroke="#B8B9B9" stroke-width=".56" d="m11.289 7.773 7.06.028 7.731 17.91 7.703 17.824h.14l.322-.615.978-2.097 6.46-14.917 7.703-17.811 2.404-.196h4.628l-.266 12.037-.28 12.051-.335 15.603-.196 8.486-8.71.391-.433-17.517-.07-2.74-.014-14.694h-.126l-4.11 19.363-4.11 19.349-7.606.028-.754-2.712-3.51-16.525-4.11-19.42h-.14l-.014 17.365v1.286l-.433 16.203-8.724-.405-.266-10.975-.335-13.156-.294-12.065z"/>
        <path fill="#FFF" fill-rule="nonzero" d="m13.973 9.632 6.962.042 7.676 17.7 7.647 17.615.126.014.307-.573.993-2.055 6.417-14.75 7.633-17.587 2.35-.252h4.57L58.32 21.53l-.335 11.758-.448 15.224-.237 8.29-8.445.49-.53-16.623-.085-2.614-.028-13.91H48.1L44.13 43.06l-3.956 18.93-7.438.028-.783-2.615-3.37-16.161-3.97-19h-.126l-.028 16.441V41.9l-.545 15.364-8.458-.503-.336-10.723-.405-12.834-.364-11.786z"/>
        <path stroke="#B8B9B9" stroke-width=".56" d="m13.973 9.632 6.962.042 7.676 17.7 7.647 17.615.126.014.307-.573.993-2.055 6.417-14.75 7.633-17.587 2.35-.252h4.57L58.32 21.53l-.335 11.758-.448 15.224-.237 8.29-8.445.49-.53-16.623-.085-2.614-.028-13.91H48.1L44.13 43.06l-3.956 18.93-7.438.028-.783-2.615-3.37-16.161-3.97-19h-.126l-.028 16.441V41.9l-.545 15.364-8.458-.503-.336-10.723-.405-12.834-.364-11.786z"/>
        <path fill="#FFF" fill-rule="nonzero" d="m16.657 11.492 6.879.042 7.62 17.517 7.563 17.406.111.014.322-.531.993-2.027 6.36-14.568 7.578-17.378 2.279-.293h4.516l-.392 11.45-.405 11.464-.531 14.847-.28 8.08-8.193.588-.643-15.728-.098-2.475-.014-13.141h-.125L46.38 45.255 42.577 63.75l-7.27.028-.797-2.502-3.257-15.812-3.817-18.567h-.126l-.028 15.505v1.132l-.643 14.54-8.206-.601-.406-10.458-.475-12.54-.447-11.492z"/>
        <path stroke="#B8B9B9" stroke-width=".55" d="m16.657 11.492 6.879.042 7.62 17.517 7.563 17.406.111.014.322-.531.993-2.027 6.36-14.568 7.578-17.378 2.279-.293h4.516l-.392 11.45-.405 11.464-.531 14.847-.28 8.08-8.193.588-.643-15.728-.098-2.475-.014-13.141h-.125L46.38 45.255 42.577 63.75l-7.27.028-.797-2.502-3.257-15.812-3.817-18.567h-.126l-.028 15.505v1.132l-.643 14.54-8.206-.601-.406-10.458-.475-12.54-.447-11.492z"/>
        <path fill="#FFF" fill-rule="nonzero" d="m19.342 13.351 6.794.042 7.55 17.336 7.493 17.196.112.014.322-.49.992-1.984 6.305-14.4 7.522-17.155 2.223-.349h4.46l-.476 11.156-.461 11.17-.615 14.47-.336 7.872-7.913.699-.755-14.848-.126-2.32-.195-11.143-.154.308-3.44 16.525-3.676 18.049-7.088.042-.811-2.405-3.132-15.449-3.677-18.146h-.112l-.027 14.567-.014 1.077-.755 13.7-7.941-.712-.462-10.192-.573-12.219-.517-11.212z"/>
        <path stroke="#B8B9B9" stroke-width=".55" d="m19.342 13.351 6.794.042 7.55 17.336 7.493 17.196.112.014.322-.49.992-1.984 6.305-14.4 7.522-17.155 2.223-.349h4.46l-.476 11.156-.461 11.17-.615 14.47-.336 7.872-7.913.699-.755-14.848-.126-2.32-.195-11.143-.154.308-3.44 16.525-3.676 18.049-7.088.042-.811-2.405-3.132-15.449-3.677-18.146h-.112l-.027 14.567-.014 1.077-.755 13.7-7.941-.712-.462-10.192-.573-12.219-.517-11.212z"/>
        <path fill="#FFF" fill-rule="nonzero" d="m22.026 15.197 6.696.07 7.494 17.14 7.424 16.986.112.014.307-.447 1.007-1.958 6.249-14.204 7.466-16.958 2.153-.392h4.417l-.545 10.863-.531 10.877-.7 14.092-.39 7.676-7.648.783L54.67 45.8l-.125-2.195.083-11.044-.307.768-3.425 16.302-3.523 17.63-6.92.041-.826-2.307-3.006-15.085-3.537-17.727h-.097l-.042 13.645v1.007l-.867 12.862-7.69-.811-.53-9.926-.644-11.912-.601-10.919z"/>
        <path stroke="#B8B9B9" stroke-width=".55" d="m22.026 15.197 6.696.07 7.494 17.14 7.424 16.986.112.014.307-.447 1.007-1.958 6.249-14.204 7.466-16.958 2.153-.392h4.417l-.545 10.863-.531 10.877-.7 14.092-.39 7.676-7.648.783L54.67 45.8l-.125-2.195.083-11.044-.307.768-3.425 16.302-3.523 17.63-6.92.041-.826-2.307-3.006-15.085-3.537-17.727h-.097l-.042 13.645v1.007l-.867 12.862-7.69-.811-.53-9.926-.644-11.912-.601-10.919z"/>
        <path fill="#FFF" fill-rule="nonzero" d="m24.71 17.056 6.613.07 7.424 16.944L46.1 50.861l.098.014.322-.405 1.006-1.916 6.18-14.064 7.423-16.707 2.097-.461h4.348l-.6 10.583-.602 10.583-.797 13.715-.433 7.466-7.382.88-.965-13.043-.153-2.055.167-10.262-.321.307-3.342 16.33-3.369 17.182-6.752.056-.84-2.195-2.88-14.722-3.383-17.308h-.111l-.042 12.695v.936l-.979 12.038-7.424-.91-.6-9.674-.728-11.59-.657-10.639z"/>
        <path stroke="#B8B9B9" stroke-width=".54" d="m24.71 17.056 6.613.07 7.424 16.944L46.1 50.861l.098.014.322-.405 1.006-1.916 6.18-14.064 7.423-16.707 2.097-.461h4.348l-.6 10.583-.602 10.583-.797 13.715-.433 7.466-7.382.88-.965-13.043-.153-2.055.167-10.262-.321.307-3.342 16.33-3.369 17.182-6.752.056-.84-2.195-2.88-14.722-3.383-17.308h-.111l-.042 12.695v.936l-.979 12.038-7.424-.91-.6-9.674-.728-11.59-.657-10.639z"/>
        <path fill="#FFF" fill-rule="nonzero" d="m27.394 18.916 6.515.07 7.368 16.762 7.284 16.581.098.014.307-.364 1.02-1.887 6.152-13.855 7.326-16.525 2.041-.503h4.306l-.67 10.29-.672 10.303-.88 13.324-.476 7.256-7.116.992-1.077-12.163-.167-1.901-.042-10.038h-.098l-3.216 16.749-3.215 16.748-6.585.056-.867-2.097-2.754-14.358-3.23-16.888h-.097l-.056 11.771v.867l-1.077 11.198-7.158-1.02-.67-9.395-.812-11.296-.74-10.346z"/>
        <path stroke="#B8B9B9" stroke-width=".54" d="m27.394 18.916 6.515.07 7.368 16.762 7.284 16.581.098.014.307-.364 1.02-1.887 6.152-13.855 7.326-16.525 2.041-.503h4.306l-.67 10.29-.672 10.303-.88 13.324-.476 7.256-7.116.992-1.077-12.163-.167-1.901-.042-10.038h-.098l-3.216 16.749-3.215 16.748-6.585.056-.867-2.097-2.754-14.358-3.23-16.888h-.097l-.056 11.771v.867l-1.077 11.198-7.158-1.02-.67-9.395-.812-11.296-.74-10.346z"/>
        <path fill="#FFF" fill-rule="nonzero" d="m30.079 20.775 6.43.084 7.298 16.567 7.214 16.371.098.014.308-.322 1.02-1.845 6.096-13.687 7.27-16.301 1.985-.56h4.25l-.74 9.997-.742 10.01-.964 12.946-.532 7.046-6.85 1.09-1.189-11.254-.181-1.776-.028-9.269h-.098l-3.076 16.33-3.076 16.315-6.403.056-.88-2-2.629-13.994-3.09-16.469h-.097l-.042 10.849-.014.797-1.189 10.36-6.892-1.12-.74-9.142-.882-10.975-.825-10.066z"/>
        <path stroke="#B8B9B9" stroke-width=".54" d="m30.079 20.775 6.43.084 7.298 16.567 7.214 16.371.098.014.308-.322 1.02-1.845 6.096-13.687 7.27-16.301 1.985-.56h4.25l-.74 9.997-.742 10.01-.964 12.946-.532 7.046-6.85 1.09-1.189-11.254-.181-1.776-.028-9.269h-.098l-3.076 16.33-3.076 16.315-6.403.056-.88-2-2.629-13.994-3.09-16.469h-.097l-.042 10.849-.014.797-1.189 10.36-6.892-1.12-.74-9.142-.882-10.975-.825-10.066z"/>
        <path fill="#FFF" fill-rule="nonzero" d="m32.763 22.62 6.347.098 7.228 16.385 7.144 16.162.098.014.293-.266 1.035-1.831 6.054-13.491 7.2-16.106 1.929-.601h4.194l-.81 9.702-.812 9.717-1.048 12.568-.573 6.85-6.585 1.175-1.3-10.36-.196-1.621-.042-8.5h-.098l-2.922 15.882-2.922 15.881-6.235.07-.895-1.887-2.502-13.645-2.95-16.036h-.084l-.056 9.899-.014.727-1.286 9.534-6.641-1.216-.797-8.892-.979-10.653-.88-9.772z"/>
        <path stroke="#B8B9B9" stroke-width=".53" d="m32.763 22.62 6.347.098 7.228 16.385 7.144 16.162.098.014.293-.266 1.035-1.831 6.054-13.491 7.2-16.106 1.929-.601h4.194l-.81 9.702-.812 9.717-1.048 12.568-.573 6.85-6.585 1.175-1.3-10.36-.196-1.621-.042-8.5h-.098l-2.922 15.882-2.922 15.881-6.235.07-.895-1.887-2.502-13.645-2.95-16.036h-.084l-.056 9.899-.014.727-1.286 9.534-6.641-1.216-.797-8.892-.979-10.653-.88-9.772z"/>
        <path fill="#FFF" fill-rule="nonzero" d="m35.447 24.48 6.25.098 7.185 16.19 7.06 15.965.084.014.308-.238 1.035-1.775 5.997-13.324 7.144-15.882 1.86-.657h4.138l-.867 9.41-.88 9.422-1.147 12.191-.615 6.64-6.32 1.287-1.397-9.479-.224-1.482-.042-7.717h-.084L62.15 60.591 59.382 76.04l-6.068.07-.908-1.79-2.377-13.281-2.796-15.616h-.084l-.07 8.975v.657l-1.412 8.696-6.375-1.314-.867-8.626-1.049-10.346-.964-9.492z"/>
        <path stroke="#B8B9B9" stroke-width=".53" d="m35.447 24.48 6.25.098 7.185 16.19 7.06 15.965.084.014.308-.238 1.035-1.775 5.997-13.324 7.144-15.882 1.86-.657h4.138l-.867 9.41-.88 9.422-1.147 12.191-.615 6.64-6.32 1.287-1.397-9.479-.224-1.482-.042-7.717h-.084L62.15 60.591 59.382 76.04l-6.068.07-.908-1.79-2.377-13.281-2.796-15.616h-.084l-.07 8.975v.657l-1.412 8.696-6.375-1.314-.867-8.626-1.049-10.346-.964-9.492z"/>
        <path fill="#FFF" fill-rule="nonzero" d="m38.131 26.34 6.166.097 7.116 16.008 6.99 15.742.084.028.294-.182 1.048-1.761 5.942-13.142 7.088-15.672 1.804-.7h4.082l-.95 9.116-.938 9.13-1.23 11.813-.67 6.43-6.054 1.385-1.51-8.584-.238-1.342-.042-6.935h-.07l-2.628 15.015-2.629 15.002-5.913.083-.91-1.691L52.7 63.262l-2.642-15.197h-.084l-.07 8.053v.573l-1.51 7.871-6.123-1.426-.937-8.36-1.119-10.024-1.048-9.214z"/>
        <path stroke="#B8B9B9" stroke-width=".53" d="m38.131 26.34 6.166.097 7.116 16.008 6.99 15.742.084.028.294-.182 1.048-1.761 5.942-13.142 7.088-15.672 1.804-.7h4.082l-.95 9.116-.938 9.13-1.23 11.813-.67 6.43-6.054 1.385-1.51-8.584-.238-1.342-.042-6.935h-.07l-2.628 15.015-2.629 15.002-5.913.083-.91-1.691L52.7 63.262l-2.642-15.197h-.084l-.07 8.053v.573l-1.51 7.871-6.123-1.426-.937-8.36-1.119-10.024-1.048-9.214z"/>
        <path fill="#FFF" fill-rule="nonzero" d="m40.816 28.199 6.081.111 7.046 15.812 6.92 15.533.085.028.293-.14 1.049-1.72 5.9-12.974 7.018-15.448 1.733-.755h4.027l-1.007 8.822-1.006 8.835L77.64 57.74l-.713 6.236-5.788 1.468-1.621-7.676-.252-1.202-.042-6.18h-.084l-2.474 14.582-2.489 14.582-5.732.084-.923-1.58L55.383 65.5 52.881 50.72l-.07-.014-.084 7.116v.518l-1.622 7.032-5.844-1.524-1.006-8.095-1.216-9.73-1.105-8.906z"/>
        <path stroke="#B8B9B9" stroke-width=".52" d="m40.816 28.199 6.081.111 7.046 15.812 6.92 15.533.085.028.293-.14 1.049-1.72 5.9-12.974 7.018-15.448 1.733-.755h4.027l-1.007 8.822-1.006 8.835L77.64 57.74l-.713 6.236-5.788 1.468-1.621-7.676-.252-1.202-.042-6.18h-.084l-2.474 14.582-2.489 14.582-5.732.084-.923-1.58L55.383 65.5 52.881 50.72l-.07-.014-.084 7.116v.518l-1.622 7.032-5.844-1.524-1.006-8.095-1.216-9.73-1.105-8.906z"/>
        <path fill="#FFF" fill-rule="nonzero" d="m43.5 30.058 5.984.112 6.99 15.63 6.85 15.323.07.028.294-.098 1.062-1.692 5.844-12.792 6.962-15.239 1.678-.797h3.97l-1.076 8.528-1.076 8.543-1.398 11.058-.77 6.026-5.522 1.58-1.733-6.795-.266-1.062-.042-5.397h-.07l-2.334 14.148-2.335 14.149-5.564.084-.951-1.482-2-12.191-2.362-14.358h-.07l-.07 6.179-.014.447-1.733 6.194-5.579-1.622-1.076-7.843-1.286-9.409-1.189-8.626z"/>
        <path stroke="#B8B9B9" stroke-width=".52" d="m43.5 30.058 5.984.112 6.99 15.63 6.85 15.323.07.028.294-.098 1.062-1.692 5.844-12.792 6.962-15.239 1.678-.797h3.97l-1.076 8.528-1.076 8.543-1.398 11.058-.77 6.026-5.522 1.58-1.733-6.795-.266-1.062-.042-5.397h-.07l-2.334 14.148-2.335 14.149-5.564.084-.951-1.482-2-12.191-2.362-14.358h-.07l-.07 6.179-.014.447-1.733 6.194-5.579-1.622-1.076-7.843-1.286-9.409-1.189-8.626z"/>
        <path fill="#FFF" fill-rule="nonzero" d="m46.184 31.903 5.9.126 6.92 15.449 6.78 15.113.07.028.294-.056 1.063-1.65 5.788-12.61 6.892-15.03 1.622-.852h3.928l-1.146 8.234-1.146 8.249-1.482 10.68-.825 5.817-5.257 1.677-1.831-5.885-.28-.937-.056-4.614h-.07l-2.18 13.715-2.182 13.701-5.396.098-.965-1.384-1.873-11.828-2.209-13.938h-.07l-.084 5.243-.014.391-1.831 5.355-5.327-1.72-1.146-7.577-1.37-9.102-1.259-8.346z"/>
        <path stroke="#B8B9B9" stroke-width=".52" d="m46.184 31.903 5.9.126 6.92 15.449 6.78 15.113.07.028.294-.056 1.063-1.65 5.788-12.61 6.892-15.03 1.622-.852h3.928l-1.146 8.234-1.146 8.249-1.482 10.68-.825 5.817-5.257 1.677-1.831-5.885-.28-.937-.056-4.614h-.07l-2.18 13.715-2.182 13.701-5.396.098-.965-1.384-1.873-11.828-2.209-13.938h-.07l-.084 5.243-.014.391-1.831 5.355-5.327-1.72-1.146-7.577-1.37-9.102-1.259-8.346z"/>
        <path fill="#FFF" fill-rule="nonzero" d="m48.868 33.763 5.816.14 6.85 15.238 6.711 14.918.07.028.28-.014 1.076-1.622 5.732-12.429 6.837-14.82 1.566-.894h3.858l-1.202 7.941-1.216 7.955-1.58 10.304-.853 5.606-5.005 1.775-1.93-4.99-.307-.784-.056-3.844h-.056l-2.04 13.267L71.39 84.82l-5.229.098-.978-1.273-1.762-11.478-2.055-13.519h-.07l-.084 4.32v.308l-1.957 4.53-5.061-1.832-1.202-7.312-1.454-8.78-1.328-8.066z"/>
        <path stroke="#B8B9B9" stroke-width=".51" d="m48.868 33.763 5.816.14 6.85 15.238 6.711 14.918.07.028.28-.014 1.076-1.622 5.732-12.429 6.837-14.82 1.566-.894h3.858l-1.202 7.941-1.216 7.955-1.58 10.304-.853 5.606-5.005 1.775-1.93-4.99-.307-.784-.056-3.844h-.056l-2.04 13.267L71.39 84.82l-5.229.098-.978-1.273-1.762-11.478-2.055-13.519h-.07l-.084 4.32v.308l-1.957 4.53-5.061-1.832-1.202-7.312-1.454-8.78-1.328-8.066z"/>
        <path fill="#FFF" fill-rule="nonzero" d="m51.553 35.622 5.718.14 6.794 15.057 6.641 14.708.07.028.28.028 1.076-1.58 5.69-12.261 6.767-14.596 1.496-.95H89.9l-1.272 7.647-1.286 7.661-1.664 9.926-.909 5.41-4.725 1.874-2.055-4.11-.322-.643-.056-3.062h-.056L75.67 73.733l-1.887 12.834-5.047.112-.993-1.174-1.636-11.115-1.915-13.085h-.056l-.098 3.383v.237l-2.055 3.691-4.81-1.929-1.271-7.06-1.524-8.458-1.412-7.774z"/>
        <path stroke="#B8B9B9" stroke-width=".51" d="m51.553 35.622 5.718.14 6.794 15.057 6.641 14.708.07.028.28.028 1.076-1.58 5.69-12.261 6.767-14.596 1.496-.95H89.9l-1.272 7.647-1.286 7.661-1.664 9.926-.909 5.41-4.725 1.874-2.055-4.11-.322-.643-.056-3.062h-.056L75.67 73.733l-1.887 12.834-5.047.112-.993-1.174-1.636-11.115-1.915-13.085h-.056l-.098 3.383v.237l-2.055 3.691-4.81-1.929-1.271-7.06-1.524-8.458-1.412-7.774z"/>
        <path fill="#FFF" fill-rule="nonzero" d="m54.237 37.482 5.634.14 6.739 14.875 6.557 14.498.056.028.293.07 1.077-1.552 5.634-12.08 6.71-14.386 1.44-.992h3.761l-1.342 7.354-1.356 7.381-1.748 9.535-.964 5.2-4.46 1.972-2.153-3.201-.336-.518-.056-2.293h-.055L77.92 75.928l-1.734 12.4-4.879.113-1.006-1.077-1.51-10.737-1.776-12.68h-.042l-.098 2.446-.014.168-2.167 2.866-4.543-2.027-1.328-6.795-1.622-8.164-1.482-7.48z"/>
        <path stroke="#B8B9B9" stroke-width=".51" d="m54.237 37.482 5.634.14 6.739 14.875 6.557 14.498.056.028.293.07 1.077-1.552 5.634-12.08 6.71-14.386 1.44-.992h3.761l-1.342 7.354-1.356 7.381-1.748 9.535-.964 5.2-4.46 1.972-2.153-3.201-.336-.518-.056-2.293h-.055L77.92 75.928l-1.734 12.4-4.879.113-1.006-1.077-1.51-10.737-1.776-12.68h-.042l-.098 2.446-.014.168-2.167 2.866-4.543-2.027-1.328-6.795-1.622-8.164-1.482-7.48z"/>
        <path fill="#FFF" fill-rule="nonzero" d="m56.921 39.327 5.55.168 6.67 14.68 6.486 14.288.056.027.28.112 1.09-1.51 5.578-11.897 6.655-14.176 1.37-1.049h3.72l-1.427 7.06-1.412 7.089-1.831 9.157-1.007 4.99-4.194 2.07-2.265-2.307-.364-.363-.055-1.524h-.056l-1.58 11.967L78.59 90.09l-4.711.112-1.021-.964-1.384-10.388-1.622-12.26h-.056l-.098 1.523-.014.098-2.264 2.027-4.278-2.125-1.412-6.543-1.692-7.843-1.552-7.2z"/>
        <path stroke="#B8B9B9" stroke-width=".51" d="m56.921 39.327 5.55.168 6.67 14.68 6.486 14.288.056.027.28.112 1.09-1.51 5.578-11.897 6.655-14.176 1.37-1.049h3.72l-1.427 7.06-1.412 7.089-1.831 9.157-1.007 4.99-4.194 2.07-2.265-2.307-.364-.363-.055-1.524h-.056l-1.58 11.967L78.59 90.09l-4.711.112-1.021-.964-1.384-10.388-1.622-12.26h-.056l-.098 1.523-.014.098-2.264 2.027-4.278-2.125-1.412-6.543-1.692-7.843-1.552-7.2z"/>
        <path fill="#FFF" fill-rule="nonzero" d="m59.605 41.187 5.453.167 6.613 14.484 6.417 14.092.056.014.28.168 1.09-1.482 5.536-11.715 6.585-13.967 1.314-1.104h3.649l-1.482 6.78-1.482 6.795-1.93 8.78-1.048 4.795-3.928 2.167-2.377-1.426-.363-.224-.07-.74h-.042l-1.44 11.533-1.454 11.534-4.53.126-1.049-.867-1.244-10.024-1.482-11.828h-.042l-.112.574-.013.042-2.377 1.188-4.013-2.237-1.482-6.263-1.775-7.536-1.622-6.906z"/>
        <path stroke="#B8B9B9" stroke-width=".5" d="m59.605 41.187 5.453.167 6.613 14.484 6.417 14.092.056.014.28.168 1.09-1.482 5.536-11.715 6.585-13.967 1.314-1.104h3.649l-1.482 6.78-1.482 6.795-1.93 8.78-1.048 4.795-3.928 2.167-2.377-1.426-.363-.224-.07-.74h-.042l-1.44 11.533-1.454 11.534-4.53.126-1.049-.867-1.244-10.024-1.482-11.828h-.042l-.112.574-.013.042-2.377 1.188-4.013-2.237-1.482-6.263-1.775-7.536-1.622-6.906z"/>
        <path fill="#FFF" fill-rule="nonzero" d="m62.29 43.046 5.368.168 6.543 14.302 6.347 13.868.056.028.266.21 1.104-1.44 5.48-11.548 6.516-13.743 1.258-1.16h3.607l-1.552 6.487-1.552 6.5-2.013 8.403-1.104 4.586-3.663 2.265-2.475-.532-.391-.07-.07.028h-.028l-1.3 11.101-1.3 11.1-4.363.126-1.062-.769-1.133-9.66-1.328-11.408h-.042l-.111-.35v-.042l-2.489.364-3.76-2.335-1.539-6.012-1.859-7.214-1.706-6.626z"/>
        <path stroke="#B8B9B9" stroke-width=".5" d="m62.29 43.046 5.368.168 6.543 14.302 6.347 13.868.056.028.266.21 1.104-1.44 5.48-11.548 6.516-13.743 1.258-1.16h3.607l-1.552 6.487-1.552 6.5-2.013 8.403-1.104 4.586-3.663 2.265-2.475-.532-.391-.07-.07.028h-.028l-1.3 11.101-1.3 11.1-4.363.126-1.062-.769-1.133-9.66-1.328-11.408h-.042l-.111-.35v-.042l-2.489.364-3.76-2.335-1.539-6.012-1.859-7.214-1.706-6.626z"/>
        <path fill="#FFF" fill-rule="nonzero" d="m64.974 44.905 5.27.182 6.488 14.106 6.277 13.66.042.027.28.252 1.104-1.412 5.424-11.366 6.46-13.533 1.202-1.203h3.55l-1.621 6.194-1.622 6.207-2.097 8.025-1.146 4.376-3.398 2.363-2.586.377-.405.056-.084.81h-.028l-1.147 10.668-1.146 10.653-4.194.14-1.077-.657-1.006-9.311-1.189-10.989h-.028l-.125-1.272v-.112l-2.6-.475-3.496-2.433-1.608-5.76-1.929-6.892-1.79-6.347z"/>
        <path stroke="#B8B9B9" stroke-width=".5" d="m64.974 44.905 5.27.182 6.488 14.106 6.277 13.66.042.027.28.252 1.104-1.412 5.424-11.366 6.46-13.533 1.202-1.203h3.55l-1.621 6.194-1.622 6.207-2.097 8.025-1.146 4.376-3.398 2.363-2.586.377-.405.056-.084.81h-.028l-1.147 10.668-1.146 10.653-4.194.14-1.077-.657-1.006-9.311-1.189-10.989h-.028l-.125-1.272v-.112l-2.6-.475-3.496-2.433-1.608-5.76-1.929-6.892-1.79-6.347z"/>
        <path fill="#FFF" fill-rule="nonzero" d="m67.658 46.765 5.187.181 6.417 13.925 6.207 13.45.042.027.266.294 1.132-1.37 5.369-11.185 6.39-13.323 1.132-1.258h3.495l-1.678 5.9-1.692 5.913-2.18 7.648-1.203 4.18-3.132 2.46-2.698 1.259-.42.195-.07 1.58h-.027l-1.007 10.234-.992 10.234-4.027.14-1.09-.56-.881-8.947-1.035-10.556h-.041l-.112-2.223-.014-.167-2.699-1.314-3.243-2.545-1.678-5.48-2.013-6.6-1.845-6.053z"/>
        <path stroke="#B8B9B9" stroke-width=".49" d="m67.658 46.765 5.187.181 6.417 13.925 6.207 13.45.042.027.266.294 1.132-1.37 5.369-11.185 6.39-13.323 1.132-1.258h3.495l-1.678 5.9-1.692 5.913-2.18 7.648-1.203 4.18-3.132 2.46-2.698 1.259-.42.195-.07 1.58h-.027l-1.007 10.234-.992 10.234-4.027.14-1.09-.56-.881-8.947-1.035-10.556h-.041l-.112-2.223-.014-.167-2.699-1.314-3.243-2.545-1.678-5.48-2.013-6.6-1.845-6.053z"/>
        <path fill="#FFF" fill-rule="nonzero" d="m70.343 48.61 5.102.196 6.348 13.729 6.137 13.253.042.028.266.336 1.132-1.342 5.313-11.003 6.333-13.114 1.076-1.3h3.44L103.784 55l-1.762 5.62-2.278 7.27-1.245 3.97-2.866 2.56-2.796 2.152-.447.35-.07 2.348h-.028l-.853 9.8-.853 9.801-3.844.14-1.105-.461-.769-8.57-1.034-13.296-.014-.252-2.81-2.139-4.712-7.87-2.097-6.278-1.93-5.76z"/>
        <path stroke="#B8B9B9" stroke-width=".49" d="m70.343 48.61 5.102.196 6.348 13.729 6.137 13.253.042.028.266.336 1.132-1.342 5.313-11.003 6.333-13.114 1.076-1.3h3.44L103.784 55l-1.762 5.62-2.278 7.27-1.245 3.97-2.866 2.56-2.796 2.152-.447.35-.07 2.348h-.028l-.853 9.8-.853 9.801-3.844.14-1.105-.461-.769-8.57-1.034-13.296-.014-.252-2.81-2.139-4.712-7.87-2.097-6.278-1.93-5.76z"/>
        <path fill="#FFF" fill-rule="nonzero" d="m73.027 50.47 5.005.21 6.305 13.532 6.054 13.044.028.028.265.378 1.147-1.3 5.256-10.835 6.278-12.89 1.006-1.357h3.397l-1.817 5.313-1.832 5.327-2.362 6.892-1.286 3.76-2.6 2.657-2.923 3.062-.447.475-.084 3.132h-.014l-.713 9.367-.699 9.353-3.677.154-1.118-.35-.643-8.22-.895-13.8-.014-.32-6.823-10.584-2.796-6.068-1.999-5.48z"/>
        <path stroke="#B8B9B9" stroke-width=".49" d="m73.027 50.47 5.005.21 6.305 13.532 6.054 13.044.028.028.265.378 1.147-1.3 5.256-10.835 6.278-12.89 1.006-1.357h3.397l-1.817 5.313-1.832 5.327-2.362 6.892-1.286 3.76-2.6 2.657-2.923 3.062-.447.475-.084 3.132h-.014l-.713 9.367-.699 9.353-3.677.154-1.118-.35-.643-8.22-.895-13.8-.014-.32-6.823-10.584-2.796-6.068-1.999-5.48z"/>
        <path fill="#FFF" fill-rule="nonzero" d="m75.711 52.329 4.921.21 6.236 13.351 5.983 12.834.028.028.266.42 1.146-1.273 5.2-10.653 6.222-12.68.95-1.398h3.328l-1.873 5.019-1.901 5.033-2.447 6.515-1.342 3.55-2.335 2.769-3.02 3.942-.475.616-.084 3.914H96.5l-.545 8.92-.56 8.933-3.508.154-1.147-.252-.503-7.857-.755-14.316-.014-.377-9.605-17.014-2.069-5.201z"/>
        <path stroke="#B8B9B9" stroke-width=".49" d="m75.711 52.329 4.921.21 6.236 13.351 5.983 12.834.028.028.266.42 1.146-1.273 5.2-10.653 6.222-12.68.95-1.398h3.328l-1.873 5.019-1.901 5.033-2.447 6.515-1.342 3.55-2.335 2.769-3.02 3.942-.475.616-.084 3.914H96.5l-.545 8.92-.56 8.933-3.508.154-1.147-.252-.503-7.857-.755-14.316-.014-.377-9.605-17.014-2.069-5.201z"/>
        <path fill="#FFF" fill-rule="nonzero" d="m78.395 54.188 4.838.21 6.165 13.17 5.914 12.624.028.028.251.462 1.16-1.23 5.16-10.472 6.151-12.47.895-1.455h3.271l-1.957 4.726-1.957 4.739-2.53 6.137-1.385 3.356-2.083 2.852-3.118 4.837-.489.769-.084 4.67-.014.014-.405 8.486-.406 8.486-3.341.168-1.16-.14-.378-7.508-.601-14.82-.014-.46L82.7 63.989l-2.153-4.893z"/>
        <path stroke="#B8B9B9" stroke-width=".48" d="m78.395 54.188 4.838.21 6.165 13.17 5.914 12.624.028.028.251.462 1.16-1.23 5.16-10.472 6.151-12.47.895-1.455h3.271l-1.957 4.726-1.957 4.739-2.53 6.137-1.385 3.356-2.083 2.852-3.118 4.837-.489.769-.084 4.67-.014.014-.405 8.486-.406 8.486-3.341.168-1.16-.14-.378-7.508-.601-14.82-.014-.46L82.7 63.989l-2.153-4.893z"/>
        <path fill="#FFF" fill-rule="nonzero" d="m81.08 56.034 4.739.238 6.11 12.96 5.843 12.428.028.028.252.503 1.16-1.202 5.103-10.29 6.082-12.26.839-1.496h3.23l-2.028 4.431-2.027 4.446-2.615 5.76-1.44 3.146-1.803 2.964-3.244 5.732-.503.894-.084 5.453h-.014l-.251 8.067-.266 8.052-3.16.168-1.174-.042-.545-21.46-9.787-19.279-2.223-4.614z"/>
        <path stroke="#B8B9B9" stroke-width=".48" d="m81.08 56.034 4.739.238 6.11 12.96 5.843 12.428.028.028.252.503 1.16-1.202 5.103-10.29 6.082-12.26.839-1.496h3.23l-2.028 4.431-2.027 4.446-2.615 5.76-1.44 3.146-1.803 2.964-3.244 5.732-.503.894-.084 5.453h-.014l-.251 8.067-.266 8.052-3.16.168-1.174-.042-.545-21.46-9.787-19.279-2.223-4.614z"/>
        <path fill="#FFF" fill-rule="nonzero" d="m100.499 83.701 1.09-2.013 11.156-23.795h3.957l-6.906 14.61-7.746 15.225.238 19.908h-3.803l.154-22.075-7.773-14.288-7.102-13.38h4.655l6.04 13.016z"/>
        <path stroke="#B8B9B9" stroke-width=".47" d="m100.499 83.701 1.09-2.013 11.156-23.795h3.957l-6.906 14.61-7.746 15.225.238 19.908h-3.803l.154-22.075-7.773-14.288-7.102-13.38h4.655l6.04 13.016z"/>
    </g>
</svg>
