<svg width="63" height="8" viewBox="0 0 63 8" xmlns="http://www.w3.org/2000/svg">
    <g fill="#E2E8E3" fill-rule="nonzero">
        <path d="M5.39 3.055H2.384V.049H.944v7.927h1.44V4.257H5.39v3.719h1.44V.049H5.39zM12.199.049h-1.217L8.186 7.78l-.07.196h1.329l.768-2.153h2.42l.656 2.153h1.524L12.227.146 12.199.05zm.098 4.614h-1.65l.88-2.503.77 2.503zM21.118 5.543 17.33.12l-.056-.07h-1.147v7.927h1.342v-5.48l3.79 5.48h1.201V.049h-1.342zM27.87.16 27.83.064h-1.216L23.83 7.794l-.07.196h1.329l.769-2.153h2.418l.657 2.153h1.524L27.871.16zm.057 4.516h-1.65l.895-2.502.769 2.502h-.014zM40.789.566l-.21.909a3.184 3.184 0 0 0-.727-.364 2.78 2.78 0 0 0-.95-.167c-.406 0-.783.07-1.105.223a2.5 2.5 0 0 0-.839.63c-.237.265-.42.587-.545.95a3.698 3.698 0 0 0-.196 1.216c0 .476.07.91.21 1.287.14.377.335.699.573.964.238.266.531.462.853.615.335.14.685.21 1.062.21.336 0 .63-.042.91-.14.279-.097.516-.21.726-.335l.196.923c-.252.14-.545.251-.895.335a4.37 4.37 0 0 1-1.02.14c-.602 0-1.147-.098-1.608-.294a3.267 3.267 0 0 1-1.189-.81 3.63 3.63 0 0 1-.713-1.273 5.02 5.02 0 0 1-.251-1.636c0-.53.084-1.034.251-1.495.168-.476.406-.895.727-1.245.322-.363.727-.643 1.203-.866.475-.21 1.034-.322 1.663-.322.35 0 .686.056 1.035.14.336.098.615.223.839.377M45.64.049l2.475 7.927H46.94l-.643-2.237h-2.6l-.755 2.237h-.993L44.647.049h.993zm.392 4.795-.937-3.257-1.09 3.257h2.04-.013zM49.569 7.976V.049h2.502c.308 0 .601.056.867.154.266.112.49.251.685.433a2.158 2.158 0 0 1 .615 1.524c0 .587-.098 1.063-.28 1.412-.195.364-.433.643-.74.839l1.663 3.55h-1.286l-1.44-3.229h-1.468v3.23H49.57v.014zM50.687.972V3.81h1.007c.28 0 .517-.042.699-.14.181-.098.335-.21.433-.35.112-.14.182-.307.224-.475.042-.168.056-.335.056-.503 0-.462-.112-.811-.35-1.035a1.184 1.184 0 0 0-.839-.335h-1.23zM56.643.049h2.18c.7 0 1.287.112 1.776.335.49.224.881.504 1.189.867.307.35.53.741.67 1.189.14.447.21.908.21 1.356 0 .629-.083 1.202-.265 1.705-.182.518-.434.951-.755 1.328a3.354 3.354 0 0 1-1.23.853c-.476.196-1.035.294-1.65.294h-2.14V.049h.015zm1.118.923v6.067h.993c.88 0 1.566-.293 2.041-.867.49-.573.713-1.384.713-2.418 0-.811-.238-1.482-.699-2-.461-.517-1.118-.782-1.985-.782h-1.077.014z"/>
    </g>
</svg>
