<svg width="124" height="115" viewBox="0 0 124 115" xmlns="http://www.w3.org/2000/svg">
    <g fill="none" fill-rule="evenodd">
        <path d="M91.717 1.538h1.943l6.068 4.292h.293l1.426-.992 4.726-3.286h1.943l4.865 3.397 1.272.895h.825l5.998-4.292h1.076l-8.71 38.894h-.796l-1.566-4.054c-.028-.112.056-.224.168-.224l-.21.112-1.706 4.236h-7.046l-.67-.098-.49-15.169-9.41-23.683v-.028z" fill="#FFF" fill-rule="nonzero"/>
        <path d="M91.717 1.538h1.943l6.068 4.292h.293l1.426-.992 4.726-3.286h1.943l4.865 3.397 1.272.895h.825l5.998-4.292h1.076l-8.71 38.894h-.796l-1.566-4.054c-.028-.112.056-.224.168-.224l-.21.112-1.706 4.236h-7.046l-.67-.098-.49-15.169-9.41-23.683v-.028z" stroke="#B8B9B9" stroke-width=".49"/>
        <path d="M89.83 4.013h1.943l6.067 4.292h.294l1.426-.993 4.725-3.285h1.944l4.865 3.397 1.272.895h.825l5.998-4.292h1.076l-8.71 38.894h-.797l-1.565-4.055c-.028-.112.055-.223.167-.223l-.21.111-1.705 4.237h-7.046l-.671-.098-.49-15.17L89.83 4.042v-.028z" fill="#FFF" fill-rule="nonzero"/>
        <path d="M89.83 4.013h1.943l6.067 4.292h.294l1.426-.993 4.725-3.285h1.944l4.865 3.397 1.272.895h.825l5.998-4.292h1.076l-8.71 38.894h-.797l-1.565-4.055c-.028-.112.055-.223.167-.223l-.21.111-1.705 4.237h-7.046l-.671-.098-.49-15.17L89.83 4.042v-.028z" stroke="#B8B9B9" stroke-width=".49"/>
        <path fill="#FFF" fill-rule="nonzero" d="m115.372 37.636-1.342.07h-7.41V23.264L97.113.993H123.536"/>
        <path stroke="#B8B9B9" stroke-width=".47" d="m115.372 37.636-1.342.07h-7.41V23.264L97.113.993H123.536"/>
        <path d="M87.788 6.152h1.944l6.067 4.292h.294l1.426-.993 4.725-3.285h1.943l4.866 3.397 1.272.895h.825l5.997-4.292h1.077l-8.71 38.894h-.797l-1.566-4.055c-.028-.112.056-.223.168-.223l-.21.111-1.705 4.237h-7.046l-.671-.098-.49-15.17L87.788 6.18v-.028z" fill="#FFF" fill-rule="nonzero"/>
        <path d="M87.788 6.152h1.944l6.067 4.292h.294l1.426-.993 4.725-3.285h1.943l4.866 3.397 1.272.895h.825l5.997-4.292h1.077l-8.71 38.894h-.797l-1.566-4.055c-.028-.112.056-.223.168-.223l-.21.111-1.705 4.237h-7.046l-.671-.098-.49-15.17L87.788 6.18v-.028z" stroke="#B8B9B9" stroke-width=".49"/>
        <path d="M84.685 7.871h2.195l6.193 5.718h.336l1.467-1.328 4.838-4.39h2.209l4.977 4.53 1.3 1.188h.95l6.082-5.718h1.216l-8.891 39.65h-1.049l-1.915-5.425c-.042-.154.07-.308.224-.308l-.294.154-2.041 5.634H95.31l-.643-.14-.657-15.42L84.629 7.87h.056z" fill="#FFF" fill-rule="nonzero"/>
        <path d="M84.685 7.871h2.195l6.193 5.718h.336l1.467-1.328 4.838-4.39h2.209l4.977 4.53 1.3 1.188h.95l6.082-5.718h1.216l-8.891 39.65h-1.049l-1.915-5.425c-.042-.154.07-.308.224-.308l-.294.154-2.041 5.634H95.31l-.643-.14-.657-15.42L84.629 7.87h.056z" stroke="#B8B9B9" stroke-width=".49"/>
        <path d="M81.581 9.577h2.46l6.334 7.144h.391l1.496-1.664 4.95-5.48h2.46l5.089 5.662 1.328 1.482h1.062l6.166-7.144h1.37l-9.06 40.39h-1.3l-2.25-6.795c-.056-.195.083-.377.293-.377l-.363.196-2.377 7.032h-7.284l-.643-.168-.811-15.658-9.339-24.62h.028z" fill="#FFF" fill-rule="nonzero"/>
        <path d="M81.581 9.577h2.46l6.334 7.144h.391l1.496-1.664 4.95-5.48h2.46l5.089 5.662 1.328 1.482h1.062l6.166-7.144h1.37l-9.06 40.39h-1.3l-2.25-6.795c-.056-.195.083-.377.293-.377l-.363.196-2.377 7.032h-7.284l-.643-.168-.811-15.658-9.339-24.62h.028z" stroke="#B8B9B9" stroke-width=".49"/>
        <path d="M78.463 11.297h2.727l6.459 8.57h.433l1.524-1.986 5.06-6.584h2.727l5.2 6.794 1.37 1.776h1.19l6.248-8.57h1.524l-9.24 41.144h-1.553l-2.586-8.15a.367.367 0 0 1 .35-.462l-.434.224-2.712 8.444h-7.41l-.615-.195-.979-15.91-9.31-25.095h.027z" fill="#FFF" fill-rule="nonzero"/>
        <path d="M78.463 11.297h2.727l6.459 8.57h.433l1.524-1.986 5.06-6.584h2.727l5.2 6.794 1.37 1.776h1.19l6.248-8.57h1.524l-9.24 41.144h-1.553l-2.586-8.15a.367.367 0 0 1 .35-.462l-.434.224-2.712 8.444h-7.41l-.615-.195-.979-15.91-9.31-25.095h.027z" stroke="#B8B9B9" stroke-width=".5"/>
        <path d="M75.36 13.016h2.991l6.585 9.996h.476l1.565-2.32 5.173-7.676h2.992l5.327 7.927 1.398 2.083h1.314l6.333-9.996h1.664l-9.423 41.886h-1.79l-2.922-9.52a.421.421 0 0 1 .406-.532l-.503.266-3.048 9.842h-7.522l-.6-.238-1.147-16.147-9.27-25.557v-.014z" fill="#FFF" fill-rule="nonzero"/>
        <path d="M75.36 13.016h2.991l6.585 9.996h.476l1.565-2.32 5.173-7.676h2.992l5.327 7.927 1.398 2.083h1.314l6.333-9.996h1.664l-9.423 41.886h-1.79l-2.922-9.52a.421.421 0 0 1 .406-.532l-.503.266-3.048 9.842h-7.522l-.6-.238-1.147-16.147-9.27-25.557v-.014z" stroke="#B8B9B9" stroke-width=".5"/>
        <path d="M72.256 14.736h3.243l6.711 11.436h.517l1.594-2.656 5.285-8.78h3.257l5.439 9.06 1.426 2.376h1.426l6.417-11.436h1.817l-9.59 42.64h-2.042L94.5 46.486a.491.491 0 0 1 .475-.615l-.573.307-3.383 11.24H83.37l-.587-.265-1.3-16.385-9.241-26.032h.014z" fill="#FFF" fill-rule="nonzero"/>
        <path d="M72.256 14.736h3.243l6.711 11.436h.517l1.594-2.656 5.285-8.78h3.257l5.439 9.06 1.426 2.376h1.426l6.417-11.436h1.817l-9.59 42.64h-2.042L94.5 46.486a.491.491 0 0 1 .475-.615l-.573.307-3.383 11.24H83.37l-.587-.265-1.3-16.385-9.241-26.032h.014z" stroke="#B8B9B9" stroke-width=".5"/>
        <path d="M69.152 16.455h3.51l6.85 12.863h.56l1.635-2.992 5.396-9.87h3.51l5.55 10.191 1.454 2.67h1.551l6.501-12.862h1.958l-9.773 43.396h-2.279l-3.593-12.247a.548.548 0 0 1 .532-.685l-.643.35-3.72 12.638h-7.758l-.574-.308-1.468-16.636-9.199-26.508z" fill="#FFF" fill-rule="nonzero"/>
        <path d="M69.152 16.455h3.51l6.85 12.863h.56l1.635-2.992 5.396-9.87h3.51l5.55 10.191 1.454 2.67h1.551l6.501-12.862h1.958l-9.773 43.396h-2.279l-3.593-12.247a.548.548 0 0 1 .532-.685l-.643.35-3.72 12.638h-7.758l-.574-.308-1.468-16.636-9.199-26.508z" stroke="#B8B9B9" stroke-width=".51"/>
        <path d="M66.035 18.161h3.774l6.977 14.288h.6l1.664-3.313L84.56 18.16h3.775l5.662 11.31 1.482 2.964h1.663l6.585-14.288h2.111l-9.954 44.137h-2.53l-3.929-13.617a.609.609 0 0 1 .587-.77l-.713.378-4.054 14.037h-7.871l-.56-.336-1.621-16.874-9.171-26.983.014.042z" fill="#FFF" fill-rule="nonzero"/>
        <path d="M66.035 18.161h3.774l6.977 14.288h.6l1.664-3.313L84.56 18.16h3.775l5.662 11.31 1.482 2.964h1.663l6.585-14.288h2.111l-9.954 44.137h-2.53l-3.929-13.617a.609.609 0 0 1 .587-.77l-.713.378-4.054 14.037h-7.871l-.56-.336-1.621-16.874-9.171-26.983.014.042z" stroke="#B8B9B9" stroke-width=".51"/>
        <path d="M62.93 19.88h4.027l7.102 15.715h.658l1.691-3.65 5.62-12.064h4.04l5.789 12.442 1.51 3.272h1.79l6.668-15.714h2.265L93.968 64.772h-2.782L86.922 49.8a.67.67 0 0 1 .643-.839l-.783.42-4.39 15.434h-7.997l-.545-.363-1.79-17.127-9.143-27.443h.014z" fill="#FFF" fill-rule="nonzero"/>
        <path d="M62.93 19.88h4.027l7.102 15.715h.658l1.691-3.65 5.62-12.064h4.04l5.789 12.442 1.51 3.272h1.79l6.668-15.714h2.265L93.968 64.772h-2.782L86.922 49.8a.67.67 0 0 1 .643-.839l-.783.42-4.39 15.434h-7.997l-.545-.363-1.79-17.127-9.143-27.443h.014z" stroke="#B8B9B9" stroke-width=".51"/>
        <path d="M59.827 21.6h4.292l7.228 17.14h.7l1.733-3.984 5.732-13.17h4.292l5.9 13.575 1.538 3.565h1.915l6.752-17.14h2.405L92.01 67.233h-3.02L84.392 50.89a.74.74 0 0 1 .713-.923l-.853.461-4.725 16.847h-8.123l-.531-.406-1.957-17.364-9.102-27.919.014.014z" fill="#FFF" fill-rule="nonzero"/>
        <path d="M59.827 21.6h4.292l7.228 17.14h.7l1.733-3.984 5.732-13.17h4.292l5.9 13.575 1.538 3.565h1.915l6.752-17.14h2.405L92.01 67.233h-3.02L84.392 50.89a.74.74 0 0 1 .713-.923l-.853.461-4.725 16.847h-8.123l-.531-.406-1.957-17.364-9.102-27.919.014.014z" stroke="#B8B9B9" stroke-width=".52"/>
        <path d="M56.71 23.32h4.557l7.354 18.58h.741l1.762-4.306 5.843-14.26h4.558l6.012 14.707 1.58 3.859h2.027l6.836-18.58h2.559L90.053 69.707h-3.271l-4.935-17.713a.797.797 0 0 1 .769-.993l-.923.504-5.061 18.244h-8.235l-.517-.433-2.111-17.602-9.073-28.394h.014z" fill="#FFF" fill-rule="nonzero"/>
        <path d="M56.71 23.32h4.557l7.354 18.58h.741l1.762-4.306 5.843-14.26h4.558l6.012 14.707 1.58 3.859h2.027l6.836-18.58h2.559L90.053 69.707h-3.271l-4.935-17.713a.797.797 0 0 1 .769-.993l-.923.504-5.061 18.244h-8.235l-.517-.433-2.111-17.602-9.073-28.394h.014z" stroke="#B8B9B9" stroke-width=".52"/>
        <path d="M53.606 25.04h4.823l7.494 20.006h.783l1.803-4.642 5.956-15.364h4.823l6.124 15.84 1.607 4.166h2.153l6.92-20.006h2.699L88.138 72.182h-3.523l-5.27-19.07a.858.858 0 0 1 .824-1.076l-.993.531L73.78 72.21h-8.36l-.504-.476-2.279-17.853-9.031-28.855v.014z" fill="#FFF" fill-rule="nonzero"/>
        <path d="M53.606 25.04h4.823l7.494 20.006h.783l1.803-4.642 5.956-15.364h4.823l6.124 15.84 1.607 4.166h2.153l6.92-20.006h2.699L88.138 72.182h-3.523l-5.27-19.07a.858.858 0 0 1 .824-1.076l-.993.531L73.78 72.21h-8.36l-.504-.476-2.279-17.853-9.031-28.855v.014z" stroke="#B8B9B9" stroke-width=".52"/>
        <path d="M50.502 26.745h5.075l7.62 21.432h.824l1.832-4.977 6.067-16.455h5.09l6.249 16.973 1.635 4.46h2.265l7.004-21.433h2.852L86.181 74.642H82.42l-5.606-20.44a.908.908 0 0 1 .88-1.145l-1.062.573L70.9 74.67h-8.472l-.49-.503-2.446-18.09-9.004-29.332h.014z" fill="#FFF" fill-rule="nonzero"/>
        <path d="M50.502 26.745h5.075l7.62 21.432h.824l1.832-4.977 6.067-16.455h5.09l6.249 16.973 1.635 4.46h2.265l7.004-21.433h2.852L86.181 74.642H82.42l-5.606-20.44a.908.908 0 0 1 .88-1.145l-1.062.573L70.9 74.67h-8.472l-.49-.503-2.446-18.09-9.004-29.332h.014z" stroke="#B8B9B9" stroke-width=".53"/>
        <path d="M47.399 28.465h5.34l7.745 22.858h.867l1.874-5.313 6.179-17.56h5.34l6.362 18.106 1.663 4.753h2.391l7.088-22.858h2.992L84.223 77.089h-4.012l-5.942-21.796a.99.99 0 0 1 .95-1.23l-1.132.615-6.067 22.439h-8.598l-.476-.531-2.6-18.329-8.961-29.806.014.014z" fill="#FFF" fill-rule="nonzero"/>
        <path d="M47.399 28.465h5.34l7.745 22.858h.867l1.874-5.313 6.179-17.56h5.34l6.362 18.106 1.663 4.753h2.391l7.088-22.858h2.992L84.223 77.089h-4.012l-5.942-21.796a.99.99 0 0 1 .95-1.23l-1.132.615-6.067 22.439h-8.598l-.476-.531-2.6-18.329-8.961-29.806.014.014z" stroke="#B8B9B9" stroke-width=".53"/>
        <path d="M44.28 30.184h5.607l7.871 24.285h.923l1.901-5.635 6.291-18.65h5.607l6.473 19.238 1.691 5.047h2.517l7.172-24.285h3.145L82.28 79.578h-4.264l-6.277-23.166a1.039 1.039 0 0 1 1.006-1.3l-1.202.643-6.403 23.837h-8.71l-.447-.574-2.769-18.58-8.933-30.282v.028z" fill="#FFF" fill-rule="nonzero"/>
        <path d="M44.28 30.184h5.607l7.871 24.285h.923l1.901-5.635 6.291-18.65h5.607l6.473 19.238 1.691 5.047h2.517l7.172-24.285h3.145L82.28 79.578h-4.264l-6.277-23.166a1.039 1.039 0 0 1 1.006-1.3l-1.202.643-6.403 23.837h-8.71l-.447-.574-2.769-18.58-8.933-30.282v.028z" stroke="#B8B9B9" stroke-width=".53"/>
        <path d="M41.177 31.904h5.872l8.01 25.724h.966l1.929-5.97 6.403-19.74h5.872l6.585 20.37 1.733 5.354h2.629l7.255-25.724h3.286L80.35 82.066h-4.502l-6.613-24.522a1.095 1.095 0 0 1 1.063-1.37l-1.273.685-6.738 25.25h-8.836l-.433-.602-2.922-18.818-8.906-30.743-.014-.042z" fill="#FFF" fill-rule="nonzero"/>
        <path d="M41.177 31.904h5.872l8.01 25.724h.966l1.929-5.97 6.403-19.74h5.872l6.585 20.37 1.733 5.354h2.629l7.255-25.724h3.286L80.35 82.066h-4.502l-6.613-24.522a1.095 1.095 0 0 1 1.063-1.37l-1.273.685-6.738 25.25h-8.836l-.433-.602-2.922-18.818-8.906-30.743-.014-.042z" stroke="#B8B9B9" stroke-width=".54"/>
        <path d="M38.074 33.61h6.123l8.137 27.15h1.006l1.972-6.305 6.5-20.845h6.124l6.71 21.502 1.762 5.648h2.754l7.34-27.15h3.44L78.392 84.499H73.64l-6.948-25.892a1.157 1.157 0 0 1 1.118-1.454l-1.342.727-7.088 26.647h-8.948l-.42-.643-3.089-19.07-8.863-31.218.014.014z" fill="#FFF" fill-rule="nonzero"/>
        <path d="M38.074 33.61h6.123l8.137 27.15h1.006l1.972-6.305 6.5-20.845h6.124l6.71 21.502 1.762 5.648h2.754l7.34-27.15h3.44L78.392 84.499H73.64l-6.948-25.892a1.157 1.157 0 0 1 1.118-1.454l-1.342.727-7.088 26.647h-8.948l-.42-.643-3.089-19.07-8.863-31.218.014.014z" stroke="#B8B9B9" stroke-width=".54"/>
        <path d="M34.956 35.33h6.389l8.262 28.575h1.049l2-6.64 6.612-21.936h6.39l6.822 22.635 1.79 5.941h2.865L84.56 35.33h3.593L76.436 86.973h-5.005l-7.284-27.262a1.22 1.22 0 0 1 1.189-1.524l-1.412.77L56.514 87H47.44l-.406-.67-3.257-19.308-8.836-31.694h.014z" fill="#FFF" fill-rule="nonzero"/>
        <path d="M34.956 35.33h6.389l8.262 28.575h1.049l2-6.64 6.612-21.936h6.39l6.822 22.635 1.79 5.941h2.865L84.56 35.33h3.593L76.436 86.973h-5.005l-7.284-27.262a1.22 1.22 0 0 1 1.189-1.524l-1.412.77L56.514 87H47.44l-.406-.67-3.257-19.308-8.836-31.694h.014z" stroke="#B8B9B9" stroke-width=".54"/>
        <path d="M31.852 37.049h6.655l8.388 30.002h1.09l2.042-6.962 6.725-23.04h6.654l6.935 23.767 1.817 6.235h2.992l7.507-30.002h3.733L74.493 89.448H69.25L61.63 60.83a1.288 1.288 0 0 1 1.245-1.608l-1.482.797-7.76 29.443H44.45l-.392-.7-3.411-19.544-8.794-32.155v-.014z" fill="#FFF" fill-rule="nonzero"/>
        <path d="M31.852 37.049h6.655l8.388 30.002h1.09l2.042-6.962 6.725-23.04h6.654l6.935 23.767 1.817 6.235h2.992l7.507-30.002h3.733L74.493 89.448H69.25L61.63 60.83a1.288 1.288 0 0 1 1.245-1.608l-1.482.797-7.76 29.443H44.45l-.392-.7-3.411-19.544-8.794-32.155v-.014z" stroke="#B8B9B9" stroke-width=".55"/>
        <path d="M28.749 38.768h6.92l8.514 31.429h1.146l2.07-7.298 6.836-24.13h6.92l7.047 24.899 1.845 6.529h3.118l7.591-31.429h3.887l-12.08 53.14H67.07L59.114 61.92a1.338 1.338 0 0 1 1.3-1.677l-1.551.838-8.095 30.841h-9.311l-.378-.74L37.5 71.384l-8.765-32.63.014.013z" fill="#FFF" fill-rule="nonzero"/>
        <path d="M28.749 38.768h6.92l8.514 31.429h1.146l2.07-7.298 6.836-24.13h6.92l7.047 24.899 1.845 6.529h3.118l7.591-31.429h3.887l-12.08 53.14H67.07L59.114 61.92a1.338 1.338 0 0 1 1.3-1.677l-1.551.838-8.095 30.841h-9.311l-.378-.74L37.5 71.384l-8.765-32.63.014.013z" stroke="#B8B9B9" stroke-width=".55"/>
        <path d="M25.645 40.488h7.172l8.654 32.868h1.188l2.097-7.633 6.949-25.235h7.172l7.158 26.032 1.887 6.836h3.23l7.675-32.868h4.026l-12.26 53.895h-5.747l-8.29-31.344c-.224-.895.447-1.762 1.356-1.762l-1.622.88-8.43 32.254h-9.423l-.363-.769-3.747-20.034-8.738-33.106.056-.014z" fill="#FFF" fill-rule="nonzero"/>
        <path d="M25.645 40.488h7.172l8.654 32.868h1.188l2.097-7.633 6.949-25.235h7.172l7.158 26.032 1.887 6.836h3.23l7.675-32.868h4.026l-12.26 53.895h-5.747l-8.29-31.344c-.224-.895.447-1.762 1.356-1.762l-1.622.88-8.43 32.254h-9.423l-.363-.769-3.747-20.034-8.738-33.106.056-.014z" stroke="#B8B9B9" stroke-width=".55"/>
        <path d="M22.527 42.194h7.438l8.78 34.294h1.23l2.139-7.969 7.06-26.325h7.438l7.284 27.164 1.915 7.13h3.355l7.76-34.294h4.18L68.676 96.83h-5.983l-8.626-32.715a1.464 1.464 0 0 1 1.426-1.831l-1.691.922-8.766 33.652h-9.549l-.35-.811-3.9-20.272-8.696-33.581h-.014z" fill="#FFF" fill-rule="nonzero"/>
        <path d="M22.527 42.194h7.438l8.78 34.294h1.23l2.139-7.969 7.06-26.325h7.438l7.284 27.164 1.915 7.13h3.355l7.76-34.294h4.18L68.676 96.83h-5.983l-8.626-32.715a1.464 1.464 0 0 1 1.426-1.831l-1.691.922-8.766 33.652h-9.549l-.35-.811-3.9-20.272-8.696-33.581h-.014z" stroke="#B8B9B9" stroke-width=".56"/>
        <path d="M19.424 43.913h7.703l8.905 35.72h1.273l2.167-8.29 7.172-27.43h7.703l7.396 28.297 1.943 7.424h3.481l7.843-35.72h4.334l-12.61 55.39h-6.236L51.537 65.22a1.537 1.537 0 0 1 1.482-1.916l-1.762.95-9.101 35.05h-9.66l-.336-.839-4.069-20.523-8.667-34.043v.014z" fill="#FFF" fill-rule="nonzero"/>
        <path d="M19.424 43.913h7.703l8.905 35.72h1.273l2.167-8.29 7.172-27.43h7.703l7.396 28.297 1.943 7.424h3.481l7.843-35.72h4.334l-12.61 55.39h-6.236L51.537 65.22a1.537 1.537 0 0 1 1.482-1.916l-1.762.95-9.101 35.05h-9.66l-.336-.839-4.069-20.523-8.667-34.043v.014z" stroke="#B8B9B9" stroke-width=".56"/>
        <path d="M16.32 45.633h7.955l9.031 37.146h1.314l2.21-8.626 7.283-28.52h7.97l7.507 29.429 1.97 7.717h3.594l7.927-37.146h4.474l-12.793 56.146h-6.487l-9.297-35.441a1.593 1.593 0 0 1 1.538-1.985l-1.831.992-9.437 36.448h-9.786l-.308-.867-4.236-20.761-8.626-34.518.028-.014z" fill="#FFF" fill-rule="nonzero"/>
        <path d="M16.32 45.633h7.955l9.031 37.146h1.314l2.21-8.626 7.283-28.52h7.97l7.507 29.429 1.97 7.717h3.594l7.927-37.146h4.474l-12.793 56.146h-6.487l-9.297-35.441a1.593 1.593 0 0 1 1.538-1.985l-1.831.992-9.437 36.448h-9.786l-.308-.867-4.236-20.761-8.626-34.518.028-.014z" stroke="#B8B9B9" stroke-width=".56"/>
        <path d="M13.202 47.352h8.22l9.158 38.573h1.37l2.237-8.962 7.396-29.625h8.22L57.437 77.9l1.999 8.025h3.719l8.01-38.573h4.628l-12.96 56.887h-6.725l-9.632-36.81a1.657 1.657 0 0 1 1.608-2.07l-1.902 1.035-9.772 37.845h-9.898l-.294-.908-4.39-21-8.598-34.993-.028.014z" fill="#FFF" fill-rule="nonzero"/>
        <path d="M13.202 47.352h8.22l9.158 38.573h1.37l2.237-8.962 7.396-29.625h8.22L57.437 77.9l1.999 8.025h3.719l8.01-38.573h4.628l-12.96 56.887h-6.725l-9.632-36.81a1.657 1.657 0 0 1 1.608-2.07l-1.902 1.035-9.772 37.845h-9.898l-.294-.908-4.39-21-8.598-34.993-.028.014z" stroke="#B8B9B9" stroke-width=".57"/>
        <path d="M10.099 49.072h8.486l9.297 39.998h1.412l2.265-9.283 7.507-30.715h8.486l7.746 31.694 2.027 8.318h3.83l8.095-39.998h4.768l-13.142 57.642H53.9L43.93 68.56a1.713 1.713 0 0 1 1.664-2.14l-1.971 1.063-10.108 39.258h-10.01l-.28-.937-4.557-21.25L10.112 49.1l-.013-.028z" fill="#FFF" fill-rule="nonzero"/>
        <path d="M10.099 49.072h8.486l9.297 39.998h1.412l2.265-9.283 7.507-30.715h8.486l7.746 31.694 2.027 8.318h3.83l8.095-39.998h4.768l-13.142 57.642H53.9L43.93 68.56a1.713 1.713 0 0 1 1.664-2.14l-1.971 1.063-10.108 39.258h-10.01l-.28-.937-4.557-21.25L10.112 49.1l-.013-.028z" stroke="#B8B9B9" stroke-width=".57"/>
        <path d="M6.995 50.778h8.752l9.423 41.438h1.454l2.306-9.619 7.62-31.82H45.3L53.16 83.59l2.069 8.612h3.956l8.179-41.438h4.92L58.96 109.16h-7.227L41.429 69.623a1.78 1.78 0 0 1 1.72-2.222l-2.042 1.104-10.443 40.655H20.528l-.266-.978-4.725-21.488-8.528-35.93-.014.014z" fill="#FFF" fill-rule="nonzero"/>
        <path d="M6.995 50.778h8.752l9.423 41.438h1.454l2.306-9.619 7.62-31.82H45.3L53.16 83.59l2.069 8.612h3.956l8.179-41.438h4.92L58.96 109.16h-7.227L41.429 69.623a1.78 1.78 0 0 1 1.72-2.222l-2.042 1.104-10.443 40.655H20.528l-.266-.978-4.725-21.488-8.528-35.93-.014.014z" stroke="#B8B9B9" stroke-width=".57"/>
        <path d="M3.891 52.497h9.004l9.548 42.865h1.496l2.335-9.955 7.731-32.91h9.004l7.969 33.945 2.097 8.906h4.082l8.262-42.865h5.061l-13.49 59.138h-7.466l-10.64-40.907c-.293-1.16.588-2.293 1.776-2.293l-2.111 1.147-10.78 42.053H17.51l-.252-1.007-4.88-21.74-8.5-36.405.014.028z" fill="#FFF" fill-rule="nonzero"/>
        <path d="M3.891 52.497h9.004l9.548 42.865h1.496l2.335-9.955 7.731-32.91h9.004l7.969 33.945 2.097 8.906h4.082l8.262-42.865h5.061l-13.49 59.138h-7.466l-10.64-40.907c-.293-1.16.588-2.293 1.776-2.293l-2.111 1.147-10.78 42.053H17.51l-.252-1.007-4.88-21.74-8.5-36.405.014.028z" stroke="#B8B9B9" stroke-width=".58"/>
        <path d="m10.043 54.217 9.674 44.29h1.538l10.206-44.29h9.269l10.206 44.29h4.194l8.346-44.29h5.215l-13.673 59.892h-7.717L36.326 71.846a1.894 1.894 0 0 1 1.845-2.362l-2.18 1.188-11.115 43.451H14.502L.76 54.231h9.269l.014-.014z" fill="#FFF" fill-rule="nonzero"/>
        <path d="m10.043 54.217 9.674 44.29h1.538l10.206-44.29h9.269l10.206 44.29h4.194l8.346-44.29h5.215l-13.673 59.892h-7.717L36.326 71.846a1.894 1.894 0 0 1 1.845-2.362l-2.18 1.188-11.115 43.451H14.502L.76 54.231h9.269l.014-.014z" stroke="#B8B9B9" stroke-width=".58"/>
    </g>
</svg>
