<svg width="95" height="122" viewBox="0 0 95 122" xmlns="http://www.w3.org/2000/svg">
    <g fill="none" fill-rule="evenodd">
        <path fill="#FFF" fill-rule="nonzero" d="M64.37.317 66.731.4l5.998.755 1.37.182.517-.028 7.018-.35 3.286.14 4.543 18.287.21.88 4.32 17.407-1.915.055-5.704.154-1.664-7.34-9.633.266-1.37 5.159-.531 2.279-2.167-11.283-.308-1.663-2.027-9.577-.825-2.922z"/>
        <path stroke="#B8B9B9" stroke-width=".48" d="M64.37.317 66.731.4l5.998.755 1.37.182.517-.028 7.018-.35 3.286.14 4.543 18.287.21.88 4.32 17.407-1.915.055-5.704.154-1.664-7.34-9.633.266-1.37 5.159-.531 2.279-2.167-11.283-.308-1.663-2.027-9.577-.825-2.922z"/>
        <path fill="#FFF" fill-rule="nonzero" d="m62.524 2.763 2.516.084 6.096 1.286 1.398.294.531-.07 7.116-.965 3.51.154 4.124 18.147.195.867 3.943 17.266-1.888.097-5.508.308-1.622-6.878-9.297.53-1.565 4.992-.518 2.097-2.097-11.408-.307-1.664-2.153-9.632-.853-2.95z"/>
        <path stroke="#B8B9B9" stroke-width=".48" d="m62.524 2.763 2.516.084 6.096 1.286 1.398.294.531-.07 7.116-.965 3.51.154 4.124 18.147.195.867 3.943 17.266-1.888.097-5.508.308-1.622-6.878-9.297.53-1.565 4.992-.518 2.097-2.097-11.408-.307-1.664-2.153-9.632-.853-2.95z"/>
        <path fill="#FFF" fill-rule="nonzero" d="m60.678 5.224 2.67.07 6.208 1.817 1.412.42.531-.112 7.228-1.608 3.72.182 3.732 17.993.168.866 3.55 17.127-1.845.14-5.326.46-1.552-6.402-8.976.769-1.747 4.823-.504 1.915-2.04-11.506-.294-1.691-2.28-9.689-.894-2.964z"/>
        <path stroke="#B8B9B9" stroke-width=".48" d="m60.678 5.224 2.67.07 6.208 1.817 1.412.42.531-.112 7.228-1.608 3.72.182 3.732 17.993.168.866 3.55 17.127-1.845.14-5.326.46-1.552-6.402-8.976.769-1.747 4.823-.504 1.915-2.04-11.506-.294-1.691-2.28-9.689-.894-2.964z"/>
        <path fill="#FFF" fill-rule="nonzero" d="m58.833 7.67 2.824.084 6.305 2.335 1.44.545.531-.168 7.34-2.223 3.943.196 3.313 17.84.154.866 3.16 16.987-1.804.181-5.13.615-1.497-5.941-8.654 1.034-1.943 4.656-.49 1.72-1.97-11.618-.294-1.706-2.405-9.73-.908-2.978z"/>
        <path stroke="#B8B9B9" stroke-width=".48" d="m58.833 7.67 2.824.084 6.305 2.335 1.44.545.531-.168 7.34-2.223 3.943.196 3.313 17.84.154.866 3.16 16.987-1.804.181-5.13.615-1.497-5.941-8.654 1.034-1.943 4.656-.49 1.72-1.97-11.618-.294-1.706-2.405-9.73-.908-2.978z"/>
        <path fill="#FFF" fill-rule="nonzero" d="m56.988 10.13 2.977.07 6.403 2.867 1.468.67.546-.209 7.451-2.852 4.152.21 2.894 17.7.14.852 2.768 16.833-1.761.223-4.935.783-1.44-5.48-8.333 1.3-2.139 4.474-.461 1.552-1.915-11.73-.28-1.734-2.53-9.772-.951-3.006z"/>
        <path stroke="#B8B9B9" stroke-width=".48" d="m56.988 10.13 2.977.07 6.403 2.867 1.468.67.546-.209 7.451-2.852 4.152.21 2.894 17.7.14.852 2.768 16.833-1.761.223-4.935.783-1.44-5.48-8.333 1.3-2.139 4.474-.461 1.552-1.915-11.73-.28-1.734-2.53-9.772-.951-3.006z"/>
        <path fill="#FFF" fill-rule="nonzero" d="m55.156 12.577 3.118.07 6.515 3.398 1.482.783.545-.252 7.563-3.467 4.362.223 2.503 17.546.112.853 2.39 16.693-1.733.265-4.754.937-1.37-5.02-8.01 1.567-2.321 4.306-.462 1.356-1.845-11.842-.266-1.733-2.67-9.829-.979-3.02z"/>
        <path stroke="#B8B9B9" stroke-width=".48" d="m55.156 12.577 3.118.07 6.515 3.398 1.482.783.545-.252 7.563-3.467 4.362.223 2.503 17.546.112.853 2.39 16.693-1.733.265-4.754.937-1.37-5.02-8.01 1.567-2.321 4.306-.462 1.356-1.845-11.842-.266-1.733-2.67-9.829-.979-3.02z"/>
        <path fill="#FFF" fill-rule="nonzero" d="m53.31 15.038 3.286.056 6.599 3.914 1.496.923.573-.293 7.661-4.11 4.586.237 2.083 17.406.098.853 2 16.553-1.693.307-4.557 1.077-1.314-4.544-7.69 1.831-2.516 4.125-.434 1.174L61.7 42.594l-.266-1.748-2.782-9.884-1.02-3.034z"/>
        <path stroke="#B8B9B9" stroke-width=".48" d="m53.31 15.038 3.286.056 6.599 3.914 1.496.923.573-.293 7.661-4.11 4.586.237 2.083 17.406.098.853 2 16.553-1.693.307-4.557 1.077-1.314-4.544-7.69 1.831-2.516 4.125-.434 1.174L61.7 42.594l-.266-1.748-2.782-9.884-1.02-3.034z"/>
        <path fill="#FFF" fill-rule="nonzero" d="m51.465 17.485 3.44.07 6.71 4.431 1.51 1.049.573-.35 7.773-4.725 4.81.252 1.677 17.252.084.838 1.594 16.414-1.65.363-4.362 1.23-1.272-4.068-7.354 2.07-2.712 3.97-.42.992-1.719-12.065-.252-1.776-2.907-9.926-1.063-3.061z"/>
        <path stroke="#B8B9B9" stroke-width=".48" d="m51.465 17.485 3.44.07 6.71 4.431 1.51 1.049.573-.35 7.773-4.725 4.81.252 1.677 17.252.084.838 1.594 16.414-1.65.363-4.362 1.23-1.272-4.068-7.354 2.07-2.712 3.97-.42.992-1.719-12.065-.252-1.776-2.907-9.926-1.063-3.061z"/>
        <path fill="#FFF" fill-rule="nonzero" d="m49.62 19.945 3.593.056 6.808 4.963 1.538 1.16.573-.39 7.885-5.341 5.033.265L76.31 37.77l.07.825 1.216 16.274-1.622.405-4.166 1.384-1.216-3.607-7.033 2.335-2.894 3.789-.405.81-1.664-12.177-.251-1.79-3.034-9.967-1.09-3.076z"/>
        <path stroke="#B8B9B9" stroke-width=".48" d="m49.62 19.945 3.593.056 6.808 4.963 1.538 1.16.573-.39 7.885-5.341 5.033.265L76.31 37.77l.07.825 1.216 16.274-1.622.405-4.166 1.384-1.216-3.607-7.033 2.335-2.894 3.789-.405.81-1.664-12.177-.251-1.79-3.034-9.967-1.09-3.076z"/>
        <path fill="#FFF" fill-rule="nonzero" d="m47.788 22.392 3.733.056 6.907 5.494 1.565 1.286.588-.433 7.996-5.984 5.23.294.866 16.958.042.825.825 16.134-1.58.447-3.985 1.538-1.146-3.146-6.71 2.6-3.09 3.622-.392.629-1.594-12.303-.237-1.804-3.16-10.024-1.132-3.09z"/>
        <path stroke="#B8B9B9" stroke-width=".48" d="m47.788 22.392 3.733.056 6.907 5.494 1.565 1.286.588-.433 7.996-5.984 5.23.294.866 16.958.042.825.825 16.134-1.58.447-3.985 1.538-1.146-3.146-6.71 2.6-3.09 3.622-.392.629-1.594-12.303-.237-1.804-3.16-10.024-1.132-3.09z"/>
        <path fill="#FFF" fill-rule="nonzero" d="m45.943 24.852 3.886.056 7.019 6.012 1.426.238 1.412-1.049 7.437-4.865 5.453.307.447 16.805.028.825.434 15.98-1.538.503-3.789 1.692-1.09-2.685-6.39 2.866-3.285 3.44-.364.447-1.537-12.4-.224-1.818-3.3-10.08-1.146-3.118z"/>
        <path stroke="#B8B9B9" stroke-width=".48" d="m45.943 24.852 3.886.056 7.019 6.012 1.426.238 1.412-1.049 7.437-4.865 5.453.307.447 16.805.028.825.434 15.98-1.538.503-3.789 1.692-1.09-2.685-6.39 2.866-3.285 3.44-.364.447-1.537-12.4-.224-1.818-3.3-10.08-1.146-3.118z"/>
        <path fill="#FFF" fill-rule="nonzero" d="m44.097 27.299 4.055.056 7.102 6.543 3.048 2.81.6-.531 6.767-8.5 5.677.321.041 16.665v.81l.042 15.84-1.496.546-3.593 1.845-1.034-2.223-6.068 3.132-3.467 3.271-.363.252-1.468-12.512-.224-1.832-3.411-10.122-1.189-3.131z"/>
        <path stroke="#B8B9B9" stroke-width=".48" d="m44.097 27.299 4.055.056 7.102 6.543 3.048 2.81.6-.531 6.767-8.5 5.677.321.041 16.665v.81l.042 15.84-1.496.546-3.593 1.845-1.034-2.223-6.068 3.132-3.467 3.271-.363.252-1.468-12.512-.224-1.832-3.411-10.122-1.189-3.131z"/>
        <path fill="#FFF" fill-rule="nonzero" d="m41.539 30.067 4.767.112 7.005 6.697 3.061 2.922.616-.56 6.878-9.143 5.872.35-.35 16.51-.028.811-.335 15.7-1.468.588-3.397 1.999-.98-1.748-5.745 3.384-3.663 3.09-.336.083-1.412-12.624-.21-1.86-3.536-10.177-1.23-3.146z"/>
        <path stroke="#B8B9B9" stroke-width=".48" d="m41.539 30.067 4.767.112 7.005 6.697 3.061 2.922.616-.56 6.878-9.143 5.872.35-.35 16.51-.028.811-.335 15.7-1.468.588-3.397 1.999-.98-1.748-5.745 3.384-3.663 3.09-.336.083-1.412-12.624-.21-1.86-3.536-10.177-1.23-3.146z"/>
        <path fill="#FFF" fill-rule="nonzero" d="m39.638 32.15 4.362.056 7.311 7.592 2.573 2.684.615-.601 7.508-9.41 6.095.364-.769 16.357-.042.811-.727 15.56-1.426.63-3.215 2.153-.91-1.286-5.424 3.648-3.858 2.922-.322-.111-1.356-12.737-.196-1.873-3.662-10.22-1.259-3.16z"/>
        <path stroke="#B8B9B9" stroke-width=".48" d="m39.638 32.15 4.362.056 7.311 7.592 2.573 2.684.615-.601 7.508-9.41 6.095.364-.769 16.357-.042.811-.727 15.56-1.426.63-3.215 2.153-.91-1.286-5.424 3.648-3.858 2.922-.322-.111-1.356-12.737-.196-1.873-3.662-10.22-1.259-3.16z"/>
        <path fill="#FFF" fill-rule="nonzero" d="m37.387 34.513 4.516.042 7.41 8.123 2.208 2.726.63-.657 7.996-9.927 6.305.364-1.174 16.217-.056.797-1.118 15.42-1.384.672-3.02 2.32-.867-.824-5.089 3.9-4.054 2.755-.308-.294-1.286-12.848-.182-1.888-3.803-10.275-1.286-3.174z"/>
        <path stroke="#B8B9B9" stroke-width=".48" d="m37.387 34.513 4.516.042 7.41 8.123 2.208 2.726.63-.657 7.996-9.927 6.305.364-1.174 16.217-.056.797-1.118 15.42-1.384.672-3.02 2.32-.867-.824-5.089 3.9-4.054 2.755-.308-.294-1.286-12.848-.182-1.888-3.803-10.275-1.286-3.174z"/>
        <path fill="#FFF" fill-rule="nonzero" d="m35.136 36.876 4.67.042 7.507 8.64 2.32 2.306.63-.713 8.025-9.996 6.529.392-1.594 16.063-.084.783-1.496 15.28-1.356.728-2.824 2.46-.797-.363-4.781 4.166-4.222 2.587-.308-.476-1.216-12.96-.182-1.901-3.915-10.318-1.328-3.215z"/>
        <path stroke="#B8B9B9" stroke-width=".48" d="m35.136 36.876 4.67.042 7.507 8.64 2.32 2.306.63-.713 8.025-9.996 6.529.392-1.594 16.063-.084.783-1.496 15.28-1.356.728-2.824 2.46-.797-.363-4.781 4.166-4.222 2.587-.308-.476-1.216-12.96-.182-1.901-3.915-10.318-1.328-3.215z"/>
        <path fill="#FFF" fill-rule="nonzero" d="m32.885 39.238 4.823.042 7.62 9.171 1.93 2.447.642-.755 8.528-10.653 6.739.405-1.985 15.924-.112.783-1.888 15.127-1.314.769-2.628 2.614-.755.112-4.446 4.418-4.418 2.419-.28-.657-1.16-13.072-.181-1.93-4.04-10.36-1.357-3.229z"/>
        <path stroke="#B8B9B9" stroke-width=".48" d="m32.885 39.238 4.823.042 7.62 9.171 1.93 2.447.642-.755 8.528-10.653 6.739.405-1.985 15.924-.112.783-1.888 15.127-1.314.769-2.628 2.614-.755.112-4.446 4.418-4.418 2.419-.28-.657-1.16-13.072-.181-1.93-4.04-10.36-1.357-3.229z"/>
        <path fill="#FFF" fill-rule="nonzero" d="m30.634 41.601 4.977.028 7.718 9.702 1.72 2.265 1.509-1.761 8.01-10.01 6.963.42-2.404 15.77-.126.782-2.28 14.987-1.271.811-2.447 2.782-.685.56-4.124 4.697-4.614 2.237-.265-.853-1.105-13.184-.154-1.929-4.18-10.415-1.384-3.244z"/>
        <path stroke="#B8B9B9" stroke-width=".48" d="m30.634 41.601 4.977.028 7.718 9.702 1.72 2.265 1.509-1.761 8.01-10.01 6.963.42-2.404 15.77-.126.782-2.28 14.987-1.271.811-2.447 2.782-.685.56-4.124 4.697-4.614 2.237-.265-.853-1.105-13.184-.154-1.929-4.18-10.415-1.384-3.244z"/>
        <path fill="#FFF" fill-rule="nonzero" d="m28.383 43.964 5.131.028 7.815 10.22 1.748 2.39.643-.839 8.99-11.604 7.171.448-2.81 15.616-.14.769-2.67 14.847-1.23.867-2.25 2.922-.63 1.035-3.803 4.949-4.809 2.069-.252-1.035-1.034-13.295-.154-1.943-4.292-10.472-1.44-3.257z"/>
        <path stroke="#B8B9B9" stroke-width=".48" d="m28.383 43.964 5.131.028 7.815 10.22 1.748 2.39.643-.839 8.99-11.604 7.171.448-2.81 15.616-.14.769-2.67 14.847-1.23.867-2.25 2.922-.63 1.035-3.803 4.949-4.809 2.069-.252-1.035-1.034-13.295-.154-1.943-4.292-10.472-1.44-3.257z"/>
        <path fill="#FFF" fill-rule="nonzero" d="m26.132 46.326 5.285.028 7.913 10.751 1.762 2.503.657-.88 9.101-12.234 7.396.462-3.23 15.476-.154.769-3.061 14.693-1.189.91-2.069 3.089-4.04 6.697-5.005 1.901-.238-1.216-.964-13.408-.154-1.97-4.418-10.514-1.468-3.272z"/>
        <path stroke="#B8B9B9" stroke-width=".48" d="m26.132 46.326 5.285.028 7.913 10.751 1.762 2.503.657-.88 9.101-12.234 7.396.462-3.23 15.476-.154.769-3.061 14.693-1.189.91-2.069 3.089-4.04 6.697-5.005 1.901-.238-1.216-.964-13.408-.154-1.97-4.418-10.514-1.468-3.272z"/>
        <path fill="#FFF" fill-rule="nonzero" d="m23.882 48.69 5.438.027 8.01 11.268 1.79 2.629.671-.923 9.2-12.862 7.605.475-3.62 15.337-.183.755-3.453 14.568-1.16.936-1.86 3.244-3.677 7.423-5.186 1.734-.21-1.398-.923-13.52-.126-1.984-4.557-10.57-1.496-3.285z"/>
        <path stroke="#B8B9B9" stroke-width=".48" d="m23.882 48.69 5.438.027 8.01 11.268 1.79 2.629.671-.923 9.2-12.862 7.605.475-3.62 15.337-.183.755-3.453 14.568-1.16.936-1.86 3.244-3.677 7.423-5.186 1.734-.21-1.398-.923-13.52-.126-1.984-4.557-10.57-1.496-3.285z"/>
        <path fill="#FFF" fill-rule="nonzero" d="m21.63 51.052 5.593.014 8.109 11.8 1.803 2.754.685-.965 9.311-13.477 7.83.489-4.041 15.169-.21.755-3.83 14.428-1.119.992-1.678 3.384-3.285 8.164-5.382 1.552-.196-1.58-.853-13.63-.126-2-4.67-10.611-1.537-3.327z"/>
        <path stroke="#B8B9B9" stroke-width=".48" d="m21.63 51.052 5.593.014 8.109 11.8 1.803 2.754.685-.965 9.311-13.477 7.83.489-4.041 15.169-.21.755-3.83 14.428-1.119.992-1.678 3.384-3.285 8.164-5.382 1.552-.196-1.58-.853-13.63-.126-2-4.67-10.611-1.537-3.327z"/>
        <path fill="#FFF" fill-rule="nonzero" d="m19.38 53.415 5.746.014 8.22 12.33 1.818 2.88.685-1.034 9.423-14.093 8.039.504-4.446 15.029-.224.74-4.208 14.289-1.09 1.034-1.482 3.552-2.908 8.877-5.565 1.37-.195-1.761-.783-13.73-.112-2.026-4.81-10.654-1.565-3.34z"/>
        <path stroke="#B8B9B9" stroke-width=".48" d="m19.38 53.415 5.746.014 8.22 12.33 1.818 2.88.685-1.034 9.423-14.093 8.039.504-4.446 15.029-.224.74-4.208 14.289-1.09 1.034-1.482 3.552-2.908 8.877-5.565 1.37-.195-1.761-.783-13.73-.112-2.026-4.81-10.654-1.565-3.34z"/>
        <path fill="#FFF" fill-rule="nonzero" d="m17.129 55.763 5.9.028 8.318 12.848 1.846 3.006.685-1.076 9.534-14.722 8.263.517-4.851 14.89-.252.74-4.6 14.135-1.048 1.077-1.3 3.704-2.517 9.605-5.76 1.202-.182-1.943-.713-13.855-.111-2.027-4.935-10.709-1.594-3.355z"/>
        <path stroke="#B8B9B9" stroke-width=".48" d="m17.129 55.763 5.9.028 8.318 12.848 1.846 3.006.685-1.076 9.534-14.722 8.263.517-4.851 14.89-.252.74-4.6 14.135-1.048 1.077-1.3 3.704-2.517 9.605-5.76 1.202-.182-1.943-.713-13.855-.111-2.027-4.935-10.709-1.594-3.355z"/>
        <path fill="#FFF" fill-rule="nonzero" d="m14.878 58.126 6.054.028 8.416 13.365 1.86 3.132.698-1.118 9.647-15.351 8.472.545-5.256 14.736-.266.727-4.991 13.994-1.007 1.133-1.104 3.858-2.153 10.318-5.942 1.034-.154-2.125-.67-13.966-.099-2.041-5.047-10.765-1.635-3.37z"/>
        <path stroke="#B8B9B9" stroke-width=".48" d="m14.878 58.126 6.054.028 8.416 13.365 1.86 3.132.698-1.118 9.647-15.351 8.472.545-5.256 14.736-.266.727-4.991 13.994-1.007 1.133-1.104 3.858-2.153 10.318-5.942 1.034-.154-2.125-.67-13.966-.099-2.041-5.047-10.765-1.635-3.37z"/>
        <path fill="#FFF" fill-rule="nonzero" d="m12.627 60.489 6.208.014 8.514 13.91 1.887 3.244.713-1.16 9.745-15.98 8.695.559-5.676 14.582-.28.727-5.382 13.854-.978 1.175-.91 4.012-1.76 11.059-6.138.852-.14-2.306-.601-14.079-.084-2.069-5.187-10.807-1.663-3.383z"/>
        <path stroke="#B8B9B9" stroke-width=".48" d="m12.627 60.489 6.208.014 8.514 13.91 1.887 3.244.713-1.16 9.745-15.98 8.695.559-5.676 14.582-.28.727-5.382 13.854-.978 1.175-.91 4.012-1.76 11.059-6.138.852-.14-2.306-.601-14.079-.084-2.069-5.187-10.807-1.663-3.383z"/>
        <path fill="#FFF" fill-rule="nonzero" d="m10.376 62.851 6.362.014 8.612 14.428 1.915 3.37.713-1.203 9.856-16.609 8.906.574-6.082 14.442-.307.727-5.76 13.7-.937 1.23-.713 4.153-1.384 11.786-6.333.685-.126-2.489-.531-14.19-.084-2.083-5.313-10.863-1.691-3.411z"/>
        <path stroke="#B8B9B9" stroke-width=".48" d="m10.376 62.851 6.362.014 8.612 14.428 1.915 3.37.713-1.203 9.856-16.609 8.906.574-6.082 14.442-.307.727-5.76 13.7-.937 1.23-.713 4.153-1.384 11.786-6.333.685-.126-2.489-.531-14.19-.084-2.083-5.313-10.863-1.691-3.411z"/>
        <path fill="#FFF" fill-rule="nonzero" d="m8.126 65.228 6.514.014 8.724 14.945 1.916 3.495.727-1.244L35.975 65.2l9.13.601-6.488 14.288-.335.713-6.152 13.562-.895 1.272-1.523 16.818-6.53.518-.111-2.685L22.595 96l-.056-2.11-5.438-10.906-1.734-3.425z"/>
        <path stroke="#B8B9B9" stroke-width=".48" d="m8.126 65.228 6.514.014 8.724 14.945 1.916 3.495.727-1.244L35.975 65.2l9.13.601-6.488 14.288-.335.713-6.152 13.562-.895 1.272-1.523 16.818-6.53.518-.111-2.685L22.595 96l-.056-2.11-5.438-10.906-1.734-3.425z"/>
        <path fill="#FFF" fill-rule="nonzero" d="M5.875 67.605h6.668l8.822 15.476 1.943 3.621.727-1.3 10.08-17.853 9.34.615-6.893 14.134-.35.713-7.395 14.736-.95 17.7-6.726.349-.083-2.866-.42-14.414-.056-2.111-5.564-10.961-1.762-3.44z"/>
        <path stroke="#B8B9B9" stroke-width=".48" d="M5.875 67.605h6.668l8.822 15.476 1.943 3.621.727-1.3 10.08-17.853 9.34.615-6.893 14.134-.35.713-7.395 14.736-.95 17.7-6.726.349-.083-2.866-.42-14.414-.056-2.111-5.564-10.961-1.762-3.44z"/>
        <path fill="#FFF" fill-rule="nonzero" d="M3.624 69.982h6.822l8.92 15.993 1.971 3.747.727-1.342 10.192-18.482 9.563.629-7.312 13.994-.364.7L27.21 98.5l-.81 1.357-.392 18.58-6.893.182-.084-3.048-.35-14.526-.055-2.125-5.69-11.016-1.79-3.454z"/>
        <path stroke="#B8B9B9" stroke-width=".48" d="M3.624 69.982h6.822l8.92 15.993 1.971 3.747.727-1.342 10.192-18.482 9.563.629-7.312 13.994-.364.7L27.21 98.5l-.81 1.357-.392 18.58-6.893.182-.084-3.048-.35-14.526-.055-2.125-5.69-11.016-1.79-3.454z"/>
        <path fill="#FFF" fill-rule="nonzero" d="m17.367 88.883 1.985 3.859 11.045-20.496 9.772.643-8.095 14.54-8.108 14.554.195 19.46h-7.088l-.391-20.02-7.648-14.539-7.661-14.526h6.976z"/>
        <path stroke="#B8B9B9" stroke-width=".48" d="m17.367 88.883 1.985 3.859 11.045-20.496 9.772.643-8.095 14.54-8.108 14.554.195 19.46h-7.088l-.391-20.02-7.648-14.539-7.661-14.526h6.976z"/>
    </g>
</svg>
