<svg width="24" height="24" viewBox="0 0 24 24" xmlns="http://www.w3.org/2000/svg">
    <g fill="none" fill-rule="evenodd">
        <circle fill="#CCC" cx="12" cy="12" r="8"/>
        <path d="M11.75 16.1c-.477 0-.851-.348-.851-.793 0-.446.366-.782.85-.782.493 0 .863.336.863.782 0 .452-.37.793-.862.793zm.011-2.236c-.397 0-.654-.208-.654-.53 0-.733.15-1.16 1.077-1.905.9-.723 1.06-.993 1.06-1.392v-.074c0-.581-.498-.929-1.332-.929-.738 0-1.215.282-1.547.527a.605.605 0 0 1-.342.11.634.634 0 0 1-.475-.23.545.545 0 0 1-.146-.419.52.52 0 0 1 .22-.368c.617-.485 1.44-.754 2.313-.754 1.619 0 2.665.793 2.665 2.021v.105c0 .782-.43 1.271-1.33 2.01-.805.668-.877.88-.877 1.318 0 .296-.266.51-.632.51z" fill="#FFF" fill-rule="nonzero"/>
    </g>
</svg>
