<svg width="18" height="18" viewBox="0 0 18 18" xmlns="http://www.w3.org/2000/svg" xmlns:xlink="http://www.w3.org/1999/xlink">
    <defs>
        <path id="pqrjmetwca" d="M0 0h18v18H0z"/>
    </defs>
    <g fill="none" fill-rule="evenodd">
        <g>
            <mask id="anbxr72i6b" fill="#fff">
                <use xlink:href="#pqrjmetwca"/>
            </mask>
            <path d="M18 9A9 9 0 1 1 0 9a9 9 0 0 1 18 0" fill="#FEFEFE" mask="url(#anbxr72i6b)"/>
        </g>
        <path d="M13.23 8.372C11.8 7.4 9.966 7.795 9 9.26a2.985 2.985 0 0 1-2.483 1.375c-1.533 0-2.58-1.078-2.89-2.192h-.002l-.008-.032-.01-.038a3.817 3.817 0 0 1-.153-1.182c0-2.664 2.736-5.632 6.673-5.632 4.034 0 6.342 3.07 6.939 4.777A8.496 8.496 0 0 0 8.996.507C4.31.507.507 4.307.507 9c0 4.192 3.024 7.781 7.22 7.781 3.344 0 5.593-1.875 6.623-4.46.566-1.415.166-3.076-1.118-3.949" fill="#003863"/>
        <path d="M17.118 6.5c-.497-1.665-2.82-4.942-6.99-4.942-3.938 0-6.674 2.968-6.674 5.633 0 .494.03.715.153 1.181a2.488 2.488 0 0 1-.077-.606c0-2.776 2.779-4.698 5.635-4.698a7.003 7.003 0 0 1 7.003 7.001 7.72 7.72 0 0 1-4.278 6.917v.002A8.496 8.496 0 0 0 17.49 9c0-.87-.116-1.637-.372-2.5" fill="#E3042E"/>
    </g>
</svg>
